<svg width="360" height="330" viewBox="0 0 360 330" fill="none" xmlns="http://www.w3.org/2000/svg">
<path d="M33.8098 218.961C22.2925 204.32 16.3535 186.059 17.0487 167.424C17.7439 148.789 25.0281 130.988 37.6065 117.186L37.7153 117.067L37.8692 117.071C45.7342 117.29 53.5888 116.29 61.1532 114.106C55.4171 114.136 49.7189 113.204 44.2961 111.349L43.732 111.165L44.1808 110.775C45.1687 109.917 46.1704 109.089 47.1562 108.313C57.6746 99.9825 70.1483 94.4814 83.3855 92.3359C96.6226 90.1903 110.181 91.472 122.764 96.0584C126.737 67.5834 141.626 41.7395 164.285 23.9865C212.613 -14.0351 282.791 -5.74243 320.724 42.4725C335.212 60.8354 343.519 83.3147 344.462 106.706C345.404 130.098 338.933 153.208 325.972 172.743L325.797 173.006L325.523 172.85C318.423 168.798 312.952 164.232 308.885 158.947C311.888 166.253 316.014 173.044 321.114 179.075L321.288 179.28L321.122 179.496C315.517 186.712 309.051 193.217 301.867 198.866C301.608 199.07 301.348 199.273 301.088 199.474C295.49 203.851 290.875 209.355 287.544 215.628C284.213 221.901 282.24 228.802 281.754 235.881C280.926 247.232 277.647 258.274 272.144 268.249C266.641 278.223 259.044 286.893 249.876 293.663C240.708 300.432 230.186 305.139 219.034 307.461C207.883 309.782 196.366 309.663 185.277 307.112L185.075 307.065L185.026 306.865C181.991 294.446 181.624 284.423 183.913 275.6C179.042 284.181 175.856 293.611 174.529 303.38L174.471 303.806L174.071 303.649C161.4 298.651 150.249 290.453 141.706 279.855C133.163 269.257 127.519 256.621 125.325 243.178C109.474 249.556 91.9966 250.644 75.5027 246.279C59.0087 241.914 44.3831 232.331 33.8098 218.961V218.961Z" fill="#6C63FF" fill-opacity="0.2"/>
<path d="M315.06 313.997C315.485 314.013 315.904 313.897 316.262 313.665C316.619 313.433 316.896 313.097 317.057 312.702C317.217 312.307 317.252 311.872 317.158 311.456C317.063 311.04 316.844 310.663 316.529 310.376C316.475 310.168 316.436 310.019 316.381 309.811C316.778 308.771 317.475 307.873 318.384 307.234C319.292 306.594 320.371 306.241 321.48 306.219C322.59 306.198 323.681 306.51 324.613 307.115C325.545 307.72 326.276 308.59 326.712 309.614C329.225 315.363 332.463 321.308 330.941 327.681C341.181 305.361 337.365 277.756 321.739 258.901C317.447 256.583 313.947 252.424 313 247.566C315.12 248.264 317.738 246.515 316.128 244.297C315.431 243.45 314.728 242.611 314.031 241.764C321.976 233.112 331.667 246.497 322.942 258.155C325.867 261.762 328.407 265.666 330.523 269.804C330.001 265.394 330.531 260.923 332.068 256.759C333.63 252.877 336.594 249.592 339.199 246.224C342.367 242.12 348.985 243.936 349.465 249.101C346.515 250.105 346.172 254.397 349.562 254.952C348.767 264.576 342.589 273.472 334.004 277.772C337.274 286.706 338.608 296.238 337.918 305.73C339.335 294.63 351.171 291.827 359.42 287.342C359.945 286.997 360.558 286.813 361.185 286.812C361.812 286.811 362.425 286.994 362.951 287.336C363.476 287.679 363.891 288.168 364.144 288.744C364.398 289.319 364.478 289.956 364.377 290.576C363.237 291.054 362.147 291.644 361.124 292.338C360.644 292.668 360.278 293.139 360.076 293.686C359.873 294.233 359.845 294.829 359.993 295.394C360.142 295.958 360.461 296.462 360.907 296.837C361.353 297.212 361.903 297.439 362.483 297.488C358.402 307.904 347.663 314.975 336.566 315.042C335.543 319.701 334.041 324.24 332.083 328.588L315.613 328.745C315.552 328.562 315.497 328.373 315.442 328.19C316.967 328.272 318.497 328.165 319.997 327.874C315.918 323.122 312.775 320.708 315.059 313.997L315.06 313.997Z" fill="#F2F2F2"/>
<path d="M287.549 63.9049C286.769 66.8009 287.665 71.3609 288.003 74.0642C288.364 76.9543 283.37 79.5408 280.512 79.7043C280.583 78.7477 280.315 77.7967 279.756 77.0185C279.749 77.944 279.559 78.8589 279.197 79.7101H255.351C252.348 74.0408 249.793 66.2929 252.552 58.2823C252.691 56.6734 253.302 55.1419 254.306 53.8798C255.311 52.6177 256.664 51.6814 258.197 51.1883L271.2 47.0137C276.328 47.0137 282.619 47.7435 285.454 51.5737C286.708 53.337 287.549 55.3625 287.911 57.4982C288.274 59.6338 288.15 61.8242 287.549 63.9049V63.9049Z" fill="#2F2E41"/>
<path d="M276.387 317.752H269.963L266.905 292.895H276.387V317.752Z" fill="#A0616A"/>
<path d="M279.778 328.917H275.171L274.348 324.554L272.242 328.917H260.023C259.438 328.917 258.867 328.729 258.395 328.381C257.924 328.033 257.575 327.543 257.401 326.982C257.227 326.421 257.236 325.818 257.427 325.263C257.618 324.708 257.981 324.228 258.462 323.894L268.22 317.134V312.723L278.484 313.337L279.778 328.917Z" fill="#2F2E41"/>
<path d="M286.472 272.73L281.961 277.32L262.169 262.052L268.826 255.279L286.472 272.73Z" fill="#A0616A"/>
<path d="M296.778 278.147L293.544 281.438L289.869 278.962L291.488 283.53L282.909 292.258C282.498 292.677 281.964 292.952 281.386 293.045C280.807 293.137 280.214 293.042 279.694 292.773C279.173 292.504 278.752 292.074 278.492 291.548C278.232 291.022 278.146 290.426 278.248 289.847L280.299 278.13L277.168 275.033L284.81 268.133L296.778 278.147Z" fill="#2F2E41"/>
<path d="M235.081 138.252L254.513 107.238C255.333 105.921 255.603 104.334 255.267 102.82C254.93 101.305 254.013 99.9835 252.714 99.1409V99.1409C252.042 98.7049 251.288 98.4109 250.499 98.2766C249.71 98.1424 248.902 98.1707 248.124 98.36C247.347 98.5492 246.615 98.8954 245.975 99.3774C245.335 99.8594 244.8 100.467 244.401 101.163L225.201 134L212.695 153.46C211.655 153.278 210.584 153.421 209.627 153.871C208.671 154.321 207.876 155.055 207.35 155.973C206.824 156.892 206.593 157.951 206.688 159.006C206.783 160.062 207.199 161.062 207.88 161.871C208.562 162.681 209.475 163.26 210.496 163.531C211.517 163.802 212.597 163.751 213.588 163.385C214.579 163.018 215.434 162.355 216.036 161.485C216.638 160.614 216.959 159.579 216.954 158.52L235.081 138.252Z" fill="#A0616A"/>
<path d="M253.394 115.348L255.032 115.038C254.812 114.635 254.72 114.174 254.768 113.716C254.817 113.259 255.004 112.827 255.305 112.48C255.605 112.132 256.005 111.886 256.45 111.773C256.894 111.66 257.362 111.686 257.792 111.849C255.818 109.783 256.776 106.383 258.046 103.821C258.964 101.969 259.996 100.139 260.445 98.1209C261.127 95.0567 260.247 91.348 256.174 90.6143C254.508 90.3529 252.805 90.699 251.372 91.5897C248.811 93.1073 248.235 92.4466 246.62 94.8896L245.699 96.6059C244.517 98.464 243.106 100.165 241.5 101.669C240.351 102.817 239.425 104.169 238.769 105.657C238.683 105.841 238.556 106.002 238.397 106.129C237.767 106.618 236.911 106.642 236.121 106.746C235.126 106.877 233.987 107.3 234.013 108.539C234.028 108.835 234.103 109.124 234.234 109.39C234.366 109.655 234.551 109.891 234.777 110.081C238.979 113.77 243.897 116.548 249.221 118.239C250.403 118.614 251.732 118.924 252.845 118.374C253.957 117.824 254.434 116.026 253.394 115.348Z" fill="#6C63FF"/>
<path d="M278.05 174.295L240.218 173.711L239.054 164.953L242.546 145.102H272.229L278.05 174.295Z" fill="#A0616A"/>
<path d="M197.148 197.649H49.8945C46.3454 197.645 42.9427 196.229 40.4331 193.711C37.9235 191.194 36.5118 187.781 36.5078 184.22V99.5598C36.5118 95.9994 37.9235 92.5861 40.4331 90.0686C42.9428 87.551 46.3454 86.1349 49.8945 86.1309H197.148C200.697 86.1349 204.1 87.551 206.61 90.0686C209.119 92.5861 210.531 95.9994 210.535 99.5598V184.22C210.531 187.781 209.119 191.194 206.61 193.711C204.1 196.229 200.697 197.645 197.148 197.649V197.649Z" fill="white"/>
<path d="M197.148 197.649H49.8945C46.3454 197.645 42.9427 196.229 40.4331 193.711C37.9235 191.194 36.5118 187.781 36.5078 184.22V99.5598C36.5118 95.9994 37.9235 92.5861 40.4331 90.0686C42.9428 87.551 46.3454 86.1349 49.8945 86.1309H197.148C200.697 86.1349 204.1 87.551 206.61 90.0686C209.119 92.5861 210.531 95.9994 210.535 99.5598V184.22C210.531 187.781 209.119 191.194 206.61 193.711C204.1 196.229 200.697 197.645 197.148 197.649V197.649ZM49.8945 87.2986C46.654 87.3022 43.5472 88.5952 41.2558 90.8938C38.9644 93.1925 37.6755 96.309 37.6719 99.5598V184.22C37.6756 187.471 38.9645 190.588 41.2559 192.886C43.5473 195.185 46.654 196.478 49.8945 196.481H197.148C200.389 196.478 203.495 195.185 205.787 192.886C208.078 190.588 209.367 187.471 209.371 184.22V99.5598C209.367 96.309 208.078 93.1925 205.787 90.8938C203.496 88.5952 200.389 87.3022 197.148 87.2986H49.8945Z" fill="#E6E6E6"/>
<path d="M209.371 147.636H37.0889C36.9345 147.636 36.7865 147.575 36.6773 147.465C36.5681 147.356 36.5068 147.207 36.5068 147.053C36.5068 146.898 36.5681 146.749 36.6773 146.64C36.7865 146.53 36.9345 146.469 37.0889 146.469H209.371C209.525 146.469 209.673 146.53 209.782 146.64C209.892 146.749 209.953 146.898 209.953 147.053C209.953 147.207 209.892 147.356 209.782 147.465C209.673 147.575 209.525 147.636 209.371 147.636Z" fill="#E6E6E6"/>
<path d="M196.565 60.4412C199.458 60.4412 201.804 58.0886 201.804 55.1864C201.804 52.2843 199.458 49.9316 196.565 49.9316C193.672 49.9316 191.327 52.2843 191.327 55.1864C191.327 58.0886 193.672 60.4412 196.565 60.4412Z" fill="#F2F2F2"/>
<path d="M5.23827 144.109C8.13129 144.109 10.4765 141.757 10.4765 138.854C10.4765 135.952 8.13129 133.6 5.23827 133.6C2.34526 133.6 0 135.952 0 138.854C0 141.757 2.34526 144.109 5.23827 144.109Z" fill="#F2F2F2"/>
<path d="M112.914 234.025C115.807 234.025 118.152 231.673 118.152 228.77C118.152 225.868 115.807 223.516 112.914 223.516C110.021 223.516 107.676 225.868 107.676 228.77C107.676 231.673 110.021 234.025 112.914 234.025Z" fill="#F2F2F2"/>
<path d="M81.2778 173.302H63.0928C62.9384 173.302 62.7904 173.241 62.6812 173.131C62.5721 173.022 62.5107 172.873 62.5107 172.719C62.5107 172.564 62.5721 172.415 62.6812 172.306C62.7904 172.196 62.9384 172.135 63.0928 172.135H81.2778C81.4322 172.135 81.5802 172.196 81.6894 172.306C81.7985 172.415 81.8598 172.564 81.8598 172.719C81.8598 172.873 81.7985 173.022 81.6894 173.131C81.5802 173.241 81.4322 173.302 81.2778 173.302Z" fill="#CCCCCC"/>
<path d="M81.2778 182.644H63.0928C62.9384 182.644 62.7904 182.583 62.6812 182.473C62.5721 182.364 62.5107 182.215 62.5107 182.06C62.5107 181.906 62.5721 181.757 62.6812 181.648C62.7904 181.538 62.9384 181.477 63.0928 181.477H81.2778C81.4322 181.477 81.5802 181.538 81.6894 181.648C81.7985 181.757 81.8598 181.906 81.8598 182.06C81.8598 182.215 81.7985 182.364 81.6894 182.473C81.5802 182.583 81.4322 182.644 81.2778 182.644Z" fill="#CCCCCC"/>
<path d="M180.805 173.302H162.62C162.466 173.302 162.318 173.241 162.209 173.131C162.099 173.022 162.038 172.873 162.038 172.719C162.038 172.564 162.099 172.415 162.209 172.306C162.318 172.196 162.466 172.135 162.62 172.135H180.805C180.96 172.135 181.108 172.196 181.217 172.306C181.326 172.415 181.387 172.564 181.387 172.719C181.387 172.873 181.326 173.022 181.217 173.131C181.108 173.241 180.96 173.302 180.805 173.302V173.302Z" fill="#CCCCCC"/>
<path d="M180.805 182.644H162.62C162.466 182.644 162.318 182.583 162.209 182.473C162.099 182.364 162.038 182.215 162.038 182.06C162.038 181.906 162.099 181.757 162.209 181.648C162.318 181.538 162.466 181.477 162.62 181.477H180.805C180.96 181.477 181.108 181.538 181.217 181.648C181.326 181.757 181.387 181.906 181.387 182.06C181.387 182.215 181.326 182.364 181.217 182.473C181.108 182.583 180.96 182.644 180.805 182.644V182.644Z" fill="#CCCCCC"/>
<path d="M147.629 173.302H129.444C129.29 173.302 129.142 173.241 129.033 173.131C128.924 173.022 128.862 172.873 128.862 172.719C128.862 172.564 128.924 172.415 129.033 172.306C129.142 172.196 129.29 172.135 129.444 172.135H147.629C147.784 172.135 147.932 172.196 148.041 172.306C148.15 172.415 148.211 172.564 148.211 172.719C148.211 172.873 148.15 173.022 148.041 173.131C147.932 173.241 147.784 173.302 147.629 173.302V173.302Z" fill="#CCCCCC"/>
<path d="M147.629 182.644H129.444C129.29 182.644 129.142 182.583 129.033 182.473C128.924 182.364 128.862 182.215 128.862 182.06C128.862 181.906 128.924 181.757 129.033 181.648C129.142 181.538 129.29 181.477 129.444 181.477H147.629C147.784 181.477 147.932 181.538 148.041 181.648C148.15 181.757 148.211 181.906 148.211 182.06C148.211 182.215 148.15 182.364 148.041 182.473C147.932 182.583 147.784 182.644 147.629 182.644V182.644Z" fill="#CCCCCC"/>
<path d="M114.454 173.302H96.2686C96.1142 173.302 95.9661 173.241 95.857 173.131C95.7478 173.022 95.6865 172.873 95.6865 172.719C95.6865 172.564 95.7478 172.415 95.857 172.306C95.9661 172.196 96.1142 172.135 96.2686 172.135H114.454C114.608 172.135 114.756 172.196 114.865 172.306C114.974 172.415 115.036 172.564 115.036 172.719C115.036 172.873 114.974 173.022 114.865 173.131C114.756 173.241 114.608 173.302 114.454 173.302Z" fill="#CCCCCC"/>
<path d="M114.454 182.644H96.2686C96.1142 182.644 95.9661 182.583 95.857 182.473C95.7478 182.364 95.6865 182.215 95.6865 182.06C95.6865 181.906 95.7478 181.757 95.857 181.648C95.9661 181.538 96.1142 181.477 96.2686 181.477H114.454C114.608 181.477 114.756 181.538 114.865 181.648C114.974 181.757 115.036 181.906 115.036 182.06C115.036 182.215 114.974 182.364 114.865 182.473C114.756 182.583 114.608 182.644 114.454 182.644Z" fill="#CCCCCC"/>
<path d="M239.054 164.369L237.89 180.133L215.929 219.598C214.874 221.355 214.411 223.406 214.609 225.448C214.807 227.489 215.655 229.413 217.027 230.933L251.467 262.238C251.467 262.238 258.238 262.461 257.668 265.671C257.097 268.881 260.716 268.729 260.716 268.729L264.788 271.68L266.992 254.868C259.587 238.283 248.607 233.223 239.054 225.573C239.054 225.573 243.082 224.371 242.232 222.98C241.382 221.588 244.052 221.495 244.052 221.495C244.052 221.495 245.823 221.256 245.931 219.962C246.039 218.668 247.756 218.473 247.756 218.473L257.392 208.743L282.707 207.575C282.707 207.575 293.419 180.653 275.722 163.201L239.054 164.369Z" fill="#2F2E41"/>
<path d="M257.448 201.432L265.828 301.577L278.17 300.828L282.707 207.575L257.448 201.432Z" fill="#2F2E41"/>
<path d="M258.05 81.984L272.178 81.2539L278.74 91.6554C278.74 91.6554 291.086 93.7261 290.23 108.321C289.375 122.916 275.208 135.723 275.208 135.723L275.814 143.323L274.762 146.338L274.897 148.03L276.332 149.823L276.479 151.677L275.208 154.61L275.722 158.531C275.722 158.531 262.939 161.077 256.235 156.009C249.531 150.941 239.636 153.86 239.636 153.86L239.264 149.03L241.202 146.422L240.12 143.02L241.748 139.748L242.597 129.355C242.597 129.355 233.309 115.358 243.971 104.816L248.25 97.5187L253.038 91.6587L258.05 81.984Z" fill="#6C63FF"/>
<path d="M292.693 145.279L291.653 108.662C291.605 107.111 290.95 105.641 289.831 104.57C288.711 103.499 287.217 102.912 285.67 102.936V102.936C284.87 102.949 284.081 103.125 283.35 103.453C282.62 103.782 281.964 104.256 281.423 104.847C280.881 105.438 280.465 106.134 280.2 106.892C279.935 107.649 279.827 108.453 279.882 109.254L282.124 147.257L282.517 170.406C281.551 170.835 280.74 171.552 280.194 172.459C279.649 173.366 279.395 174.42 279.467 175.477C279.539 176.534 279.934 177.543 280.598 178.367C281.262 179.191 282.162 179.79 283.177 180.083C284.192 180.376 285.272 180.348 286.271 180.003C287.27 179.659 288.139 179.014 288.76 178.157C289.38 177.3 289.723 176.272 289.741 175.213C289.759 174.153 289.452 173.114 288.861 172.236L292.693 145.279Z" fill="#A0616A"/>
<path d="M295.219 116.028C295.486 115.756 295.657 115.404 295.705 115.025C295.753 114.646 295.676 114.262 295.485 113.932C295.258 113.519 295.164 113.046 295.217 112.578C295.229 112.488 295.246 112.398 295.269 112.31C295.421 111.783 295.444 111.226 295.335 110.688C295.227 110.149 294.991 109.645 294.647 109.218C293.494 107.829 292.937 105.727 292.696 103.852C292.433 101.801 292.276 99.7048 291.531 97.7766C290.455 94.9951 287.886 92.5162 284.379 93.7026C282.895 94.2304 281.638 95.2551 280.819 96.6042C279.07 99.4019 279.051 102.785 279.064 106.021L278.435 104.742C278.511 108.277 277.874 111.79 276.562 115.072C277.344 114.919 277.897 115.973 277.644 116.73C277.392 117.488 276.693 117.986 276.095 118.513C275.34 119.177 274.628 120.164 275.336 121.179C275.512 121.417 275.735 121.615 275.992 121.763C276.248 121.91 276.532 122.003 276.826 122.035C282.364 122.757 287.99 122.322 293.353 120.759C294.544 120.41 295.82 119.927 296.44 118.849C297.06 117.772 296.459 116.011 295.219 116.028Z" fill="#6C63FF"/>
<path d="M265.827 79.1254C273.22 79.1254 279.214 73.1131 279.214 65.6965C279.214 58.2799 273.22 52.2676 265.827 52.2676C258.434 52.2676 252.44 58.2799 252.44 65.6965C252.44 73.1131 258.434 79.1254 265.827 79.1254Z" fill="#A0616A"/>
<path d="M127.065 64.3173C135.686 64.3173 142.675 57.3067 142.675 48.6586C142.675 40.0106 135.686 33 127.065 33C118.445 33 111.456 40.0106 111.456 48.6586C111.456 57.3067 118.445 64.3173 127.065 64.3173Z" fill="#6C63FF"/>
<path d="M126.517 54.9391C126.307 54.9391 126.101 54.8902 125.913 54.7962C125.726 54.7022 125.563 54.5657 125.437 54.3975L122.128 49.9706C122.021 49.8285 121.943 49.6665 121.899 49.4942C121.855 49.3218 121.845 49.1424 121.87 48.9662C121.895 48.79 121.954 48.6204 122.044 48.4673C122.135 48.3141 122.254 48.1803 122.396 48.0735C122.538 47.9667 122.7 47.889 122.872 47.845C123.044 47.8009 123.222 47.7912 123.398 47.8166C123.574 47.8419 123.743 47.9017 123.895 47.9926C124.048 48.0835 124.181 48.2037 124.287 48.3463L126.452 51.2422L132.014 42.8741C132.212 42.5761 132.521 42.3695 132.872 42.2995C133.222 42.2295 133.586 42.3019 133.884 42.5008C134.181 42.6997 134.388 43.0089 134.458 43.3604C134.528 43.712 134.457 44.0772 134.259 44.376L127.64 54.3363C127.52 54.5164 127.359 54.6651 127.17 54.7699C126.981 54.8747 126.77 54.9326 126.555 54.9387L126.517 54.9391Z" fill="white"/>
<path d="M156.957 93.3858H90.0857C88.4566 93.3858 86.8943 92.7367 85.7424 91.5811C84.5905 90.4256 83.9434 88.8583 83.9434 87.2242C83.9434 85.59 84.5905 84.0228 85.7424 82.8672C86.8943 81.7117 88.4566 81.0625 90.0857 81.0625H156.957C157.764 81.0617 158.564 81.2205 159.31 81.5298C160.056 81.8391 160.733 82.2928 161.304 82.8651C161.875 83.4373 162.328 84.1169 162.637 84.8648C162.946 85.6128 163.105 86.4145 163.105 87.2242C163.105 88.0338 162.946 88.8356 162.637 89.5835C162.328 90.3315 161.875 91.011 161.304 91.5832C160.733 92.1555 160.056 92.6092 159.31 92.9185C158.564 93.2278 157.764 93.3866 156.957 93.3858V93.3858Z" fill="#6C63FF"/>
<path d="M358.786 329.771L97.2128 330C96.8905 329.999 96.3666 330 96 330C96 329.5 96.0002 329.348 96.0002 329.114C96.0002 328.88 95.9998 328.5 96.0002 328.229C96.2829 328.229 96.8905 328.23 97.2128 328.229L358.786 328C359.109 328.001 359.633 328 360 328.001C360 328.499 360 328.652 360 328.886C360 329.12 360 329.271 360 329.771C359.633 329.771 359.109 329.77 358.786 329.771Z" fill="#CACACA"/>
<path d="M282.706 62.194V65.1134H271.124C271.241 64.5498 271.241 63.9679 271.124 63.4043C271.007 62.8406 270.775 62.3073 270.443 61.8379C270.433 62.9804 270.15 64.1039 269.616 65.1134C262.919 67.1001 257.297 67.062 252.691 65.1134C252.007 65.1134 251.351 64.8408 250.868 64.3557C250.384 63.8705 250.112 63.2125 250.112 62.5264C250.112 53.5758 257.145 46.0338 266.066 45.8494C268.235 45.8033 270.391 46.192 272.407 46.9928C274.424 47.7935 276.261 48.9901 277.811 50.5124C279.361 52.0348 280.592 53.8522 281.433 55.8581C282.273 57.864 282.706 60.0181 282.706 62.1941V62.194Z" fill="#2F2E41"/>
<path d="M129.051 112.405H105.77C105.152 112.405 104.56 112.159 104.123 111.721C103.687 111.283 103.441 110.689 103.441 110.07C103.441 109.45 103.687 108.856 104.123 108.418C104.56 107.98 105.152 107.734 105.77 107.734H129.051C129.668 107.734 130.26 107.98 130.697 108.418C131.134 108.856 131.379 109.45 131.379 110.07C131.379 110.689 131.134 111.283 130.697 111.721C130.26 112.159 129.668 112.405 129.051 112.405Z" fill="#CCCCCC"/>
<path d="M179.105 125.251H105.187C104.57 125.251 103.978 125.005 103.541 124.567C103.105 124.129 102.859 123.535 102.859 122.916C102.859 122.296 103.105 121.702 103.541 121.264C103.978 120.826 104.57 120.58 105.187 120.58H179.105C179.723 120.58 180.315 120.826 180.752 121.264C181.188 121.702 181.433 122.296 181.433 122.916C181.433 123.535 181.188 124.129 180.752 124.567C180.315 125.005 179.723 125.251 179.105 125.251Z" fill="#CCCCCC"/>
<path d="M113.459 164H64.5407C64.1321 164 63.7402 163.789 63.4513 163.414C63.1623 163.039 63 162.53 63 162C63 161.47 63.1623 160.961 63.4513 160.586C63.7402 160.211 64.1321 160 64.5407 160H113.459C113.868 160 114.26 160.211 114.549 160.586C114.838 160.961 115 161.47 115 162C115 162.53 114.838 163.039 114.549 163.414C114.26 163.789 113.868 164 113.459 164Z" fill="black" fill-opacity="0.4"/>
<path d="M179.459 164H130.541C130.132 164 129.74 163.789 129.451 163.414C129.162 163.039 129 162.53 129 162C129 161.47 129.162 160.961 129.451 160.586C129.74 160.211 130.132 160 130.541 160H179.459C179.868 160 180.26 160.211 180.549 160.586C180.838 160.961 181 161.47 181 162C181 162.53 180.838 163.039 180.549 163.414C180.26 163.789 179.868 164 179.459 164Z" fill="black" fill-opacity="0.4"/>
<path d="M78.1202 132.151C86.741 132.151 93.7296 125.141 93.7296 116.493C93.7296 107.845 86.741 100.834 78.1202 100.834C69.4993 100.834 62.5107 107.845 62.5107 116.493C62.5107 125.141 69.4993 132.151 78.1202 132.151Z" fill="#E6E6E6"/>
<path d="M77.5 115.5C78.7598 115.5 79.968 115 80.8588 114.109C81.7496 113.218 82.25 112.01 82.25 110.75C82.25 109.49 81.7496 108.282 80.8588 107.391C79.968 106.5 78.7598 106 77.5 106C76.2402 106 75.032 106.5 74.1412 107.391C73.2504 108.282 72.75 109.49 72.75 110.75C72.75 112.01 73.2504 113.218 74.1412 114.109C75.032 115 76.2402 115.5 77.5 115.5V115.5ZM80.6667 110.75C80.6667 111.59 80.333 112.395 79.7392 112.989C79.1453 113.583 78.3399 113.917 77.5 113.917C76.6601 113.917 75.8547 113.583 75.2608 112.989C74.667 112.395 74.3333 111.59 74.3333 110.75C74.3333 109.91 74.667 109.105 75.2608 108.511C75.8547 107.917 76.6601 107.583 77.5 107.583C78.3399 107.583 79.1453 107.917 79.7392 108.511C80.333 109.105 80.6667 109.91 80.6667 110.75V110.75ZM87 123.417C87 125 85.4167 125 85.4167 125H69.5833C69.5833 125 68 125 68 123.417C68 121.833 69.5833 117.083 77.5 117.083C85.4167 117.083 87 121.833 87 123.417ZM85.4167 123.41C85.4151 123.021 85.1728 121.849 84.0993 120.776C83.067 119.743 81.1243 118.667 77.5 118.667C73.8742 118.667 71.933 119.743 70.9007 120.776C69.8272 121.849 69.5865 123.021 69.5833 123.41H85.4167Z" fill="#2F2E41"/>
</svg>
