<svg width="340" height="326" viewBox="0 0 340 326" fill="none" xmlns="http://www.w3.org/2000/svg">
<path d="M56.8685 27.8673C68.9624 13.699 85.7015 4.28938 104.11 1.3113C122.518 -1.66678 141.403 1.97969 157.407 11.6024L157.545 11.6857L157.572 11.8374C158.901 19.5924 161.424 27.0977 165.051 34.0857C163.895 28.4673 163.69 22.697 164.444 17.0154L164.514 16.4262L164.984 16.7896C166.019 17.5899 167.028 18.4095 167.982 19.2237C178.217 27.9011 186.06 39.0516 190.764 51.6096C195.467 64.1676 196.873 77.7135 194.847 90.9527C223.548 89.2556 251.812 98.7788 273.67 117.51C320.442 157.43 326.093 227.871 286.267 274.533C271.107 292.346 250.697 304.906 227.946 310.424C205.195 315.941 181.264 314.135 159.564 305.263L159.272 305.143L159.371 304.844C161.95 297.086 165.352 290.825 169.736 285.8C163.162 290.179 157.313 295.559 152.402 301.744L152.234 301.954L151.99 301.834C143.814 297.755 136.166 292.692 129.216 286.758C128.965 286.544 128.715 286.329 128.467 286.113C123.076 281.484 116.772 278.04 109.967 276.006C103.162 273.972 96.0079 273.392 88.9712 274.306C77.6792 275.723 66.208 274.677 55.3469 271.24C44.4858 267.803 34.4926 262.057 26.0548 254.396C17.617 246.736 10.935 237.344 6.46846 226.865C2.0019 216.387 -0.143169 205.071 0.180847 193.697L0.186648 193.49L0.37397 193.402C11.9546 187.988 21.7099 185.659 30.8109 186.171C21.4401 183.08 11.5685 181.808 1.72879 182.425L1.30022 182.452L1.37565 182.029C3.78796 168.623 9.63607 156.079 18.3498 145.621C27.0635 135.163 38.3455 127.148 51.0954 122.356C41.7287 108.067 37.2296 91.1432 38.2701 74.1133C39.3106 57.0834 45.8348 40.8606 56.8685 27.8673V27.8673Z" fill="#6C63FF" fill-opacity="0.2"/>
<path d="M299.789 319.065L294.148 319.064L291.464 297.305L299.79 297.305L299.789 319.065Z" fill="#A0616A"/>
<path d="M301.227 324.535L283.036 324.535V324.305C283.036 322.427 283.782 320.626 285.11 319.298C286.438 317.971 288.239 317.225 290.116 317.225H290.117L301.227 317.225L301.227 324.535Z" fill="#2F2E41"/>
<path d="M37.7982 317.29C37.5502 317.299 37.3055 317.231 37.0971 317.094C36.8887 316.957 36.7268 316.759 36.6332 316.526C36.5397 316.292 36.5191 316.035 36.5741 315.79C36.6292 315.544 36.7573 315.321 36.9411 315.152C36.9728 315.029 36.9955 314.941 37.0272 314.818C36.7957 314.204 36.3889 313.674 35.8589 313.296C35.3288 312.918 34.6997 312.71 34.0522 312.697C33.4047 312.685 32.7683 312.869 32.2245 313.226C31.6807 313.583 31.2544 314.097 31.0002 314.702C29.534 318.097 27.6447 321.608 28.5326 325.371C22.5581 312.19 24.7848 295.888 33.9014 284.753C36.4054 283.384 38.4475 280.928 39 278.059C37.7633 278.471 36.2358 277.438 37.1751 276.128C37.5816 275.628 37.9919 275.132 38.3984 274.632C33.7631 269.523 28.109 277.428 33.1993 284.312C31.493 286.443 30.0107 288.748 28.7766 291.191C29.0807 288.587 28.7717 285.947 27.8748 283.488C26.964 281.195 25.2347 279.255 23.7144 277.266C21.8661 274.843 18.0051 275.915 17.7247 278.965C19.446 279.558 19.6465 282.093 17.6682 282.42C18.1323 288.104 21.7369 293.358 26.7457 295.897C24.8378 301.174 24.0593 306.802 24.4621 312.408C23.6353 305.853 16.7295 304.198 11.9166 301.549C11.6107 301.345 11.253 301.237 10.8872 301.236C10.5214 301.236 10.1634 301.343 9.85684 301.546C9.55024 301.748 9.30831 302.037 9.16056 302.377C9.01282 302.716 8.96566 303.092 9.02481 303.459C9.68986 303.741 10.3257 304.09 10.9229 304.499C11.2027 304.694 11.4163 304.972 11.5343 305.295C11.6524 305.618 11.6691 305.971 11.5823 306.304C11.4955 306.637 11.3093 306.935 11.0493 307.156C10.7894 307.378 10.4683 307.512 10.1301 307.541C12.5109 313.692 18.7763 317.868 25.251 317.907C25.8475 320.659 26.7239 323.34 27.8662 325.907L37.4757 326C37.5112 325.892 37.5433 325.78 37.5753 325.672C36.6853 325.72 35.7928 325.658 34.9178 325.486C37.2976 322.679 39.1311 321.253 37.7985 317.29L37.7982 317.29Z" fill="#F2F2F2"/>
<path d="M324.686 305.197L321.025 309.489L302.729 297.406L308.134 291.072L324.686 305.197Z" fill="#A0616A"/>
<path d="M329.78 307.654L317.973 321.491L317.798 321.341C316.369 320.123 315.484 318.386 315.336 316.514C315.187 314.642 315.789 312.788 317.008 311.36L317.008 311.359L324.22 302.908L329.78 307.654Z" fill="#2F2E41"/>
<path d="M259.731 212.054L257.975 228.249L328.963 227.237L298.005 176.793L272.728 175.885L259.731 212.054Z" fill="#2F2E41"/>
<path opacity="0.28" d="M259.731 212.054L257.975 228.249L328.963 227.237L298.005 176.793L272.728 175.885L259.731 212.054Z" fill="black"/>
<path d="M273.691 214.835L271.185 229.654V242.9L291.391 249.495C291.391 249.495 289.025 300.944 292.179 304.221L292.101 312.131L300.916 312.532L300.988 306.965L304.725 265.352L306.927 234.8L303.358 211.637L273.691 214.835Z" fill="#2F2E41"/>
<path d="M289.345 227.59L271.184 242.898C271.184 242.898 270.121 270.518 272.82 273.757C275.138 276.539 305.29 300.535 305.29 300.535C305.29 300.535 310.649 305.45 313.652 305.529C316.655 305.607 320.148 299.308 320.148 299.308L313.193 294.024C313.193 294.024 295.175 277.205 289.825 270.518C287.666 267.819 287.666 267.549 287.666 267.549L288.403 256.324L295.826 235.492L289.345 227.59Z" fill="#2F2E41"/>
<path d="M270.064 154.265L262.234 153.541L255.132 154.725L240.093 154.729L238.812 165.63L252.536 168.701L255.88 167.062L269.822 172.373L270.064 154.265Z" fill="#2F2E41"/>
<path d="M279.416 154.23C279.416 154.23 296.033 152.673 299.812 155.642C303.591 158.611 311.688 217.454 311.688 217.454L279.416 219.275L273.63 215.294L275.272 185.918L279.416 154.23Z" fill="#CCCCCC"/>
<path d="M284.488 153.867L266.158 154.269L249.067 231.493L262.563 234.462L284.488 153.867Z" fill="#2F2E41"/>
<path d="M297.52 153.211L311.959 157.73L311.139 189.459L328.964 227.393L308.009 229.6L291.445 188.639L297.52 153.211Z" fill="#2F2E41"/>
<path d="M321.33 231.246C321.836 230.8 322.238 230.249 322.509 229.631C322.779 229.013 322.91 228.344 322.893 227.669C322.877 226.995 322.712 226.333 322.412 225.729C322.112 225.125 321.683 224.594 321.155 224.174L324.06 214.041L318.332 210.773L314.431 225.142C313.784 226.075 313.502 227.213 313.638 228.34C313.774 229.467 314.319 230.506 315.169 231.258C316.02 232.011 317.116 232.425 318.252 232.423C319.387 232.42 320.482 232.002 321.33 231.246V231.246Z" fill="#A0616A"/>
<path d="M303.591 158.61L312.135 157.869C312.135 157.869 319.805 165.891 321.55 172.103C323.295 178.314 325.184 197.748 325.184 197.748L324.396 226.179L314.409 219.397L313.739 194.943L303.591 158.61Z" fill="#2F2E41"/>
<path d="M301.53 144.322C304.738 138.452 302.581 131.094 296.712 127.885C290.843 124.677 283.484 126.834 280.276 132.703C277.068 138.572 279.225 145.931 285.094 149.139C290.963 152.348 298.322 150.191 301.53 144.322Z" fill="#A0616A"/>
<path d="M289.553 133.459C287.964 133.091 286.315 133.498 284.705 133.762C283.096 134.026 281.322 134.113 279.961 133.215C278.955 132.552 278.337 131.455 277.757 130.399C277.515 130.022 277.353 129.599 277.283 129.157C277.214 128.376 277.711 127.664 278.238 127.085C280.687 124.393 284.266 122.919 287.875 122.451C290.851 122.008 293.892 122.379 296.674 123.526C299.414 124.728 301.769 126.928 302.846 129.719C303.342 131.147 303.652 132.634 303.768 134.141C303.931 135.251 303.951 136.376 303.83 137.491C303.685 138.317 303.468 139.129 303.181 139.917L301.397 145.305C301.268 145.814 301.029 146.288 300.695 146.694C300.524 146.892 300.292 147.03 300.036 147.086C299.78 147.142 299.512 147.114 299.274 147.005C299.416 146.42 299.438 145.812 299.338 145.218C299.282 144.922 299.139 144.649 298.927 144.435C298.714 144.222 298.443 144.076 298.148 144.018C297.49 143.948 296.928 144.458 296.304 144.677C296.019 144.762 295.719 144.79 295.423 144.758C295.127 144.727 294.84 144.638 294.578 144.496C294.317 144.354 294.085 144.162 293.898 143.931C293.71 143.699 293.57 143.433 293.486 143.148C293.469 143.09 293.454 143.032 293.441 142.973C293.343 142.357 293.508 141.698 293.275 141.119C293.001 140.442 292.276 140.087 291.731 139.6C291.234 139.141 290.878 138.55 290.705 137.895C290.533 137.241 290.55 136.551 290.756 135.907C290.902 135.458 291.314 135.255 291.232 134.739C291.123 134.064 290.127 133.591 289.553 133.459Z" fill="#2F2E41"/>
<path d="M154.904 184.652H2V89H154.904V184.652Z" fill="white"/>
<path d="M154.904 184.652H2V89H154.904V184.652ZM2.69819 183.954H154.206V89.6982H2.69819V183.954Z" fill="#3F3D56"/>
<path d="M136.228 317.135H48.9541V221.482H136.228V317.135Z" fill="white"/>
<path d="M136.228 317.135H48.9541V221.482H136.228V317.135ZM49.6523 316.436H135.53V222.181H49.6523V316.436Z" fill="#3F3D56"/>
<path d="M124.358 308.1H106.205V308.836H124.358V308.1Z" fill="#3F3D56"/>
<path d="M124.358 310.309H106.205V311.045H124.358V310.309Z" fill="#3F3D56"/>
<path d="M124.358 312.516H106.205V313.252H124.358V312.516Z" fill="#3F3D56"/>
<path d="M92.5889 238.588V246.268C97.1458 246.268 101.6 247.619 105.389 250.151C109.178 252.683 112.131 256.281 113.875 260.491C115.619 264.701 116.075 269.334 115.186 273.803C114.297 278.273 112.103 282.378 108.881 285.6L114.311 291.031C118.608 286.735 121.534 281.261 122.719 275.302C123.904 269.342 123.296 263.166 120.971 257.552C118.646 251.939 114.708 247.141 109.656 243.765C104.604 240.39 98.6648 238.588 92.5889 238.588Z" fill="#E6E6E6"/>
<path d="M114.314 291.03L108.883 285.6C104.944 289.54 99.7103 291.918 94.1517 292.295C88.5931 292.672 83.0863 291.022 78.6514 287.649L74.0029 293.766C79.9171 298.261 87.2598 300.461 94.6713 299.958C102.083 299.455 109.061 296.283 114.314 291.03Z" fill="#575A89"/>
<path d="M69.5493 269.308C69.5493 266.283 70.1452 263.287 71.3031 260.491C72.461 257.696 74.1581 255.156 76.2976 253.016C78.4371 250.877 80.977 249.18 83.7724 248.022C86.5678 246.864 89.5639 246.268 92.5896 246.268V238.588C86.1586 238.588 79.8898 240.606 74.6667 244.358C69.4436 248.11 65.5297 253.406 63.4767 259.501C61.4236 265.595 61.3349 272.18 63.2231 278.328C65.1114 284.475 68.8812 289.875 74.0014 293.766L78.6499 287.65C75.8195 285.503 73.5249 282.73 71.946 279.548C70.367 276.365 69.5467 272.861 69.5493 269.308V269.308Z" fill="#6C63FF"/>
<path d="M265.394 257.789H178.12V162.137H265.394V257.789Z" fill="white"/>
<path d="M265.394 257.789H178.12V162.137H265.394V257.789ZM178.818 257.091H264.696V162.835H178.818V257.091Z" fill="#3F3D56"/>
<path d="M206.396 220.607H190.687V245.742H206.396V220.607Z" fill="#575A89"/>
<path d="M229.086 203.502H213.377V245.743H229.086V203.502Z" fill="#E6E6E6"/>
<path d="M251.78 183.605H236.07V245.744H251.78V183.605Z" fill="#6C63FF"/>
<path d="M257.014 246.444H186.497V173.482H187.195V245.745H257.014V246.444Z" fill="#3F3D56"/>
<path d="M240.013 164.683C242.669 164.683 244.821 162.53 244.821 159.875C244.821 157.219 242.669 155.066 240.013 155.066C237.358 155.066 235.205 157.219 235.205 159.875C235.205 162.53 237.358 164.683 240.013 164.683Z" fill="#A0616A"/>
<path d="M337.344 326H27.6561C27.2169 326 26.7957 325.947 26.4851 325.854C26.1745 325.76 26 325.633 26 325.5C26 325.367 26.1745 325.24 26.4851 325.146C26.7957 325.053 27.2169 325 27.6561 325H337.344C337.783 325 338.204 325.053 338.515 325.146C338.825 325.24 339 325.367 339 325.5C339 325.633 338.825 325.76 338.515 325.854C338.204 325.947 337.783 326 337.344 326Z" fill="#CCCCCC"/>
<path d="M133.67 164.648H23.2353C23.1436 164.648 23.0557 164.611 22.9909 164.547C22.9261 164.482 22.8897 164.394 22.8896 164.302V111.371C22.8896 111.279 22.9261 111.191 22.9909 111.127C23.0557 111.062 23.1436 111.025 23.2353 111.025C23.3269 111.025 23.4148 111.062 23.4796 111.127C23.5445 111.191 23.5809 111.279 23.5809 111.371V163.957H133.67C133.715 163.956 133.76 163.965 133.802 163.983C133.844 164 133.883 164.025 133.915 164.057C133.947 164.09 133.973 164.128 133.99 164.17C134.008 164.212 134.017 164.257 134.017 164.302C134.017 164.348 134.008 164.393 133.99 164.435C133.973 164.477 133.947 164.515 133.915 164.547C133.883 164.579 133.844 164.605 133.802 164.622C133.76 164.639 133.715 164.648 133.67 164.648V164.648Z" fill="#3F3D56"/>
<path d="M46.8292 160.843H36.7847C36.5127 160.843 36.252 160.735 36.0596 160.543C35.8673 160.35 35.7591 160.089 35.7588 159.818V145.971C35.7591 145.699 35.8673 145.438 36.0596 145.246C36.252 145.054 36.5127 144.946 36.7847 144.945H46.8292C47.1012 144.946 47.3619 145.054 47.5543 145.246C47.7466 145.438 47.8548 145.699 47.8551 145.971V159.817C47.8548 160.089 47.7466 160.35 47.5543 160.543C47.3619 160.735 47.1012 160.843 46.8292 160.843V160.843Z" fill="#6C63FF"/>
<path d="M65.1466 160.846H55.1021C54.8301 160.845 54.5694 160.737 54.377 160.545C54.1847 160.353 54.0765 160.092 54.0762 159.82V132.84C54.0765 132.568 54.1847 132.308 54.377 132.115C54.5694 131.923 54.8301 131.815 55.1021 131.814H65.1466C65.4185 131.815 65.6793 131.923 65.8716 132.115C66.064 132.308 66.1722 132.568 66.1725 132.84V159.82C66.1722 160.092 66.064 160.353 65.8716 160.545C65.6793 160.737 65.4185 160.845 65.1466 160.846V160.846Z" fill="#6C63FF"/>
<path d="M83.4639 160.843H73.4195C73.1475 160.843 72.8868 160.735 72.6944 160.543C72.5021 160.35 72.3939 160.089 72.3936 159.818V145.971C72.3939 145.699 72.5021 145.438 72.6944 145.246C72.8868 145.054 73.1475 144.946 73.4195 144.945H83.4639C83.7359 144.946 83.9967 145.054 84.189 145.246C84.3814 145.438 84.4896 145.699 84.4899 145.971V159.817C84.4896 160.089 84.3814 160.35 84.189 160.543C83.9967 160.735 83.7359 160.843 83.4639 160.843V160.843Z" fill="#6C63FF"/>
<path d="M101.781 160.846H91.7369C91.4711 160.852 91.2139 160.752 91.0216 160.569C90.8293 160.385 90.7176 160.133 90.7109 159.867V127.61C90.7176 127.345 90.8293 127.092 91.0216 126.909C91.2139 126.725 91.4711 126.625 91.7369 126.631H101.781C102.047 126.625 102.304 126.725 102.497 126.909C102.689 127.092 102.801 127.345 102.807 127.61V159.867C102.801 160.133 102.689 160.385 102.497 160.569C102.304 160.752 102.047 160.852 101.781 160.846V160.846Z" fill="#6C63FF"/>
<path d="M120.099 160.846H110.054C109.782 160.845 109.522 160.737 109.329 160.545C109.137 160.353 109.029 160.092 109.028 159.82V118.325C109.029 118.053 109.137 117.792 109.329 117.6C109.522 117.407 109.782 117.299 110.054 117.299H120.099C120.371 117.299 120.631 117.407 120.824 117.6C121.016 117.792 121.124 118.053 121.125 118.325V159.82C121.124 160.092 121.016 160.353 120.824 160.545C120.631 160.737 120.371 160.845 120.099 160.846V160.846Z" fill="#6C63FF"/>
<path d="M41.809 140.802C42.9543 140.802 43.8827 139.873 43.8827 138.728C43.8827 137.583 42.9543 136.654 41.809 136.654C40.6638 136.654 39.7354 137.583 39.7354 138.728C39.7354 139.873 40.6638 140.802 41.809 140.802Z" fill="#3F3D56"/>
<path d="M60.1244 127.321C61.2697 127.321 62.1981 126.393 62.1981 125.247C62.1981 124.102 61.2697 123.174 60.1244 123.174C58.9792 123.174 58.0508 124.102 58.0508 125.247C58.0508 126.393 58.9792 127.321 60.1244 127.321Z" fill="#3F3D56"/>
<path d="M78.4418 140.802C79.5871 140.802 80.5155 139.873 80.5155 138.728C80.5155 137.583 79.5871 136.654 78.4418 136.654C77.2966 136.654 76.3682 137.583 76.3682 138.728C76.3682 139.873 77.2966 140.802 78.4418 140.802Z" fill="#3F3D56"/>
<path d="M96.7592 120.755C97.9045 120.755 98.8329 119.826 98.8329 118.681C98.8329 117.536 97.9045 116.607 96.7592 116.607C95.614 116.607 94.6855 117.536 94.6855 118.681C94.6855 119.826 95.614 120.755 96.7592 120.755Z" fill="#3F3D56"/>
<path d="M115.077 113.153C116.222 113.153 117.15 112.225 117.15 111.08C117.15 109.934 116.222 109.006 115.077 109.006C113.931 109.006 113.003 109.934 113.003 111.08C113.003 112.225 113.931 113.153 115.077 113.153Z" fill="#3F3D56"/>
<path d="M78.4849 139.19L60.1242 125.437L42.0139 139.002L41.5996 138.448L60.1242 124.573L78.3976 138.26L96.5568 118.389L96.6297 118.359L114.947 110.979L115.205 111.62L96.9606 118.971L78.4849 139.19Z" fill="#3F3D56"/>
</svg>
