<svg width="360" height="338" viewBox="0 0 360 338" fill="none" xmlns="http://www.w3.org/2000/svg">
<path d="M133.843 337.432L132.999 337.416C133.325 328.025 134.326 318.67 135.994 309.423C139.643 289.625 145.71 276.623 154.027 270.777L154.511 271.469C135.083 285.123 133.853 336.911 133.843 337.432Z" fill="#F1F1F1"/>
<path d="M352.361 152.417C357.731 170.347 356.555 189.61 349.043 206.782C341.532 223.955 328.171 237.923 311.336 246.204L311.191 246.275L311.048 246.215C303.781 243.116 296.074 241.162 288.202 240.422C293.573 242.504 298.553 245.472 302.937 249.202L303.396 249.582L302.833 249.781C301.594 250.22 300.353 250.626 299.147 250.989C286.252 254.911 272.572 255.467 259.414 252.604C246.256 249.741 234.061 243.554 223.993 234.636C209.796 259.805 186.368 278.498 158.66 286.765C99.5057 304.546 36.991 270.973 19.3047 211.927C12.5303 189.423 13.0466 165.344 20.78 143.121C28.5133 120.897 43.0691 101.664 62.3726 88.1629L62.6326 87.9811L62.8309 88.2276C67.9724 94.6294 71.4034 100.912 73.2564 107.351C73.1408 99.413 71.7865 91.5442 69.2422 84.0281L69.1556 83.772L69.3904 83.6309C77.2844 78.9444 85.7214 75.2395 94.5129 72.599C94.8302 72.5036 95.1476 72.4096 95.4652 72.317C102.307 70.2828 108.645 66.8327 114.068 62.1914C119.49 57.55 123.875 51.8218 126.935 45.3799C131.889 35.0694 139.018 25.9483 147.833 18.6442C156.648 11.3401 166.938 6.02624 177.997 3.06836C189.055 0.110484 200.62 -0.421234 211.893 1.50976C223.167 3.44076 233.883 7.78865 243.304 14.2543L243.476 14.372L243.448 14.5779C241.711 27.3087 238.363 36.8172 232.975 44.2271C240.687 37.9936 247.135 30.3465 251.973 21.6984L252.184 21.3219L252.499 21.6156C262.498 30.9515 269.897 42.7203 273.977 55.7746C278.056 68.829 278.676 82.7232 275.776 96.1024C292.934 95.9687 309.664 101.381 323.467 111.53C337.27 121.68 347.406 136.023 352.361 152.417V152.417Z" fill="#6C63FF" fill-opacity="0.2"/>
<path d="M144.39 337.231L143.546 337.214C143.564 336.279 144.091 314.235 152.761 308.143L153.245 308.834C144.926 314.681 144.394 337.006 144.39 337.231Z" fill="#F1F1F1"/>
<path d="M159.312 271.548C161.642 271.548 163.53 269.657 163.53 267.325C163.53 264.992 161.642 263.102 159.312 263.102C156.982 263.102 155.093 264.992 155.093 267.325C155.093 269.657 156.982 271.548 159.312 271.548Z" fill="#F1F1F1"/>
<path d="M157.223 307.864C159.553 307.864 161.442 305.973 161.442 303.641C161.442 301.309 159.553 299.418 157.223 299.418C154.893 299.418 153.004 301.309 153.004 303.641C153.004 305.973 154.893 307.864 157.223 307.864Z" fill="#F1F1F1"/>
<path d="M142.424 274.078C142.847 277.336 142.407 280.647 141.15 283.682C138.954 281.225 137.515 278.185 137.005 274.928C136.496 271.67 136.938 268.335 138.279 265.324C140.403 267.829 141.832 270.847 142.424 274.078V274.078Z" fill="#F1F1F1"/>
<path d="M156.213 286.389C153.082 287.374 149.748 287.518 146.544 286.807C148.578 284.214 151.318 282.266 154.434 281.196C157.549 280.127 160.907 279.982 164.103 280.778C162.009 283.308 159.288 285.243 156.213 286.389Z" fill="#F1F1F1"/>
<path d="M156.37 318.552C154.175 319.242 151.838 319.343 149.593 318.845C151.019 317.027 152.939 315.662 155.123 314.912C157.306 314.162 159.66 314.06 161.9 314.619C160.432 316.392 158.525 317.748 156.37 318.552Z" fill="#F1F1F1"/>
<path d="M68.6613 157.593L66.6313 145.162L60.8996 143.727C60.8996 143.727 56.3505 142.325 55.2873 151.497C54.224 160.669 55.0483 177.793 55.0483 177.793L42.4641 217.683C41.4978 218.143 40.6843 218.872 40.121 219.782C39.5578 220.693 39.2686 221.746 39.288 222.817C39.3075 223.888 39.6348 224.93 40.2309 225.82C40.8269 226.709 41.6663 227.408 42.6487 227.832C43.6311 228.256 44.7148 228.388 45.77 228.211C46.8253 228.035 47.8074 227.558 48.5988 226.837C49.3901 226.116 49.9573 225.183 50.2323 224.148C50.5073 223.113 50.4785 222.021 50.1493 221.002L66.5119 183.531L68.6613 157.593Z" fill="#A0616A"/>
<path d="M103.515 147.811L100.506 135.58L105.215 132.008C105.215 132.008 108.848 128.93 113.424 136.948C117.999 144.966 123.958 161.039 123.958 161.039L151.179 192.78C152.248 192.823 153.282 193.173 154.157 193.789C155.032 194.405 155.711 195.26 156.114 196.253C156.516 197.245 156.624 198.333 156.424 199.385C156.225 200.437 155.727 201.409 154.99 202.185C154.253 202.962 153.308 203.509 152.268 203.761C151.228 204.014 150.138 203.961 149.127 203.609C148.117 203.257 147.229 202.622 146.57 201.778C145.911 200.934 145.509 199.918 145.412 198.852L115.666 170.821L103.515 147.811Z" fill="#A0616A"/>
<path d="M127.039 330.918L133.864 330.917L137.112 304.562L127.037 304.563L127.039 330.918Z" fill="#A0616A"/>
<path d="M125.297 328.69L138.74 328.689H138.74C141.012 328.69 143.191 329.593 144.798 331.201C146.404 332.809 147.307 334.99 147.307 337.265V337.543L125.297 337.544L125.297 328.69Z" fill="#2F2E41"/>
<path d="M41.2954 330.918L48.1212 330.917L51.3687 304.562L41.2939 304.563L41.2954 330.918Z" fill="#A0616A"/>
<path d="M39.5547 328.69L52.9974 328.689H52.998C55.27 328.69 57.4489 329.593 59.0554 331.201C60.662 332.809 61.5646 334.99 61.5648 337.265V337.543L39.5551 337.544L39.5547 328.69Z" fill="#2F2E41"/>
<path d="M83.1591 124.388C93.3553 124.388 101.621 116.114 101.621 105.908C101.621 95.7016 93.3553 87.4277 83.1591 87.4277C72.9629 87.4277 64.6973 95.7016 64.6973 105.908C64.6973 116.114 72.9629 124.388 83.1591 124.388Z" fill="#2F2E41"/>
<path d="M68.7498 95.9438C71.7331 92.9575 72.3378 88.721 70.1002 86.4812C67.8627 84.2415 63.6303 84.8467 60.647 87.833C57.6636 90.8193 57.059 95.0559 59.2965 97.2956C61.534 99.5354 65.7664 98.9302 68.7498 95.9438Z" fill="#2F2E41"/>
<path d="M102.402 90.0735C103.645 87.1607 101.507 83.4544 97.6273 81.7954C93.7473 80.1364 89.5943 81.1528 88.3513 84.0657C87.1083 86.9785 89.2459 90.6847 93.1259 92.3438C97.0058 94.0028 101.159 92.9864 102.402 90.0735Z" fill="#2F2E41"/>
<path d="M97.4935 117.843C101.644 110.242 98.8537 100.713 91.2607 96.5577C83.6677 92.4029 74.1476 95.1962 69.9969 102.797C65.8462 110.397 68.6368 119.927 76.2297 124.082C83.8227 128.236 93.3428 125.443 97.4935 117.843Z" fill="#A0616A"/>
<path d="M67.2822 100.455C70.8627 102.926 75.1124 104.24 79.4609 104.223C77.9097 105.299 76.1438 106.027 74.2849 106.354C80.0665 107.596 86.0419 107.629 91.8371 106.453C93.1252 106.246 94.3682 105.819 95.5114 105.19C96.0811 104.871 96.5775 104.436 96.9682 103.913C97.359 103.39 97.6354 102.791 97.7794 102.154C98.1645 99.9515 96.4503 97.9508 94.6689 96.6025C91.9413 94.5695 88.7965 93.1689 85.4618 92.5019C82.1272 91.8349 78.6861 91.9182 75.3876 92.7457C73.2337 93.303 71.076 94.2446 69.6771 95.976C68.2781 97.7074 67.8637 100.377 69.1966 102.16L67.2822 100.455Z" fill="#2F2E41"/>
<path d="M75.8927 130.715L60.3845 143.393L73.9347 175.734L74.1932 180.908C74.1932 180.908 60.1268 193.89 51.4234 230.155C42.72 266.421 25.1416 314.608 25.1416 314.608L60.308 323.22L84.7585 241.184L115.927 305.544L120.361 324.579L147.545 317.025L137.054 265.941L111.322 186.645L113.435 164.738C113.435 164.738 118.144 153.804 109.964 142.228L107.398 131.35L94.1161 129.084L75.8927 130.715Z" fill="#2F2E41"/>
<path d="M336.672 245.807H229.004C228.144 245.806 227.32 245.464 226.712 244.855C226.104 244.247 225.762 243.422 225.761 242.561V206.203C225.762 205.343 226.104 204.518 226.712 203.909C227.32 203.3 228.144 202.958 229.004 202.957H336.672C337.531 202.958 338.356 203.3 338.964 203.909C339.572 204.517 339.914 205.343 339.915 206.203V242.561C339.914 243.422 339.572 244.247 338.964 244.855C338.356 245.464 337.531 245.806 336.672 245.807V245.807Z" fill="#E5E5E5"/>
<path d="M271.162 212.697H242.624V215.943H271.162V212.697Z" fill="white"/>
<path d="M308.782 216.593C309.856 216.593 310.728 215.721 310.728 214.645C310.728 213.569 309.856 212.697 308.782 212.697C307.707 212.697 306.836 213.569 306.836 214.645C306.836 215.721 307.707 216.593 308.782 216.593Z" fill="#6C63FF"/>
<path d="M315.268 216.593C316.343 216.593 317.214 215.721 317.214 214.645C317.214 213.569 316.343 212.697 315.268 212.697C314.193 212.697 313.322 213.569 313.322 214.645C313.322 215.721 314.193 216.593 315.268 216.593Z" fill="#6C63FF"/>
<path d="M321.754 216.593C322.829 216.593 323.7 215.721 323.7 214.645C323.7 213.569 322.829 212.697 321.754 212.697C320.68 212.697 319.809 213.569 319.809 214.645C319.809 215.721 320.68 216.593 321.754 216.593Z" fill="#6C63FF"/>
<path d="M336.672 291.905H229.004C228.144 291.904 227.32 291.561 226.712 290.953C226.104 290.344 225.762 289.519 225.761 288.659V252.301C225.762 251.44 226.104 250.615 226.712 250.007C227.32 249.398 228.144 249.056 229.004 249.055H336.672C337.531 249.056 338.356 249.398 338.964 250.007C339.572 250.615 339.914 251.44 339.915 252.301V288.659C339.914 289.519 339.572 290.344 338.964 290.953C338.356 291.561 337.531 291.904 336.672 291.905V291.905Z" fill="#E5E5E5"/>
<path d="M271.162 258.791H242.624V262.037H271.162V258.791Z" fill="white"/>
<path d="M308.782 262.686C309.856 262.686 310.728 261.814 310.728 260.739C310.728 259.663 309.856 258.791 308.782 258.791C307.707 258.791 306.836 259.663 306.836 260.739C306.836 261.814 307.707 262.686 308.782 262.686Z" fill="#6C63FF"/>
<path d="M315.268 262.686C316.343 262.686 317.214 261.814 317.214 260.739C317.214 259.663 316.343 258.791 315.268 258.791C314.193 258.791 313.322 259.663 313.322 260.739C313.322 261.814 314.193 262.686 315.268 262.686Z" fill="#6C63FF"/>
<path d="M321.754 262.686C322.829 262.686 323.7 261.814 323.7 260.739C323.7 259.663 322.829 258.791 321.754 258.791C320.68 258.791 319.809 259.663 319.809 260.739C319.809 261.814 320.68 262.686 321.754 262.686Z" fill="#6C63FF"/>
<path d="M336.672 338.001H229.004C228.144 338 227.32 337.657 226.712 337.049C226.104 336.44 225.762 335.615 225.761 334.754V298.397C225.762 297.536 226.104 296.711 226.712 296.102C227.32 295.494 228.144 295.151 229.004 295.15H336.672C337.531 295.151 338.356 295.494 338.964 296.102C339.572 296.711 339.914 297.536 339.915 298.397V334.754C339.914 335.615 339.572 336.44 338.964 337.049C338.356 337.657 337.531 338 336.672 338.001Z" fill="#E5E5E5"/>
<path d="M271.162 304.889H242.624V308.135H271.162V304.889Z" fill="white"/>
<path d="M308.782 308.784C309.856 308.784 310.728 307.912 310.728 306.836C310.728 305.761 309.856 304.889 308.782 304.889C307.707 304.889 306.836 305.761 306.836 306.836C306.836 307.912 307.707 308.784 308.782 308.784Z" fill="#6C63FF"/>
<path d="M315.268 308.784C316.343 308.784 317.214 307.912 317.214 306.836C317.214 305.761 316.343 304.889 315.268 304.889C314.193 304.889 313.322 305.761 313.322 306.836C313.322 307.912 314.193 308.784 315.268 308.784Z" fill="#6C63FF"/>
<path d="M321.754 308.784C322.829 308.784 323.7 307.912 323.7 306.836C323.7 305.761 322.829 304.889 321.754 304.889C320.68 304.889 319.809 305.761 319.809 306.836C319.809 307.912 320.68 308.784 321.754 308.784Z" fill="#6C63FF"/>
<path d="M207.47 259.605C205.419 259.598 203.377 259.334 201.392 258.818L201.001 258.71L200.638 258.528C187.518 251.943 176.448 243.245 167.738 232.675C160.527 223.875 154.906 213.883 151.126 203.149C146.606 190.297 144.431 176.737 144.706 163.115C144.711 162.829 144.716 162.608 144.716 162.456C144.716 155.834 148.388 150.024 154.071 147.654C158.42 145.84 197.91 129.604 200.763 128.431C206.136 125.736 211.869 127.985 212.786 128.378C214.844 129.22 251.349 144.167 259.238 147.927C267.368 151.802 269.538 158.764 269.538 162.267C269.538 178.125 266.794 192.945 261.383 206.316C257.013 217.139 250.819 227.131 243.071 235.856C228.123 252.695 213.171 258.664 213.027 258.717C211.24 259.332 209.359 259.633 207.47 259.605V259.605ZM203.954 250.886C205.25 251.177 208.234 251.614 210.18 250.903C212.651 250.001 225.166 243.505 236.86 230.332C253.018 212.13 261.217 189.25 261.229 162.325C261.2 161.78 260.813 157.889 255.666 155.436C247.93 151.749 209.986 136.218 209.603 136.061L209.498 136.017C208.703 135.683 206.172 134.981 204.428 135.896L204.079 136.059C203.656 136.232 161.737 153.466 157.266 155.331C154.139 156.635 153.025 159.867 153.025 162.456C153.025 162.645 153.02 162.92 153.013 163.276C152.656 181.699 156.915 227.031 203.954 250.886Z" fill="#3F3D56"/>
<g clip-path="url(#clip0_19_74)">
<path d="M235.135 185.848L235.135 185.848C234.655 187.479 233.817 188.982 232.681 190.247C231.546 191.512 230.141 192.506 228.571 193.157C227.001 193.808 225.306 194.099 223.609 194.009C221.912 193.919 220.256 193.449 218.764 192.635L218.759 192.633L216.817 191.566C216.815 191.565 216.814 191.565 216.813 191.564C210.659 188.216 203.92 194.952 207.278 201.117L207.279 201.119L208.342 203.076C211.807 209.454 208.521 217.401 201.561 219.456L201.559 219.457L199.423 220.086L235.135 185.848ZM235.135 185.848L235.764 183.709C235.764 183.709 235.764 183.709 235.764 183.708C235.764 183.708 235.764 183.708 235.764 183.708C237.748 176.982 247.27 176.982 249.253 183.709L249.881 185.848L249.881 185.848C250.361 187.479 251.199 188.982 252.335 190.247C253.471 191.512 254.875 192.506 256.445 193.157C258.015 193.808 259.711 194.099 261.408 194.009C263.105 193.919 264.76 193.449 266.252 192.635C266.252 192.635 266.252 192.635 266.252 192.635L268.205 191.573L268.208 191.571C274.349 188.22 281.1 194.943 277.746 201.122C277.745 201.123 277.744 201.124 277.744 201.125L276.678 203.07L276.676 203.075C275.863 204.568 275.394 206.224 275.304 207.921C275.214 209.619 275.504 211.316 276.154 212.886C276.804 214.457 277.797 215.863 279.061 217C280.325 218.137 281.827 218.976 283.457 219.457L283.457 219.457L285.594 220.086L235.135 185.848ZM201.559 234.222L201.56 234.222C203.19 234.702 204.692 235.542 205.955 236.679C207.219 237.816 208.212 239.221 208.862 240.792C209.512 242.363 209.803 244.059 209.713 245.757C209.622 247.455 209.154 249.111 208.341 250.604L208.338 250.609L207.273 252.554C207.272 252.555 207.272 252.556 207.271 252.557C203.916 258.735 210.667 265.459 216.808 262.107L216.811 262.106L218.764 261.043L201.559 234.222ZM201.559 234.222L199.423 233.593C199.423 233.593 199.423 233.593 199.423 233.593M201.559 234.222L199.423 233.593M235.135 267.83L235.135 267.831L235.764 269.969L235.135 267.83ZM235.135 267.83C234.655 266.199 233.817 264.696 232.681 263.431C231.546 262.167 230.141 261.172 228.571 260.521C227.001 259.87 225.306 259.579 223.609 259.67C221.913 259.76 220.258 260.229 218.767 261.042L235.135 267.83ZM249.881 267.831L249.881 267.83C250.361 266.199 251.199 264.696 252.335 263.431C253.471 262.167 254.875 261.172 256.445 260.521C258.015 259.87 259.711 259.579 261.408 259.67C263.105 259.76 264.76 260.229 266.252 261.043L266.257 261.046L268.2 262.113C268.201 262.113 268.202 262.114 268.203 262.114C274.358 265.462 281.096 258.726 277.739 252.562L277.737 252.559L276.676 250.604C276.675 250.604 276.675 250.603 276.675 250.603C275.863 249.11 275.394 247.455 275.304 245.757C275.214 244.059 275.504 242.363 276.154 240.792C276.804 239.221 277.797 237.816 279.061 236.679C280.325 235.542 281.827 234.702 283.457 234.222L283.457 234.222L285.594 233.593C292.314 231.608 292.314 222.072 285.595 220.086L249.881 267.831ZM249.881 267.831L249.253 269.969M249.881 267.831L249.253 269.969M199.423 233.593C192.703 231.608 192.702 222.072 199.421 220.086L199.423 233.593ZM249.253 269.969C247.27 276.696 237.748 276.697 235.764 269.971L249.253 269.969ZM242.508 247.461H244.687V247.333C249.35 246.836 253.728 244.758 257.073 241.409C260.936 237.543 263.105 232.3 263.105 226.833C263.105 221.366 260.936 216.123 257.073 212.256C253.211 208.39 247.972 206.218 242.508 206.218C237.043 206.218 231.802 208.391 227.939 212.258C224.075 216.126 221.905 221.371 221.905 226.839C221.905 232.308 224.075 237.553 227.939 241.42C231.802 245.288 237.043 247.461 242.508 247.461Z" fill="#564FCC" stroke="#3F3D56" stroke-width="4.35835"/>
</g>
<path d="M202.501 132.213C202.501 132.213 160.202 149.603 155.67 151.494C151.138 153.384 148.872 157.921 148.872 162.457C148.872 166.994 145.472 226.19 202.501 254.812C202.501 254.812 207.677 256.245 211.604 254.812C215.531 253.378 265.384 229.183 265.384 162.268C265.384 162.268 265.384 155.463 257.453 151.683C249.522 147.902 211.176 132.213 211.176 132.213C211.176 132.213 206.467 130.134 202.501 132.213Z" fill="#6C63FF"/>
<path opacity="0.2" d="M207.033 145.822V238.593C207.033 238.593 249.711 218.03 249.333 163.969L207.033 145.822Z" fill="black"/>
<path d="M288.65 338H0.349879C0.257085 338 0.168092 337.947 0.102477 337.854C0.0368619 337.76 0 337.633 0 337.5C0 337.367 0.0368619 337.24 0.102477 337.146C0.168092 337.053 0.257085 337 0.349879 337H288.65C288.743 337 288.832 337.053 288.898 337.146C288.963 337.24 289 337.367 289 337.5C289 337.633 288.963 337.76 288.898 337.854C288.832 337.947 288.743 338 288.65 338Z" fill="#CBCBCB"/>
<defs>
<clipPath id="clip0_19_74">
<rect width="100.61" height="100.71" fill="white" transform="translate(192.203 176.484)"/>
</clipPath>
</defs>
</svg>
