<svg width="118" height="93" viewBox="0 0 118 93" fill="none" xmlns="http://www.w3.org/2000/svg">
<g clip-path="url(#clip0_45_504)">
<path d="M28.1392 50.057C27.2037 45.0505 28.6765 39.3547 32.7699 36.3242C32.5379 41.858 34.2708 47.2955 37.6619 51.6747C38.9758 53.3588 40.6126 55.0951 40.5618 57.2306C40.5302 58.5593 39.8116 59.7971 38.8646 60.7297C37.9176 61.6623 36.751 62.3346 35.5984 62.9965L35.419 63.2756C32.0402 59.4645 29.0746 55.0635 28.1392 50.057Z" fill="#F0F0F0"/>
<path d="M32.8455 36.4017C31.1257 40.2507 30.6624 44.5436 31.5214 48.6709C31.6905 49.5627 31.9992 50.4222 32.436 51.2179C32.8865 51.9792 33.5328 52.606 34.3075 53.0332C35.0218 53.4459 35.8003 53.7854 36.4019 54.3647C36.7054 54.6657 36.9419 55.0275 37.0958 55.4264C37.2497 55.8253 37.3175 56.2522 37.2948 56.6791C37.266 57.7443 36.8562 58.7356 36.4217 59.6911C35.9393 60.7521 35.4214 61.8464 35.4527 63.0391C35.4565 63.1837 35.232 63.1811 35.2283 63.0368C35.1738 60.9616 36.6741 59.295 37.0084 57.3037C37.1644 56.3746 37.0414 55.3928 36.3881 54.6725C35.8169 54.0427 35.0144 53.692 34.2875 53.2803C33.5256 52.8747 32.8746 52.2887 32.3914 51.5735C31.9155 50.8027 31.5743 49.9564 31.3823 49.0711C30.9182 47.0847 30.7694 45.0378 30.9412 43.0052C31.1245 40.6844 31.7033 38.412 32.6528 36.2864C32.7117 36.1548 32.9039 36.271 32.8455 36.4017L32.8455 36.4017Z" fill="white"/>
<path d="M31.1663 47.3569C30.4542 47.407 29.7476 47.2024 29.1725 46.7795C28.5974 46.3567 28.1913 45.7433 28.0268 45.0487C27.994 44.9081 28.211 44.8505 28.2439 44.9913C28.3959 45.6384 28.7742 46.2098 29.3105 46.6024C29.8469 46.995 30.5059 47.183 31.1686 47.1324C31.3127 47.1216 31.3095 47.3461 31.1663 47.3569Z" fill="white"/>
<path d="M33.9175 52.8711C34.8841 51.7781 35.4032 50.3609 35.3713 48.9021C35.3681 48.7576 35.5925 48.7601 35.5958 48.9044C35.6262 50.4225 35.083 51.8963 34.0746 53.0315C33.9784 53.1396 33.8219 52.9787 33.9175 52.8711V52.8711Z" fill="white"/>
<path d="M31.3869 40.8233C31.6664 40.8613 31.951 40.8293 32.2151 40.7302C32.4792 40.631 32.7146 40.4678 32.9 40.2552C32.9948 40.1459 33.1512 40.307 33.0571 40.4156C32.8511 40.6495 32.5909 40.8294 32.2994 40.9396C32.0078 41.0498 31.6937 41.087 31.3845 41.0478C31.355 41.0465 31.3272 41.0341 31.3065 41.013C31.2859 40.992 31.2741 40.9638 31.2734 40.9344C31.2739 40.9046 31.2861 40.8763 31.3073 40.8555C31.3285 40.8347 31.3571 40.8231 31.3868 40.8233H31.3869Z" fill="white"/>
<path d="M49.5103 40.465C49.453 40.535 49.3958 40.6049 49.3391 40.6767C48.5745 41.6209 47.8878 42.6256 47.286 43.681C47.2381 43.7619 47.1909 43.8446 47.1455 43.9266C45.7225 46.4848 44.7869 49.2849 44.3861 52.1846C44.2277 53.3386 44.1573 54.503 44.1756 55.6677C44.2009 57.2762 44.3562 59.0182 43.8632 60.4975C43.8135 60.6524 43.7542 60.8041 43.6858 60.9517L35.7739 63.4725C35.7531 63.4692 35.7327 63.4677 35.7118 63.4645L35.4005 63.5796C35.3953 63.5195 35.3913 63.4572 35.3862 63.3972C35.383 63.3624 35.3817 63.327 35.3785 63.2923C35.377 63.2689 35.3756 63.2455 35.3729 63.2245C35.3723 63.2167 35.3719 63.2089 35.3719 63.2029C35.3692 63.1819 35.3689 63.1621 35.3668 63.1429C35.3433 62.7945 35.3215 62.4455 35.3034 62.0953C35.3028 62.0935 35.3028 62.0935 35.304 62.0912C35.1682 59.4243 35.2539 56.7227 35.7468 54.1199C35.7617 54.0416 35.7759 53.9615 35.7944 53.8821C36.0231 52.7101 36.3472 51.5588 36.7635 50.4396C36.9934 49.8276 37.2542 49.2275 37.5448 48.6418C38.2986 47.1298 39.2855 45.7459 40.4693 44.5406C42.8296 42.1382 45.932 40.5175 49.2562 40.4665C49.3413 40.4652 49.4247 40.4645 49.5103 40.465Z" fill="#F0F0F0"/>
<path d="M49.5247 40.5717C45.8342 42.6094 42.8796 45.7582 41.0806 49.5708C40.6787 50.3846 40.4077 51.2568 40.2774 52.1551C40.1788 53.0342 40.3173 53.9237 40.6788 54.7312C41.0006 55.4909 41.4178 56.2306 41.5494 57.0553C41.6105 57.4784 41.5814 57.9097 41.4642 58.3208C41.3469 58.7319 41.144 59.1136 40.8689 59.4409C40.2046 60.274 39.2805 60.8188 38.3583 61.3201C37.3344 61.8768 36.262 62.4387 35.5689 63.4099C35.4849 63.5276 35.3072 63.3904 35.3911 63.2729C36.597 61.5832 38.7984 61.1558 40.2642 59.7672C40.9481 59.1192 41.441 58.2612 41.353 57.2929C41.2761 56.4461 40.8466 55.6828 40.514 54.9165C40.1499 54.1339 39.983 53.2741 40.0277 52.4122C40.1119 51.5102 40.3489 50.629 40.7286 49.8065C41.554 47.9412 42.6676 46.2172 44.0285 44.6978C45.5721 42.955 47.4024 41.4892 49.4403 40.3636C49.5665 40.294 49.6501 40.5025 49.5247 40.5717Z" fill="white"/>
<path d="M41.5874 48.3091C40.9887 47.9205 40.5477 47.3316 40.3431 46.6478C40.1385 45.964 40.1836 45.2297 40.4704 44.576C40.5289 44.444 40.7368 44.5287 40.6783 44.6609C40.4101 45.2691 40.3681 45.9531 40.56 46.5895C40.7518 47.2258 41.1648 47.7727 41.7244 48.1313C41.846 48.2094 41.7082 48.3868 41.5874 48.3091H41.5874Z" fill="white"/>
<path d="M40.4649 54.3679C41.8947 54.0771 43.1624 53.2581 44.0153 52.0741C44.0996 51.9567 44.2774 52.0939 44.1931 52.2111C43.3033 53.4415 41.9823 54.2912 40.4937 54.5905C40.3518 54.6189 40.3237 54.3962 40.4649 54.3679V54.3679Z" fill="white"/>
<path d="M45.6988 43.2243C45.8992 43.4229 46.1457 43.5687 46.4162 43.6486C46.6868 43.7284 46.973 43.7398 47.2491 43.6817C47.3905 43.6515 47.4185 43.8743 47.2779 43.9043C46.9726 43.9671 46.6566 43.9541 46.3574 43.8666C46.0583 43.779 45.7851 43.6196 45.5618 43.4021C45.5391 43.3834 45.5243 43.3567 45.5205 43.3274C45.5167 43.2982 45.5242 43.2686 45.5414 43.2447C45.5597 43.2212 45.5865 43.2059 45.6159 43.2021C45.6454 43.1983 45.6752 43.2063 45.6988 43.2243V43.2243Z" fill="white"/>
<path d="M61.9385 13.089C61.965 13.2055 61.9823 13.3239 61.9902 13.4432L71.2666 18.7947L73.5213 17.4967L75.9251 20.6435L72.1568 23.3293C71.8523 23.5463 71.4857 23.6586 71.112 23.6495C70.7383 23.6404 70.3776 23.5103 70.0841 23.2788L60.5185 15.7324C60.0868 15.8922 59.6167 15.9168 59.1707 15.8029C58.7247 15.689 58.324 15.442 58.0218 15.0948C57.7196 14.7476 57.5302 14.3166 57.479 13.8591C57.4277 13.4017 57.5169 12.9395 57.7347 12.5339C57.9526 12.1284 58.2887 11.7988 58.6984 11.589C59.1081 11.3792 59.572 11.2991 60.0284 11.3594C60.4847 11.4196 60.9119 11.6174 61.2531 11.9264C61.5943 12.2353 61.8334 12.6409 61.9385 13.089V13.089Z" fill="#FFB6B6"/>
<path d="M71.395 18.2019C71.4245 18.0654 71.483 17.9368 71.5666 17.825C71.6503 17.7132 71.757 17.6207 71.8797 17.5539L76.1624 15.2205C76.7328 14.79 77.4505 14.6033 78.1583 14.7013C78.8661 14.7993 79.5061 15.174 79.938 15.7432C80.37 16.3124 80.5585 17.0296 80.4624 17.7377C80.3662 18.4457 79.9932 19.0867 79.4252 19.5201L75.9927 23.0071C75.8947 23.1067 75.7764 23.1839 75.6459 23.2336C75.5154 23.2832 75.3757 23.3042 75.2364 23.2951C75.0971 23.2859 74.9613 23.2468 74.8385 23.1804C74.7156 23.1141 74.6085 23.022 74.5244 22.9106L71.569 18.9922C71.4849 18.8808 71.4258 18.7525 71.3957 18.6161C71.3657 18.4797 71.3655 18.3384 71.395 18.2019Z" fill="#3F3D56"/>
<path d="M79.0466 4.63698C79.6628 2.67317 81.064 0.872036 83.0019 0.208162C84.94 -0.45571 87.7777 0.555584 89.2347 2.00761C91.8997 4.66367 92.5501 13.7882 90.7191 16.6716C90.3549 16.6523 89.0982 16.6381 88.7296 16.6243L88.2082 14.8863V16.6071C85.3311 16.5182 82.3358 16.5739 79.3389 16.6315C79.0703 14.59 78.4304 6.60078 79.0466 4.63698Z" fill="#2F2E41"/>
<path d="M78.222 87.0672H75.5979L74.3496 76.9453L78.2226 76.9455L78.222 87.0672Z" fill="#A0616A"/>
<path d="M101.194 85.4351L98.6548 86.0969L94.8936 76.6173L98.6413 75.6406L101.194 85.4351Z" fill="#A0616A"/>
<path d="M86.7325 24.9003L87.3272 26.4463L87.2082 27.9922L75.5713 32.0228L76.1487 25.2571L77.4567 23.7109L86.7325 24.9003Z" fill="#FFB6B6"/>
<path d="M83.0528 10.9883C85.3482 10.9883 87.209 9.1275 87.209 6.83206C87.209 4.53661 85.3482 2.67578 83.0528 2.67578C80.7573 2.67578 78.8965 4.53661 78.8965 6.83206C78.8965 9.1275 80.7573 10.9883 83.0528 10.9883Z" fill="#A0616A"/>
<path d="M80.1969 1.4212C80.9955 0.934347 81.9102 0.670986 82.8454 0.658657C83.7807 0.646327 84.702 0.885482 85.5132 1.35112C86.3244 1.81675 86.9955 2.49177 87.4565 3.30557C87.9175 4.11938 88.1514 5.0421 88.1337 5.97724C85.8681 6.5563 83.4538 6.7985 80.8953 6.1167L80.3105 4.68533L79.9657 6.11776C79.1829 6.66836 78.4274 6.66737 77.6992 6.11479C77.6683 5.18228 77.8828 4.25801 78.3211 3.43435C78.7594 2.6107 79.4062 1.91652 80.1969 1.4212Z" fill="#2F2E41"/>
<path d="M79.3964 92.0502H77.5343L77.2019 90.2922L76.3507 92.0502H71.412C71.1753 92.0502 70.9447 91.9746 70.754 91.8343C70.5634 91.694 70.4225 91.4964 70.3521 91.2704C70.2816 91.0444 70.2853 90.8018 70.3624 90.578C70.4396 90.3542 70.5863 90.161 70.7812 90.0265L74.725 87.3027V85.5254L78.8733 85.773L79.3964 92.0502Z" fill="#2F2E41"/>
<path d="M103.817 89.9013L102.015 90.371L101.25 88.7536L100.869 90.6695L96.0905 91.9152C95.8614 91.975 95.6192 91.9599 95.3993 91.8722C95.1794 91.7846 94.9933 91.6289 94.8681 91.428C94.7429 91.2271 94.6852 90.9914 94.7035 90.7554C94.7218 90.5194 94.815 90.2953 94.9696 90.1161L98.0989 86.4856L97.6506 84.7657L101.727 83.959L103.817 89.9013Z" fill="#2F2E41"/>
<path d="M100.872 79.0703L93.1797 63.261L90.765 44.019C92.4299 40.9271 89.338 34.6357 89.338 34.6357V31.9941L77.3607 34.2537V34.2537C74.911 40.9353 73.723 48.0137 73.8573 55.129L74.3399 80.707H74.1885C73.9372 80.707 73.6963 80.8068 73.5187 80.9844C73.341 81.1621 73.2412 81.403 73.2412 81.6543C73.2412 81.9055 73.341 82.1464 73.5187 82.3241C73.6963 82.5017 73.9372 82.6015 74.1885 82.6015H78.9248C79.176 82.6015 79.417 82.5017 79.5946 82.3241C79.7722 82.1464 79.872 81.9055 79.872 81.6543C79.872 81.403 79.7722 81.1621 79.5946 80.9844C79.417 80.8068 79.176 80.707 78.9248 80.707H78.8027L82.2028 48.1673L86.1563 64.2248L95.7103 79.0096C95.4666 79.0285 95.2397 79.1412 95.0774 79.324C94.915 79.5067 94.8298 79.7452 94.8396 79.9895C94.8494 80.2337 94.9535 80.4647 95.13 80.6338C95.3065 80.8029 95.5416 80.8971 95.7861 80.8964H100.522C100.743 80.8967 100.956 80.82 101.126 80.6798C101.296 80.5395 101.411 80.3443 101.453 80.128C101.494 79.9116 101.459 79.6876 101.353 79.4945C101.247 79.3014 101.077 79.1514 100.872 79.0703H100.872Z" fill="#2F2E41"/>
<path d="M90.4211 36.2547H90.4211C90.3818 36.1002 90.2945 35.962 90.1718 35.8601C90.0491 35.7582 89.8973 35.6977 89.7381 35.6874C89.5802 33.8824 88.5371 22.3066 88.4974 21.967L88.4959 21.9526L88.1938 15.5003C88.1829 15.2659 88.086 15.0439 87.9216 14.8765C87.7573 14.709 87.537 14.608 87.3029 14.5927L85.7076 14.4885C85.6857 14.4877 85.665 14.4785 85.6497 14.4628C85.6345 14.447 85.626 14.426 85.626 14.4041C85.626 14.2279 85.5913 14.0535 85.5239 13.8907C85.4565 13.7279 85.3576 13.58 85.2331 13.4554C85.1085 13.3309 84.9606 13.232 84.7978 13.1646C84.6351 13.0972 84.4606 13.0625 84.2844 13.0625H79.5612C79.2552 13.0626 78.9599 13.1744 78.7305 13.3769C78.5011 13.5793 78.3535 13.8585 78.3154 14.1621C78.3133 14.1829 78.3034 14.2023 78.2877 14.2162C78.2719 14.2301 78.2515 14.2376 78.2305 14.2371L78.23 14.2371C77.6933 14.226 77.1704 14.4077 76.7562 14.7492C76.342 15.0907 76.064 15.5694 75.9725 16.0983C75.3268 19.8554 74.0327 28.3824 74.6725 33.1229C74.8953 34.7732 74.794 37.2552 74.7098 38.636C74.7014 38.7694 74.7195 38.9032 74.7629 39.0296C74.8063 39.1561 74.8743 39.2727 74.9628 39.3729C74.7745 39.4272 74.6146 39.5525 74.5168 39.7224C74.419 39.8923 74.3911 40.0936 74.4388 40.2837H74.4388C74.4879 40.4786 74.6124 40.646 74.785 40.749C74.9575 40.8521 75.1639 40.8824 75.3588 40.8333L89.8715 37.1748C90.0664 37.1257 90.2338 37.0011 90.3369 36.8286C90.4399 36.656 90.4703 36.4496 90.4211 36.2547Z" fill="#3F3D56"/>
<path d="M66.4349 63.3808C66.4322 62.9571 66.2796 62.548 66.004 62.2261C65.7285 61.9042 65.3479 61.6903 64.9296 61.6224L39.1992 57.3971C38.9525 57.3563 38.7 57.3675 38.4578 57.4301L32.4278 58.9893L28.9679 59.8849L22.5828 61.5355C22.1974 61.6356 21.8561 61.8608 21.6124 62.1758C21.3687 62.4907 21.2364 62.8777 21.2363 63.2759V90.2377C21.2382 90.6487 21.3803 91.0468 21.639 91.3662C21.8977 91.6857 22.2576 91.9073 22.6592 91.9946L48.8674 91.6978C48.9905 91.7243 49.116 91.7373 49.2419 91.7368C49.4253 91.7371 49.6076 91.7093 49.7826 91.6544L65.3535 92.0419C65.721 91.9272 66.0417 91.6971 66.2681 91.3857C66.4944 91.0744 66.6144 90.6983 66.6102 90.3134L66.4349 63.3808Z" fill="white"/>
<path d="M66.4349 63.3808C66.4322 62.9571 66.2796 62.548 66.004 62.2261C65.7285 61.9042 65.3479 61.6903 64.9296 61.6224L39.1992 57.3971C38.9525 57.3563 38.7 57.3675 38.4578 57.4301L32.4278 58.9893L28.9679 59.8849L22.5828 61.5355C22.1974 61.6356 21.8561 61.8608 21.6124 62.1758C21.3687 62.4907 21.2364 62.8777 21.2363 63.2759V90.2377C21.2382 90.6487 21.3803 91.0468 21.639 91.3662C21.8977 91.6857 22.2576 91.9073 22.6592 91.9946L48.8674 91.6978C48.9905 91.7243 49.116 91.7373 49.2419 91.7368C49.4253 91.7371 49.6076 91.7093 49.7826 91.6544L65.3535 92.0419C65.721 91.9272 66.0417 91.6971 66.2681 91.3857C66.4944 91.0744 66.6144 90.6983 66.6102 90.3134L66.4349 63.3808ZM65.2187 91.6135L49.6478 91.9839C49.4256 92.053 49.1895 92.0644 48.9618 92.0168L22.7521 91.5558C22.4509 91.4901 22.1812 91.3237 21.9873 91.0841C21.7934 90.8445 21.687 90.5459 21.6857 90.2377V63.2759C21.6859 62.9999 21.7707 62.7306 21.9287 62.5043C22.0867 62.278 22.3103 62.1056 22.5694 62.0103C22.6105 61.9948 22.6525 61.9818 22.6952 61.9713L29.4502 60.2249L33.4448 59.1915L38.5702 57.8659C38.6801 57.8366 38.7934 57.822 38.9072 57.8225C38.9804 57.8225 39.0536 57.8285 39.1258 57.8405L64.8563 62.0657C65.0633 62.0997 65.2596 62.1814 65.4296 62.3043C65.5996 62.4273 65.7387 62.5882 65.8358 62.7742C65.933 62.9627 65.9843 63.1716 65.9856 63.3837L66.1608 90.3164C66.1641 90.6051 66.0742 90.8873 65.9045 91.1209C65.7348 91.3545 65.4943 91.5273 65.2187 91.6135Z" fill="#CCCCCC"/>
<path d="M65.8355 62.7744C65.818 62.7859 65.7988 62.7945 65.7786 62.7998L58.2103 64.8458L55.8543 65.4824L49.1532 67.2932C49.1341 67.2979 49.1145 67.3004 49.0948 67.3007C49.0813 67.3004 49.0678 67.2994 49.0543 67.2977L22.0343 62.3715L21.9445 62.355C21.8859 62.344 21.8341 62.3103 21.8004 62.2612C21.7667 62.2121 21.7537 62.1517 21.7644 62.0931C21.7751 62.0345 21.8085 61.9825 21.8574 61.9485C21.9063 61.9145 21.9667 61.9013 22.0254 61.9117L22.5691 62.0105L49.0858 66.8453L54.8612 65.2847L58.092 64.4114L65.5434 62.3969L65.6618 62.3655C65.7129 62.352 65.7672 62.3569 65.8151 62.3794C65.863 62.4018 65.9015 62.4404 65.9239 62.4883C65.9297 62.4998 65.9342 62.5118 65.9374 62.5242C65.9497 62.5713 65.9464 62.6212 65.9281 62.6663C65.9097 62.7114 65.8772 62.7493 65.8355 62.7744Z" fill="#CCCCCC"/>
<path d="M49.3195 91.7896C49.1963 91.7896 49.096 91.6905 49.0948 92.3248L48.8701 67.8361C48.869 66.9542 48.9687 66.8527 49.0927 66.8516H49.0948C49.2179 66.8516 49.3183 66.9507 49.3195 67.832L49.5441 92.3207C49.5453 91.687 49.4455 91.7885 49.3215 91.7896H49.3195Z" fill="#CCCCCC"/>
<path d="M58.2742 92.0743L55.8545 92.1L54.8614 65.2854L29.5235 60.2439C29.4986 60.2395 29.4741 60.2335 29.4501 60.2259C29.2554 60.1705 29.0854 60.0506 28.9678 59.8859L32.4276 58.9902L33.4446 59.1924L57.4871 63.9749C57.6135 63.9998 57.733 64.0518 57.8375 64.1273C57.9419 64.2028 58.0288 64.3 58.0921 64.4122C58.167 64.5425 58.2727 91.9186 58.2742 92.0743Z" fill="#CCCCCC"/>
<path d="M77.6559 14.3012C77.6538 13.9818 77.5388 13.6736 77.3311 13.431C77.1235 13.1884 76.8366 13.0272 76.5214 12.9759L57.1296 9.79158C56.9437 9.7608 56.7533 9.76926 56.5708 9.81641L52.0262 10.9915L49.4187 11.6665L44.6066 12.9105C44.3161 12.9859 44.0589 13.1556 43.8752 13.393C43.6916 13.6304 43.5919 13.922 43.5918 14.2222V30.1158C43.5932 30.4255 43.7003 30.7256 43.8953 30.9663C44.0902 31.207 44.3614 31.3741 44.6642 31.4399L64.4161 35.6424C64.5088 35.6624 64.6034 35.6722 64.6983 35.6718C64.8365 35.672 64.9739 35.6511 65.1058 35.6097L76.8409 31.9038C77.1178 31.8174 77.3595 31.644 77.5301 31.4093C77.7007 31.1747 77.7911 30.8913 77.7879 30.6012L77.6559 14.3012Z" fill="white"/>
<path d="M56.9103 10.9609C56.8962 10.9609 56.8821 10.9627 56.8684 10.9663L44.9041 14.0604C44.8678 14.0698 44.8357 14.091 44.8127 14.1206C44.7898 14.1503 44.7773 14.1867 44.7773 14.2241V30.1175C44.7775 30.1562 44.7908 30.1937 44.8152 30.2238C44.8395 30.2539 44.8734 30.2748 44.9112 30.283L64.6631 34.4855C64.6917 34.4915 64.7214 34.49 64.7493 34.4813L76.4846 30.7755C76.5192 30.7647 76.5494 30.7431 76.5706 30.7137C76.5919 30.6844 76.6032 30.649 76.6027 30.6128L76.4712 14.3129C76.4709 14.273 76.4565 14.2345 76.4306 14.2042C76.4046 14.1739 76.3688 14.1538 76.3294 14.1474L56.9377 10.9631C56.9286 10.9617 56.9195 10.961 56.9103 10.9609Z" fill="#6C63FF"/>
<path d="M77.6559 14.3012C77.6538 13.9818 77.5388 13.6736 77.3311 13.431C77.1235 13.1884 76.8366 13.0272 76.5214 12.9759L57.1296 9.79158C56.9437 9.7608 56.7533 9.76926 56.5708 9.81641L52.0262 10.9915L49.4187 11.6665L44.6066 12.9105C44.3161 12.9859 44.0589 13.1556 43.8752 13.393C43.6916 13.6304 43.5919 13.922 43.5918 14.2222V30.1158C43.5932 30.4255 43.7003 30.7256 43.8953 30.9663C44.0902 31.207 44.3614 31.3741 44.6642 31.4399L64.4161 35.6424C64.5088 35.6624 64.6034 35.6722 64.6983 35.6718C64.8365 35.672 64.9739 35.6511 65.1058 35.6097L76.8409 31.9038C77.1178 31.8174 77.3595 31.644 77.5301 31.4093C77.7007 31.1747 77.7911 30.8913 77.7879 30.6012L77.6559 14.3012ZM76.7393 31.581L65.0042 35.2868C64.8368 35.339 64.6588 35.3475 64.4872 35.3117L44.7341 31.1091C44.5072 31.0596 44.3039 30.9343 44.1578 30.7537C44.0116 30.5731 43.9315 30.3481 43.9304 30.1158V14.2222C43.9306 14.0141 43.9945 13.8112 44.1136 13.6406C44.2327 13.4701 44.4012 13.3401 44.5964 13.2683C44.6274 13.2567 44.6591 13.2469 44.6913 13.239L49.7822 11.9228L52.7927 11.1439L56.6555 10.1449C56.7383 10.1228 56.8237 10.1118 56.9095 10.1122C56.9647 10.1121 57.0198 10.1167 57.0743 10.1257L76.4661 13.3101C76.6221 13.3357 76.7701 13.3973 76.8982 13.4899C77.0263 13.5826 77.1312 13.7038 77.2043 13.844C77.2776 13.9861 77.3163 14.1435 77.3172 14.3034L77.4493 30.6034C77.4517 30.821 77.384 31.0336 77.2561 31.2097C77.1282 31.3858 76.947 31.516 76.7393 31.581V31.581Z" fill="#3F3D56"/>
<path d="M77.2045 13.8442C77.1914 13.8529 77.1769 13.8594 77.1616 13.8634L71.4578 15.4054L69.6821 15.8851L64.6319 17.2498C64.6174 17.2534 64.6027 17.2553 64.5878 17.2555C64.5776 17.2553 64.5675 17.2545 64.5574 17.2532L44.1936 13.5406L44.1259 13.5282C44.0818 13.5199 44.0427 13.4945 44.0172 13.4575C43.9918 13.4205 43.982 13.3749 43.9901 13.3308C43.9981 13.2866 44.0234 13.2474 44.0602 13.2218C44.0971 13.1961 44.1427 13.1862 44.1869 13.194L44.5966 13.2685L64.5811 16.9123L68.9337 15.7361L71.3686 15.078L76.9844 13.5598L77.0736 13.5361C77.1121 13.5259 77.153 13.5296 77.1891 13.5465C77.2253 13.5634 77.2543 13.5925 77.2711 13.6286C77.2755 13.6372 77.2789 13.6463 77.2813 13.6557C77.2906 13.6912 77.2881 13.7288 77.2743 13.7627C77.2605 13.7967 77.236 13.8253 77.2045 13.8442Z" fill="#3F3D56"/>
<path d="M64.7566 35.7126C64.712 35.7126 64.6691 35.695 64.6374 35.6636C64.6057 35.6322 64.5877 35.5895 64.5873 35.5449L64.418 17.0888C64.4176 17.0439 64.435 17.0007 64.4665 16.9687C64.4979 16.9366 64.5408 16.9184 64.5857 16.918H64.5873C64.6319 16.918 64.6748 16.9356 64.7065 16.967C64.7382 16.9984 64.7562 17.0411 64.7566 17.0858L64.9259 35.5418C64.9263 35.5867 64.9089 35.6299 64.8774 35.6619C64.846 35.694 64.8031 35.7122 64.7582 35.7126H64.7566Z" fill="#3F3D56"/>
<path d="M71.4569 33.4668L69.6812 33.9465L68.9328 15.7366L49.8368 11.937C49.8181 11.9337 49.7996 11.9292 49.7815 11.9234C49.6348 11.8817 49.5066 11.7913 49.418 11.6672L52.0255 10.9922L52.792 11.1446L70.9116 14.7489C71.0069 14.7677 71.097 14.8069 71.1757 14.8638C71.2544 14.9207 71.3199 14.9939 71.3677 15.0785C71.4241 15.1767 71.4557 33.3494 71.4569 33.4668Z" fill="#3F3D56"/>
<path d="M70.6622 23.0832C70.753 23.1608 70.8376 23.2455 70.9151 23.3365L81.5521 22.0942L82.5866 19.707L86.3933 20.7974L84.9727 25.2014C84.8579 25.5572 84.6308 25.8661 84.3255 26.0819C84.0202 26.2976 83.6531 26.4085 83.2794 26.3979L71.1005 26.0517C70.8495 26.4375 70.4869 26.7378 70.0611 26.9126C69.6352 27.0874 69.1663 27.1284 68.7166 27.0301C68.2669 26.9319 67.8577 26.6991 67.5436 26.3626C67.2294 26.0262 67.0251 25.602 66.9579 25.1466C66.8907 24.6913 66.9637 24.2262 67.1672 23.8133C67.3707 23.4005 67.6951 23.0593 68.0973 22.8353C68.4994 22.6113 68.9602 22.515 69.4184 22.5593C69.8766 22.6036 70.3104 22.7863 70.6622 23.0832Z" fill="#A0616A"/>
<path d="M81.3031 21.5431C81.2452 21.416 81.2155 21.278 81.2158 21.1383C81.2162 20.9987 81.2467 20.8608 81.3052 20.734L83.349 16.3056C83.5497 15.6199 84.0142 15.0418 84.6406 14.6981C85.267 14.3543 86.0041 14.273 86.6904 14.4719C87.3766 14.6709 87.9559 15.1338 88.3014 15.7593C88.6468 16.3847 88.7301 17.1216 88.533 17.8084L87.8599 22.6549C87.8407 22.7932 87.7919 22.9257 87.7169 23.0435C87.6418 23.1612 87.5422 23.2614 87.425 23.3372C87.3077 23.413 87.1755 23.4627 87.0373 23.4828C86.8991 23.5029 86.7582 23.4929 86.6242 23.4537L81.9144 22.0734C81.7803 22.0342 81.6563 21.9665 81.5508 21.875C81.4453 21.7835 81.3608 21.6703 81.3031 21.5431Z" fill="#3F3D56"/>
<path d="M116.984 92.2715H0.225899C0.166186 92.2713 0.108975 92.2474 0.066812 92.2052C0.024649 92.1629 0.000976562 92.1056 0.000976562 92.0459C0.000976562 91.9862 0.024649 91.9289 0.066812 91.8866C0.108975 91.8443 0.166186 91.8205 0.225899 91.8203H116.984C117.044 91.8203 117.102 91.8441 117.144 91.8864C117.186 91.9287 117.21 91.9861 117.21 92.0459C117.21 92.1057 117.186 92.1631 117.144 92.2054C117.102 92.2477 117.044 92.2715 116.984 92.2715Z" fill="#CACACA"/>
<path d="M22.7562 68.3033C26.5031 68.3033 29.5407 65.2658 29.5407 61.5189C29.5407 57.7719 26.5031 54.7344 22.7562 54.7344C19.0092 54.7344 15.9717 57.7719 15.9717 61.5189C15.9717 65.2658 19.0092 68.3033 22.7562 68.3033Z" fill="#6C63FF"/>
<path d="M21.8301 65.0485C21.713 65.0485 21.5974 65.0212 21.4926 64.9688C21.3879 64.9164 21.2967 64.8403 21.2264 64.7465L19.3755 62.2786C19.2554 62.1185 19.2039 61.9172 19.2322 61.7191C19.2605 61.521 19.3664 61.3422 19.5265 61.2221C19.6866 61.102 19.8879 61.0505 20.086 61.0788C20.2842 61.1071 20.4629 61.2129 20.583 61.3731L21.7939 62.9875L24.9041 58.3224C24.9589 58.2396 25.0295 58.1684 25.1119 58.113C25.1943 58.0575 25.2868 58.0189 25.3842 57.9993C25.4815 57.9796 25.5818 57.9794 25.6792 57.9986C25.7766 58.0178 25.8693 58.056 25.9519 58.1111C26.0346 58.1662 26.1055 58.2371 26.1607 58.3196C26.2159 58.4022 26.2543 58.4948 26.2736 58.5922C26.2929 58.6896 26.2928 58.7899 26.2733 58.8873C26.2538 58.9846 26.2153 59.0772 26.1599 59.1597L22.4581 64.7124C22.3912 64.8128 22.3011 64.8957 22.1955 64.9542C22.0899 65.0126 21.9718 65.0449 21.8511 65.0482C21.8441 65.0484 21.8371 65.0485 21.8301 65.0485Z" fill="white"/>
<path d="M51.6444 25.4805C51.6233 25.4805 51.6022 25.4781 51.5816 25.4735L45.7086 24.1473C45.6352 24.1306 45.5713 24.0855 45.5312 24.0218C45.491 23.9581 45.4777 23.8811 45.4943 23.8076C45.5108 23.7341 45.5559 23.6703 45.6195 23.63C45.6832 23.5897 45.7602 23.5763 45.8337 23.5928L51.7067 24.919C51.7749 24.9344 51.835 24.9744 51.8756 25.0313C51.9161 25.0883 51.9343 25.1581 51.9266 25.2276C51.9189 25.2971 51.8858 25.3613 51.8337 25.4079C51.7817 25.4546 51.7143 25.4804 51.6444 25.4805Z" fill="white"/>
<path d="M29.0415 78.8572C29.0208 78.8615 28.9997 78.8635 28.9786 78.8631L22.9586 78.7617C22.8833 78.7603 22.8117 78.7291 22.7594 78.675C22.7071 78.6208 22.6785 78.5481 22.6797 78.4728C22.681 78.3976 22.712 78.3259 22.7661 78.2735C22.8201 78.2211 22.8928 78.1923 22.968 78.1934L28.9881 78.2948C29.058 78.296 29.125 78.3229 29.1763 78.3703C29.2276 78.4178 29.2596 78.4825 29.2662 78.5521C29.2728 78.6217 29.2535 78.6913 29.2121 78.7476C29.1706 78.8038 29.1099 78.8429 29.0415 78.8572Z" fill="#E6E6E6"/>
<path d="M31.1245 82.0779C31.1038 82.0822 31.0827 82.0842 31.0616 82.0838L25.0416 81.9824C24.9663 81.981 24.8947 81.9498 24.8424 81.8957C24.7901 81.8415 24.7615 81.7688 24.7627 81.6935C24.764 81.6183 24.795 81.5466 24.8491 81.4942C24.9031 81.4418 24.9758 81.413 25.051 81.4141L31.0711 81.5155C31.141 81.5167 31.208 81.5436 31.2593 81.591C31.3106 81.6385 31.3426 81.7032 31.3492 81.7728C31.3558 81.8424 31.3366 81.912 31.2951 81.9683C31.2536 82.0245 31.1929 82.0636 31.1245 82.0779Z" fill="#E6E6E6"/>
</g>
<defs>
<clipPath id="clip0_45_504">
<rect width="117.21" height="92.3249" fill="white"/>
</clipPath>
</defs>
</svg>
