<svg width="104" height="98" viewBox="0 0 104 98" fill="none" xmlns="http://www.w3.org/2000/svg">
<g clip-path="url(#clip0_45_626)">
<path d="M82.832 69.1055C82.832 69.1055 95.6982 69.7707 92.7014 73.8209C89.7046 77.8712 81.8301 71.445 81.8301 71.445L82.832 69.1055Z" fill="#A0616A"/>
<path d="M59.1221 30.5273L61.7409 31.1821C61.7409 31.1821 63.2686 35.765 64.3598 39.9115C65.451 44.058 67.6333 56.4976 67.6333 56.4976L84.5527 68.3551L82.5347 72.8693L59.9951 63.9861L54.9756 44.2763L59.1221 30.5273Z" fill="#575A89"/>
<path opacity="0.2" d="M61.5863 38.6621L60.6102 59.1022L62.647 65.1793L56.6807 60.8039L61.5863 38.6621Z" fill="black"/>
<path d="M65.1242 74.9387C65.1242 74.9387 67.9613 82.5769 68.3978 87.8146C68.8342 93.0523 69.2707 97.1988 69.2707 97.1988H55.9582L53.3394 93.2706V97.1988H37.8445C37.8445 97.1988 33.4798 83.0134 35.2257 81.2675C36.9716 79.5216 53.5576 72.1016 53.5576 72.1016L65.1242 74.9387Z" fill="#2F2E41"/>
<path d="M90.4904 97H13.458V97.2652H90.4904V97Z" fill="#3F3D56"/>
<path d="M48.4288 22.2345C53.0089 22.2345 56.7218 18.5216 56.7218 13.9415C56.7218 9.36135 53.0089 5.64844 48.4288 5.64844C43.8486 5.64844 40.1357 9.36135 40.1357 13.9415C40.1357 18.5216 43.8486 22.2345 48.4288 22.2345Z" fill="#A0616A"/>
<path d="M42.099 17.4316L41.4443 27.0341L49.7374 38.1642L53.8839 27.6888C53.8839 27.6888 50.1738 25.2882 52.3562 20.2687L42.099 17.4316Z" fill="#A0616A"/>
<path d="M66.3232 76.7927C66.3232 78.7576 60.8673 81.8124 60.8673 81.8124V82.9035L58.6849 83.9947L53.884 74.3929L52.5753 84.8671C52.5753 84.8671 42.9721 86.3958 39.9174 84.8671C36.8613 83.3397 35.3339 83.9947 30.9692 82.4673C26.6044 80.9399 32.7153 60.4249 32.7153 60.4249L28.3506 28.7807L37.8862 24.0129L38.3887 23.761L39.6999 23.5197L41.7099 23.1484L48.4281 27.6895L48.969 30.5268L49.3018 32.273L51.0466 30.3081L52.3645 25.9738L61.741 31.1818L59.1224 52.1317C59.1224 52.1317 66.3232 74.8291 66.3232 76.7927Z" fill="#575A89"/>
<path d="M34.2429 83.5586C34.2429 83.5586 44.2818 91.6334 39.4806 93.161C34.6794 94.6887 32.0605 84.868 32.0605 84.868L34.2429 83.5586Z" fill="#A0616A"/>
<path d="M30.5332 29.2177L28.3508 28.7812C28.3508 28.7812 25.0773 30.5271 24.859 34.0189C24.6408 37.5107 21.8037 61.9533 21.8037 61.9533L30.9697 86.6141L38.3897 83.777L31.1879 60.6439L36.6438 40.5661L30.5332 29.2177Z" fill="#575A89"/>
<path d="M49.3883 35.8781C49.8276 35.8781 50.1838 35.522 50.1838 35.0826C50.1838 34.6433 49.8276 34.2871 49.3883 34.2871C48.9489 34.2871 48.5928 34.6433 48.5928 35.0826C48.5928 35.522 48.9489 35.8781 49.3883 35.8781Z" fill="#2F2E41"/>
<path d="M49.3883 41.05C49.8276 41.05 50.1838 40.6938 50.1838 40.2545C50.1838 39.8151 49.8276 39.459 49.3883 39.459C48.9489 39.459 48.5928 39.8151 48.5928 40.2545C48.5928 40.6938 48.9489 41.05 49.3883 41.05Z" fill="#2F2E41"/>
<path d="M53.8961 75.1223C54.3355 75.1223 54.6916 74.7661 54.6916 74.3268C54.6916 73.8874 54.3355 73.5312 53.8961 73.5312C53.4568 73.5312 53.1006 73.8874 53.1006 74.3268C53.1006 74.7661 53.4568 75.1223 53.8961 75.1223Z" fill="#2F2E41"/>
<path d="M41.4263 5.44623L39.8933 4.83249C39.8933 4.83249 43.0987 1.30355 47.5584 1.61043L46.3041 0.229528C46.3041 0.229528 49.3701 -0.997918 52.1574 2.22415C53.6226 3.91791 55.3179 5.90885 56.3747 8.15162H58.0165L57.3313 9.66036L59.7295 11.1691L57.2679 10.8981C57.4146 11.7243 57.4371 12.5678 57.3347 13.4006C57.2291 14.2337 56.804 14.9932 56.149 15.5188C56.149 15.5188 54.2478 11.5835 54.2478 10.9698V12.5041C54.2478 12.5041 52.7148 11.1232 52.7148 10.2026L51.8786 11.2766H46.3041L47.1402 9.89576L43.9349 10.3561L45.1892 8.66829L40.2264 15.6377C40.2264 15.6377 37.3847 7.7477 41.4263 5.44623Z" fill="#2F2E41"/>
<path d="M90.742 64.1109C98.0645 64.1109 104.001 58.1748 104.001 50.8523C104.001 43.5298 98.0645 37.5938 90.742 37.5938C83.4195 37.5938 77.4834 43.5298 77.4834 50.8523C77.4834 58.1748 83.4195 64.1109 90.742 64.1109Z" fill="#3F3D56"/>
<path opacity="0.1" d="M90.7412 62.254C97.0386 62.254 102.144 57.149 102.144 50.8516C102.144 44.5542 97.0386 39.4492 90.7412 39.4492C84.4439 39.4492 79.3389 44.5542 79.3389 50.8516C79.3389 57.149 84.4439 62.254 90.7412 62.254Z" fill="black"/>
<path d="M90.1954 57.5802V55.9206C89.3565 55.9042 88.4886 55.6083 87.9824 55.1976L88.3295 54.0967C88.9311 54.5475 89.6607 54.795 90.4124 54.8032C91.4394 54.8032 92.1336 54.1295 92.1336 53.1929C92.1336 52.2892 91.5695 51.7305 90.4992 51.2376C89.0238 50.5803 88.1126 49.8244 88.1126 48.3949C88.1126 47.0311 88.966 45.9959 90.2967 45.7494V44.0898H91.1935V45.6837C91.8622 45.6929 92.5144 45.8923 93.0738 46.2588L92.7122 47.3433C92.1756 46.976 91.5399 46.7811 90.8897 46.7846C89.776 46.7846 89.3565 47.5404 89.3565 48.1977C89.3565 49.0522 89.8917 49.4794 91.1501 50.071C92.6399 50.7611 93.392 51.6155 93.392 53.0779C93.392 54.376 92.5965 55.592 91.1067 55.8712V57.5802H90.1954Z" fill="#6C63FF"/>
<path opacity="0.2" d="M33.1475 66.9374L38.4502 83.5018L34.2075 66.2656L33.1475 66.9374Z" fill="black"/>
<path d="M6.11163 34.5779H2.74571C2.59901 34.5778 2.45836 34.5194 2.35463 34.4157C2.2509 34.312 2.19255 34.1713 2.19238 34.0246V29.1861C2.19255 29.0394 2.2509 28.8988 2.35463 28.7951C2.45836 28.6913 2.59901 28.633 2.74571 28.6328H6.11163C6.25833 28.633 6.39897 28.6913 6.50271 28.7951C6.60644 28.8988 6.66479 29.0394 6.66495 29.1861V34.0246C6.66479 34.1713 6.60644 34.312 6.50271 34.4157C6.39897 34.5194 6.25833 34.5778 6.11163 34.5779ZM2.74571 28.898C2.66931 28.8981 2.59607 28.9285 2.54206 28.9825C2.48804 29.0365 2.45765 29.1097 2.45755 29.1861V34.0246C2.45765 34.101 2.48804 34.1742 2.54206 34.2283C2.59607 34.2823 2.66931 34.3127 2.74571 34.3128H6.11163C6.18802 34.3127 6.26126 34.2823 6.31528 34.2283C6.3693 34.1742 6.39969 34.101 6.39978 34.0246V29.1861C6.39969 29.1097 6.3693 29.0365 6.31528 28.9825C6.26126 28.9285 6.18802 28.8981 6.11163 28.898H2.74571Z" fill="#3F3D56"/>
<path d="M12.259 34.5775H9.2194C9.02945 34.5772 8.84734 34.5017 8.71302 34.3674C8.57871 34.233 8.50315 34.0509 8.50293 33.861V24.0895C8.50315 23.8996 8.57871 23.7175 8.71302 23.5831C8.84734 23.4488 9.02945 23.3733 9.2194 23.373H12.259C12.449 23.3733 12.6311 23.4488 12.7654 23.5831C12.8997 23.7175 12.9753 23.8996 12.9755 24.0895V33.861C12.9753 34.0509 12.8997 34.233 12.7654 34.3674C12.6311 34.5017 12.449 34.5772 12.259 34.5775ZM9.2194 23.6382C9.09975 23.6383 8.98503 23.6859 8.90043 23.7705C8.81582 23.8551 8.76823 23.9699 8.7681 24.0895V33.861C8.76823 33.9806 8.81582 34.0953 8.90043 34.18C8.98503 34.2646 9.09975 34.3121 9.2194 34.3123H12.259C12.3787 34.3121 12.4934 34.2646 12.578 34.18C12.6626 34.0953 12.7102 33.9806 12.7103 33.861V24.0895C12.7102 23.9699 12.6626 23.8552 12.578 23.7705C12.4934 23.6859 12.3787 23.6384 12.259 23.6382L9.2194 23.6382Z" fill="#3F3D56"/>
<path d="M18.4532 34.578H15.6483C15.4272 34.5778 15.2153 34.4899 15.059 34.3335C14.9026 34.1772 14.8147 33.9653 14.8145 33.7442V19.369C14.8147 19.1479 14.9026 18.936 15.059 18.7797C15.2153 18.6233 15.4272 18.5354 15.6483 18.5352H18.4532C18.6743 18.5354 18.8862 18.6233 19.0425 18.7797C19.1988 18.936 19.2868 19.1479 19.287 19.369V33.7442C19.2868 33.9653 19.1988 34.1772 19.0425 34.3335C18.8862 34.4899 18.6743 34.5778 18.4532 34.578ZM15.6483 18.8003C15.4975 18.8005 15.353 18.8605 15.2464 18.9671C15.1398 19.0737 15.0798 19.2182 15.0796 19.369V33.7442C15.0798 33.895 15.1398 34.0395 15.2464 34.1461C15.353 34.2527 15.4975 34.3127 15.6483 34.3129H18.4532C18.604 34.3127 18.7485 34.2527 18.8551 34.1461C18.9617 34.0395 19.0217 33.895 19.0219 33.7442V19.369C19.0217 19.2182 18.9617 19.0737 18.8551 18.9671C18.7485 18.8605 18.604 18.8005 18.4532 18.8003H15.6483Z" fill="#3F3D56"/>
<path d="M5.69045 29.5547H3.16602V33.6569H5.69045V29.5547Z" fill="#6C63FF"/>
<path d="M12.002 24.3477H9.47754V33.6565H12.002V24.3477Z" fill="#6C63FF"/>
<path d="M18.3125 19.5098H15.7881V33.6571H18.3125V19.5098Z" fill="#6C63FF"/>
<path d="M95.8593 19.3303H78.2254C78.2079 19.3303 78.1907 19.3268 78.1746 19.3202C78.1585 19.3135 78.1439 19.3038 78.1316 19.2914C78.1193 19.2791 78.1095 19.2645 78.1029 19.2484C78.0962 19.2323 78.0928 19.2151 78.0928 19.1977V1.2986C78.0928 1.26344 78.1067 1.22971 78.1316 1.20485C78.1565 1.17998 78.1902 1.16602 78.2254 1.16602C78.2605 1.16602 78.2942 1.17998 78.3191 1.20485C78.344 1.22971 78.3579 1.26344 78.3579 1.2986V19.0651H95.8593C95.8944 19.0651 95.9282 19.0791 95.953 19.1039C95.9779 19.1288 95.9919 19.1625 95.9919 19.1977C95.9919 19.2328 95.9779 19.2666 95.953 19.2914C95.9282 19.3163 95.8944 19.3303 95.8593 19.3303Z" fill="#3F3D56"/>
<path d="M21.0811 36.4347H0.132586C0.115173 36.4347 0.0979306 36.4312 0.0818425 36.4246C0.0657544 36.4179 0.0511359 36.4081 0.0388233 36.3958C0.0265106 36.3835 0.0167446 36.3689 0.0100831 36.3528C0.00342167 36.3367 -4.52458e-06 36.3195 4.48433e-09 36.3021V15.4861C4.48433e-09 15.4509 0.0139687 15.4172 0.0388334 15.3923C0.0636981 15.3675 0.0974219 15.3535 0.132586 15.3535C0.16775 15.3535 0.201474 15.3675 0.226338 15.3923C0.251203 15.4172 0.265172 15.4509 0.265172 15.4861V36.1695H21.0811C21.1163 36.1695 21.15 36.1835 21.1749 36.2083C21.1998 36.2332 21.2137 36.2669 21.2137 36.3021C21.2137 36.3372 21.1998 36.371 21.1749 36.3958C21.15 36.4207 21.1163 36.4347 21.0811 36.4347Z" fill="#3F3D56"/>
<path d="M84.3109 17.6697H80.945C80.7983 17.6696 80.6576 17.6112 80.5539 17.5075C80.4501 17.4038 80.3918 17.2631 80.3916 17.1164V12.2779C80.3918 12.1312 80.4501 11.9906 80.5539 11.8868C80.6576 11.7831 80.7983 11.7248 80.945 11.7246H84.3109C84.4576 11.7248 84.5982 11.7831 84.702 11.8869C84.8057 11.9906 84.864 12.1312 84.8642 12.2779V17.1164C84.864 17.2631 84.8057 17.4037 84.702 17.5075C84.5982 17.6112 84.4576 17.6696 84.3109 17.6697ZM80.945 11.9898C80.8686 11.9899 80.7953 12.0203 80.7413 12.0743C80.6873 12.1283 80.6569 12.2015 80.6568 12.2779V17.1164C80.6569 17.1928 80.6873 17.2661 80.7413 17.3201C80.7953 17.3741 80.8686 17.4045 80.945 17.4046H84.3109C84.3873 17.4045 84.4605 17.3741 84.5145 17.3201C84.5685 17.266 84.5989 17.1928 84.599 17.1164V12.2779C84.5989 12.2015 84.5685 12.1283 84.5145 12.0743C84.4605 12.0203 84.3873 11.9899 84.3109 11.9898H80.945Z" fill="#3F3D56"/>
<path d="M91.2042 17.6678H88.1062C87.924 17.6676 87.7493 17.5951 87.6205 17.4662C87.4916 17.3374 87.4191 17.1627 87.4189 16.9804V8.21657C87.4191 8.03435 87.4916 7.85966 87.6205 7.73081C87.7493 7.60197 87.924 7.5295 88.1062 7.5293H91.2042C91.3865 7.5295 91.5612 7.60197 91.69 7.73081C91.8188 7.85966 91.8913 8.03435 91.8915 8.21657V16.9804C91.8913 17.1627 91.8188 17.3374 91.69 17.4662C91.5612 17.5951 91.3865 17.6676 91.2042 17.6678ZM88.1062 7.79447C87.9943 7.79459 87.887 7.8391 87.8079 7.91823C87.7287 7.99736 87.6842 8.10466 87.6841 8.21657V16.9804C87.6842 17.0924 87.7287 17.1997 87.8079 17.2788C87.887 17.358 87.9943 17.4025 88.1062 17.4026H91.2042C91.3162 17.4025 91.4235 17.358 91.5026 17.2788C91.5817 17.1997 91.6262 17.0924 91.6263 16.9804V8.21657C91.6262 8.10466 91.5817 7.99736 91.5026 7.91823C91.4234 7.8391 91.3162 7.79459 91.2042 7.79447H88.1062Z" fill="#3F3D56"/>
<path d="M83.8301 12.6914H81.3057V16.7936H83.8301V12.6914Z" fill="#6C63FF"/>
<path d="M90.918 8.63086H88.3936V16.5679H90.918V8.63086Z" fill="#6C63FF"/>
<path d="M82.6005 10.3143C83.2595 10.3143 83.7938 9.78003 83.7938 9.12101C83.7938 8.46198 83.2595 7.92773 82.6005 7.92773C81.9415 7.92773 81.4072 8.46198 81.4072 9.12101C81.4072 9.78003 81.9415 10.3143 82.6005 10.3143Z" fill="#6C63FF"/>
<path d="M89.6278 5.80647C90.2869 5.80647 90.8211 5.27222 90.8211 4.61319C90.8211 3.95417 90.2869 3.41992 89.6278 3.41992C88.9688 3.41992 88.4346 3.95417 88.4346 4.61319C88.4346 5.27222 88.9688 5.80647 89.6278 5.80647Z" fill="#6C63FF"/>
</g>
<defs>
<clipPath id="clip0_45_626">
<rect width="104" height="97.2658" fill="white"/>
</clipPath>
</defs>
</svg>
