<svg width="129" height="73" viewBox="0 0 129 73" fill="none" xmlns="http://www.w3.org/2000/svg">
<g clip-path="url(#clip0_43_111)">
<path opacity="0.1" d="M128.51 48.2632C128.517 51.9729 127.502 55.6132 125.576 58.7862C125.576 62.6668 123.763 66.1842 120.822 68.7477C120.086 69.3896 119.294 69.964 118.454 70.4638C118.421 70.4851 118.386 70.5053 118.351 70.5255C118.288 70.5624 118.225 70.5994 118.161 70.6375L118.102 70.6723C115.318 72.2204 112.18 73.0243 108.993 73.006H24.3957C18.5622 73.006 13.2813 70.9794 9.45522 67.7041C5.62911 64.4289 3.27121 59.8959 3.27121 54.8967C1.12871 51.6047 -0.00784936 47.762 4.08033e-05 43.8367C4.08033e-05 32.7241 8.90141 23.7154 19.8832 23.7154C20.2719 23.7154 20.6572 23.7288 21.0403 23.7501C27.9308 12.0255 43.4734 3.84961 61.53 3.84961C72.6309 3.84961 82.7781 6.9377 90.5505 12.0401C93.4947 10.3793 96.8201 9.50844 100.202 9.51241C111.182 9.51241 120.085 18.5211 120.085 29.6338C120.084 30.3369 120.046 31.0395 119.973 31.7388C122.62 33.6083 124.777 36.0854 126.263 38.9614C127.749 41.8373 128.52 45.0276 128.51 48.2632Z" fill="#6C63FF"/>
<path opacity="0.1" d="M46.3944 54.6176C70.7143 54.6176 90.4295 54.0906 90.4295 53.4406C90.4295 52.7906 70.7143 52.2637 46.3944 52.2637C22.0745 52.2637 2.35938 52.7906 2.35938 53.4406C2.35938 54.0906 22.0745 54.6176 46.3944 54.6176Z" fill="#6C63FF"/>
<g opacity="0.7">
<path opacity="0.7" d="M29.993 44.752H15.9512V52.4862H29.993V44.752Z" fill="#65617D"/>
<path opacity="0.1" d="M25.1623 46.0977H20.8936V46.9944H25.1623V46.0977Z" fill="black"/>
<path opacity="0.1" d="M24.6293 46.207H21.4277V46.8796H24.6293V46.207Z" fill="black"/>
<path opacity="0.7" d="M44.2596 44.752H30.2178V52.4862H44.2596V44.752Z" fill="#65617D"/>
<path opacity="0.1" d="M39.4298 46.0977H35.1611V46.9944H39.4298V46.0977Z" fill="black"/>
<path opacity="0.1" d="M38.8949 46.207H35.6934V46.8796H38.8949V46.207Z" fill="black"/>
<path opacity="0.7" d="M29.993 36.793H15.9512V44.5272H29.993V36.793Z" fill="#65617D"/>
<path opacity="0.1" d="M25.1623 38.1367H20.8936V39.0334H25.1623V38.1367Z" fill="black"/>
<path opacity="0.1" d="M24.6293 38.25H21.4277V38.9225H24.6293V38.25Z" fill="black"/>
<path opacity="0.7" d="M44.2596 36.793H30.2178V44.5272H44.2596V36.793Z" fill="#65617D"/>
<path opacity="0.1" d="M39.4298 38.1367H35.1611V39.0334H39.4298V38.1367Z" fill="black"/>
<path opacity="0.1" d="M38.8949 38.25H35.6934V38.9225H38.8949V38.25Z" fill="black"/>
<path opacity="0.7" d="M29.993 28.7227H15.9512V36.4569H29.993V28.7227Z" fill="#65617D"/>
<path opacity="0.1" d="M25.1623 30.0664H20.8936V30.9631H25.1623V30.0664Z" fill="black"/>
<path opacity="0.1" d="M24.6293 30.1797H21.4277V30.8522H24.6293V30.1797Z" fill="black"/>
<path opacity="0.7" d="M44.2596 28.7227H30.2178V36.4569H44.2596V28.7227Z" fill="#65617D"/>
<path opacity="0.1" d="M39.4298 30.0664H35.1611V30.9631H39.4298V30.0664Z" fill="black"/>
<path opacity="0.1" d="M38.8949 30.1797H35.6934V30.8522H38.8949V30.1797Z" fill="black"/>
<path opacity="0.7" d="M44.2596 20.6523H30.2178V28.3866H44.2596V20.6523Z" fill="#65617D"/>
<path opacity="0.1" d="M39.4298 21.9961H35.1611V22.8928H39.4298V21.9961Z" fill="black"/>
<path opacity="0.1" d="M38.8949 22.1094H35.6934V22.7819H38.8949V22.1094Z" fill="black"/>
</g>
<g opacity="0.7">
<path opacity="0.7" d="M58.5262 44.6387H44.4844V52.3729H58.5262V44.6387Z" fill="#65617D"/>
<path opacity="0.1" d="M53.6955 45.9844H49.4268V46.8811H53.6955V45.9844Z" fill="black"/>
<path opacity="0.1" d="M53.1625 46.0938H49.9609V46.7663H53.1625V46.0938Z" fill="black"/>
<path opacity="0.7" d="M72.7928 44.6387H58.751V52.3729H72.7928V44.6387Z" fill="#65617D"/>
<path opacity="0.1" d="M67.963 45.9844H63.6943V46.8811H67.963V45.9844Z" fill="black"/>
<path opacity="0.1" d="M67.4281 46.0938H64.2266V46.7663H67.4281V46.0938Z" fill="black"/>
<path opacity="0.7" d="M58.5262 36.6797H44.4844V44.4139H58.5262V36.6797Z" fill="#65617D"/>
<path opacity="0.1" d="M53.6955 38.0234H49.4268V38.9202H53.6955V38.0234Z" fill="black"/>
<path opacity="0.1" d="M53.1625 38.1367H49.9609V38.8093H53.1625V38.1367Z" fill="black"/>
<path opacity="0.7" d="M72.7928 36.6797H58.751V44.4139H72.7928V36.6797Z" fill="#65617D"/>
<path opacity="0.1" d="M67.963 38.0234H63.6943V38.9202H67.963V38.0234Z" fill="black"/>
<path opacity="0.1" d="M67.4281 38.1367H64.2266V38.8093H67.4281V38.1367Z" fill="black"/>
<path opacity="0.7" d="M58.5262 28.6094H44.4844V36.3436H58.5262V28.6094Z" fill="#65617D"/>
<path opacity="0.1" d="M53.6955 29.9531H49.4268V30.8498H53.6955V29.9531Z" fill="black"/>
<path opacity="0.1" d="M53.1625 30.0664H49.9609V30.739H53.1625V30.0664Z" fill="black"/>
<path opacity="0.7" d="M72.7928 28.6094H58.751V36.3436H72.7928V28.6094Z" fill="#65617D"/>
<path opacity="0.1" d="M67.963 29.9531H63.6943V30.8498H67.963V29.9531Z" fill="black"/>
<path opacity="0.1" d="M67.4281 30.0664H64.2266V30.739H67.4281V30.0664Z" fill="black"/>
<path opacity="0.7" d="M72.7928 20.5391H58.751V28.2733H72.7928V20.5391Z" fill="#65617D"/>
<path opacity="0.1" d="M67.963 21.8828H63.6943V22.7795H67.963V21.8828Z" fill="black"/>
<path opacity="0.1" d="M67.4281 21.9961H64.2266V22.6686H67.4281V21.9961Z" fill="black"/>
</g>
<path opacity="0.1" d="M98.6618 0.0122889C98.6618 0.0122889 89.2044 -0.557131 90.3165 6.0562C90.3165 6.0562 90.0918 7.22531 91.1568 7.75549C91.1568 7.75549 91.1736 7.26566 92.1273 7.43267C92.4669 7.48883 92.8118 7.50539 93.1552 7.48199C93.6191 7.45003 94.0599 7.26825 94.4111 6.96414C94.4111 6.96414 97.07 5.86789 98.1035 1.53223C98.1035 1.53223 98.8685 0.586191 98.8382 0.342955L97.2419 1.02334C97.2419 1.02334 97.7878 2.17227 97.3542 3.12728C97.3542 3.12728 97.3026 1.06482 96.9959 1.10965C96.9341 1.11974 96.1669 1.50758 96.1669 1.50758C96.1669 1.50758 97.1049 3.50839 96.3971 4.96332C96.3971 4.96332 96.6656 2.49733 95.8737 1.65217L94.7503 2.30678C94.7503 2.30678 95.8467 4.37373 95.1031 6.06069C95.1031 6.06069 95.294 3.47364 94.5133 2.46595L93.4956 3.25843C93.4956 3.25843 94.5257 5.29623 93.8977 6.69512C93.8977 6.69512 93.8157 3.68325 93.2754 3.45571C93.2754 3.45571 92.3846 4.24034 92.2487 4.56092C92.2487 4.56092 92.9541 6.04051 92.516 6.82066C92.516 6.82066 92.2475 4.81424 92.0274 4.80303C92.0274 4.80303 91.1399 6.13243 91.0478 7.04484C91.0478 7.04484 91.086 5.68855 91.8128 4.67637C91.8128 4.67637 90.9546 4.82321 90.4535 5.37918C90.4535 5.37918 90.5917 4.43874 92.0318 4.35691C92.0318 4.35691 92.7654 3.3481 92.9608 3.28645C92.9608 3.28645 91.5297 3.16763 90.6614 3.55098C90.6614 3.55098 91.4252 2.66435 93.2237 3.06787L94.2291 2.24849C94.2291 2.24849 92.3441 1.99181 91.5443 2.27539C91.5443 2.27539 92.4643 1.49076 94.4998 2.06354L95.5962 1.41566C95.5962 1.41566 93.9887 1.07042 93.0316 1.19148C93.0316 1.19148 94.0426 0.647842 95.9175 1.23744L96.7038 0.886594C96.7038 0.886594 95.5266 0.655687 95.1817 0.618698C94.8368 0.581708 94.8189 0.487552 94.8189 0.487552C95.5647 0.363451 96.3304 0.448434 97.0307 0.73303C97.0307 0.73303 98.691 0.116533 98.6618 0.0122889Z" fill="#6C63FF"/>
<path opacity="0.1" d="M86.997 1.69308C86.997 1.69308 82.7283 1.43527 83.2282 4.42472C83.2282 4.42472 83.1282 4.95267 83.6068 5.19254C83.6068 5.19254 83.6146 4.96836 84.046 5.0457C84.1992 5.07143 84.355 5.07896 84.5099 5.06812C84.7196 5.0539 84.9188 4.97163 85.0772 4.83385C85.0772 4.83385 86.2792 4.33953 86.7465 2.38019C86.7465 2.38019 87.0914 1.95201 87.0779 1.84216L86.3567 2.14929C86.3567 2.14929 86.6039 2.66939 86.4095 3.10093C86.4095 3.10093 86.3859 2.16834 86.2478 2.19076C86.2197 2.19076 85.8726 2.3701 85.8726 2.3701C85.8726 2.3701 86.2972 3.27467 85.977 3.93264C85.977 3.93264 86.0984 2.81847 85.74 2.43624L85.2323 2.73216C85.2323 2.73216 85.7288 3.66587 85.3918 4.42808C85.3918 4.42808 85.4783 3.25898 85.1255 2.80389L84.6661 3.16146C84.6661 3.16146 85.1312 4.08285 84.8481 4.71503C84.8481 4.71503 84.811 3.35314 84.5661 3.25113C84.5661 3.25113 84.164 3.60534 84.1022 3.75106C84.1022 3.75106 84.4212 4.4236 84.2235 4.77108C84.2235 4.77108 84.1022 3.86427 83.9988 3.86091C83.9988 3.86091 83.5989 4.46171 83.5562 4.86972C83.5763 4.48894 83.6955 4.11996 83.9022 3.79926C83.6708 3.843 83.4572 3.95325 83.2877 4.11647C83.2877 4.11647 83.3507 3.69277 84.0011 3.65466C84.0011 3.65466 84.3381 3.19957 84.4212 3.17155C84.4212 3.17155 83.7742 3.11775 83.3821 3.29149C83.3821 3.29149 83.727 2.8902 84.5403 3.07291L84.9896 2.70301C84.9896 2.70301 84.1381 2.59092 83.7764 2.71534C83.7764 2.71534 84.192 2.36114 85.1121 2.61895L85.6063 2.32415C85.6063 2.32415 84.8806 2.16722 84.447 2.22439C84.447 2.22439 84.9042 1.97779 85.7512 2.24456L86.1051 2.08652C86.1051 2.08652 85.5726 1.98115 85.4165 1.96546C85.2603 1.94977 85.2525 1.90605 85.2525 1.90605C85.5897 1.85007 85.9359 1.88889 86.2522 2.01814C86.2522 2.01814 87.0105 1.74016 86.997 1.69308Z" fill="#6C63FF"/>
<path d="M25.184 72.2705C27.6786 72.2705 29.7009 71.9293 29.7009 71.5083C29.7009 71.0874 27.6786 70.7461 25.184 70.7461C22.6893 70.7461 20.667 71.0874 20.667 71.5083C20.667 71.9293 22.6893 72.2705 25.184 72.2705Z" fill="#6C63FF"/>
<path d="M27.0522 70.2611C27.2584 70.0934 27.4085 69.867 27.4824 69.612C27.5386 69.3554 27.4285 69.0516 27.1814 68.9518C26.905 68.8465 26.6096 69.0381 26.386 69.2309C26.1625 69.4237 25.9052 69.6446 25.6132 69.6031C25.7637 69.4666 25.8763 69.2937 25.9401 69.101C26.0038 68.9084 26.0166 68.7025 25.9771 68.5035C25.9643 68.421 25.9294 68.3435 25.876 68.2793C25.7221 68.1156 25.4447 68.1851 25.2604 68.314C24.6763 68.7243 24.5134 69.5168 24.51 70.2285C24.4516 69.9719 24.5011 69.704 24.4999 69.4439C24.4988 69.1839 24.4258 68.8835 24.2022 68.7456C24.0644 68.6716 23.9094 68.6352 23.7529 68.6402C23.4912 68.6301 23.198 68.657 23.0194 68.8487C22.7947 69.0863 22.8542 69.4854 23.0474 69.7454C23.2407 70.0055 23.5361 70.1725 23.808 70.353C24.0254 70.4823 24.2109 70.659 24.3505 70.8697C24.3674 70.8992 24.3809 70.9303 24.391 70.9627H26.0378C26.4061 70.7756 26.7473 70.5395 27.0522 70.2611Z" fill="#6C63FF"/>
<path d="M80.584 38.3376C80.5748 38.2526 80.5443 38.1714 80.4954 38.1013C80.4466 38.0312 80.3808 37.9744 80.3043 37.9363C80.2398 37.9088 80.1705 37.8947 80.1004 37.8945C80.0303 37.8944 79.9609 37.9084 79.8963 37.9356C79.8318 37.9627 79.7734 38.0026 79.7246 38.0528C79.6758 38.103 79.6376 38.1625 79.6123 38.2277L77.1173 43.4657L76.5557 64.0903H77.4543L77.7913 43.5116L80.5368 38.6626C80.5865 38.5619 80.603 38.4482 80.584 38.3376Z" fill="#3F3D56"/>
<path opacity="0.1" d="M120.823 68.7458C120.087 69.3877 119.294 69.962 118.455 70.4619C118.441 70.4803 118.427 70.4976 118.411 70.5135C118.322 70.5889 118.216 70.6419 118.102 70.6681C115.318 72.2162 112.181 73.0201 108.994 73.0019H47.2302C40.1531 72.2755 35.835 71.3127 35.835 70.2556C35.835 69.4363 38.4276 68.6729 42.8918 68.034C43.3546 67.9668 43.8373 67.9017 44.3398 67.839C44.6491 67.8001 44.9655 67.7628 45.289 67.7269L45.8383 67.663C46.2457 67.6167 46.664 67.5715 47.0931 67.5274H47.1279L47.5773 67.4825C47.957 67.4433 48.3445 67.4063 48.7399 67.3704L49.0275 67.3447L49.761 67.2796C50.2373 67.2371 50.7241 67.1963 51.2214 67.1575C51.634 67.1253 52.0534 67.0932 52.4795 67.0611C56.7999 66.7416 61.7808 66.5006 67.2009 66.3448L68.7489 66.2921L69.2701 66.2809L70.371 66.2563L70.8125 66.2473L71.2764 66.2383L71.6067 66.2327L73.1569 66.2081L73.9534 66.1969H74.1162C75.9997 66.1744 77.9184 66.1629 79.8722 66.1621C83.7343 66.1621 87.4795 66.2081 91.0484 66.2955C93.0974 66.3448 95.0838 66.4076 97.0077 66.4838H97.0257C102.573 66.7013 107.538 67.0218 111.647 67.4198L111.722 67.4276C112.777 67.5296 113.776 67.6383 114.713 67.7504C115.595 67.8558 116.422 67.9668 117.191 68.08C117.457 68.1192 117.715 68.1596 117.967 68.1988L118.031 68.21C119.096 68.3815 120.031 68.5564 120.823 68.7458Z" fill="#6C63FF"/>
<path d="M118.455 70.4628C118.442 70.4812 118.427 70.4984 118.411 70.5143C118.322 70.5898 118.216 70.6428 118.102 70.669C117.875 70.7326 117.641 70.7702 117.406 70.7811H117.335C117.2 70.7856 117.066 70.7811 116.932 70.7677C116.834 70.7535 116.735 70.7472 116.636 70.7486H116.623C116.479 70.7687 116.338 70.8037 116.201 70.8529C115.897 70.936 115.584 70.9804 115.269 70.9851H115.157C114.804 70.9851 114.447 70.9728 114.093 70.975C114.036 70.975 113.981 70.975 113.921 70.975C113.314 70.9907 112.711 71.0871 112.105 71.0972H111.91C111.316 71.0826 110.708 70.956 110.235 70.5973C110.14 70.5344 110.063 70.4479 110.011 70.3462C109.97 70.239 109.957 70.1236 109.971 70.0099C109.983 69.8071 110.022 69.5862 110.175 69.4495C110.271 69.376 110.381 69.323 110.498 69.2937C110.704 69.2275 110.91 69.1637 111.116 69.0998C111.322 69.0359 111.556 68.9675 111.778 68.9025L111.82 68.889L111.944 68.852L112.024 68.8251C112.12 68.7942 112.213 68.752 112.3 68.6996C112.415 68.6272 112.512 68.5304 112.584 68.416C112.597 68.3958 112.61 68.3745 112.621 68.3532C112.633 68.3319 112.621 68.3185 112.613 68.3006C112.594 68.1604 112.58 68.017 112.555 67.8802C112.239 67.8071 111.951 67.6444 111.725 67.4117C111.531 67.2198 111.368 66.9995 111.241 66.7582C110.961 66.2336 110.817 65.6474 110.608 65.0903C110.288 64.2429 109.822 63.4605 109.352 62.6848C108.923 61.9697 108.492 61.2523 108.004 60.5764C107.68 60.128 107.33 59.701 107.009 59.2515C106.1 57.9973 105.448 56.5765 105.09 55.0705C105.036 54.7816 104.958 54.4975 104.858 54.2209C104.665 53.7501 104.311 53.3668 104.037 52.9363C103.742 52.4724 103.54 51.9558 103.442 51.4153C103.386 51.1081 103.292 50.7763 102.985 50.7427L102.953 50.8066C102.317 52.0396 101.664 53.295 100.706 54.3016C100.553 54.4496 100.413 54.6104 100.287 54.7825C100.186 54.9492 100.096 55.1222 100.017 55.3003C99.8657 55.6201 99.6644 55.9141 99.4209 56.1713C99.3485 56.2444 99.2695 56.3108 99.185 56.3697C99.0728 56.4511 98.9479 56.5135 98.8154 56.5546C98.7632 56.5705 98.7099 56.5825 98.6559 56.5905C98.6559 56.6039 98.6615 56.6163 98.6626 56.6297C98.6638 56.6432 98.6694 56.6588 98.6716 56.6734C98.8369 57.5702 98.7661 58.4944 98.4661 59.3557C98.4582 59.3826 98.4492 59.4084 98.4391 59.4353C98.3927 59.5609 98.3421 59.6842 98.2875 59.8052C98.1504 60.1023 97.9875 60.387 97.8595 60.6885C97.8381 60.7401 97.8168 60.7916 97.7977 60.8432C97.3483 62.0437 97.4607 63.3843 97.4023 64.6744C97.3971 64.9565 97.3636 65.2374 97.3023 65.5129C97.2259 65.8234 97.1034 66.1439 97.036 66.4645C96.9746 66.7049 96.9696 66.9561 97.0214 67.1987L96.9945 67.2088C96.8743 67.2536 96.7518 67.294 96.6294 67.3321V67.3489C96.6732 67.6 96.7159 67.8511 96.7597 68.101C96.7968 68.3162 96.8406 68.5494 96.9911 68.7018C97.0321 68.7355 97.0697 68.773 97.1034 68.8139C97.1922 68.9529 97.1136 69.1368 97.1304 69.3015C97.1551 69.5347 97.3708 69.7331 97.3371 69.9651C97.3219 70.0344 97.2901 70.099 97.2443 70.1533C97.1985 70.2076 97.1401 70.25 97.0742 70.2767C97.0189 70.3017 96.9609 70.3201 96.9012 70.3316L96.8642 70.3395C96.7968 70.3518 96.7294 70.3585 96.662 70.3653C95.8251 70.4482 94.977 70.5312 94.1479 70.3899C93.9839 70.3619 93.821 70.3249 93.6548 70.3115C93.4447 70.3021 93.2343 70.3107 93.0257 70.3372C91.4878 70.4825 89.9411 70.5125 88.3987 70.4269C87.9976 70.4045 87.5371 70.3395 87.3247 69.9976C87.1484 69.714 87.2124 69.3475 87.3012 69.0235C87.3266 68.9044 87.3726 68.7906 87.4371 68.6873C87.4443 68.6761 87.4526 68.6656 87.4618 68.6559C87.6685 68.3992 88.0572 68.3835 88.3919 68.3936L89.4861 68.4261C89.5938 68.4348 89.7022 68.4265 89.8073 68.4014C89.9848 68.3499 90.1196 68.2086 90.2859 68.1291C90.4948 68.0293 90.7577 68.017 90.9082 67.8466L90.9273 67.8219C90.9539 67.7858 90.9786 67.7484 91.0015 67.7098C91.0015 67.702 91.0116 67.6941 91.0172 67.6863C91.0213 67.6793 91.0258 67.6726 91.0307 67.6661C91.1688 67.4845 91.4103 67.424 91.6069 67.3086C91.6367 67.2912 91.6649 67.2714 91.6912 67.2491L91.7136 67.229C91.502 67.0783 91.3174 66.893 91.1677 66.6809C91.1099 66.6189 91.0673 66.5445 91.043 66.4634C91.0293 66.4025 91.034 66.3389 91.0565 66.2807C91.0613 66.2664 91.0673 66.2525 91.0745 66.2392L91.0801 66.228C91.1565 66.0778 91.3137 65.9422 91.4002 65.7886C91.4035 65.7837 91.4062 65.7785 91.4081 65.7729C91.5272 65.5487 91.5508 65.2013 91.3744 65.0208C91.4643 63.5446 91.8709 62.1064 91.9608 60.6257C91.9967 60.0395 91.9821 59.451 92.0091 58.8625C92.036 58.2741 92.099 57.7035 92.1652 57.1263C92.3135 55.807 92.673 54.5146 92.6224 53.1897C92.6181 53.0661 92.6234 52.9425 92.6382 52.8197C92.6376 52.8108 92.6376 52.8018 92.6382 52.7928C92.6742 52.5213 92.759 52.2586 92.8887 52.0172C93.0515 51.7444 93.2359 51.485 93.4402 51.2415C94.1311 50.3448 94.9612 49.4481 95.2072 48.3451C95.3342 47.7757 95.615 47.2545 95.8947 46.7422C96.0599 46.4373 96.2317 46.1246 96.4957 45.9004C96.6387 45.8016 96.7715 45.689 96.8923 45.5641C97.0765 45.3265 97.0832 44.9981 97.1922 44.7156C97.2484 44.5688 97.3349 44.4343 97.3775 44.2829C97.3775 44.2673 97.3854 44.2527 97.3888 44.237C97.4137 44.0843 97.4268 43.9299 97.4281 43.7752C97.4281 43.7303 97.4348 43.6866 97.4404 43.6429C97.5061 43.1998 97.6351 42.7683 97.8235 42.3617C97.8471 42.3102 97.8696 42.2575 97.892 42.2059C97.3737 41.9042 96.9165 41.5084 96.544 41.039C96.4177 40.8872 96.3081 40.7222 96.2171 40.547C95.9857 40.0885 95.9329 39.5662 95.824 39.064C95.5633 37.8669 94.9669 36.7393 94.8837 35.5152C94.859 35.142 94.8837 34.7564 94.7534 34.4033C94.7175 34.3078 94.6751 34.215 94.6265 34.1253C94.6063 34.0872 94.5872 34.0491 94.5669 34.0132L94.5445 33.9706L94.4872 33.8585L94.3951 33.9303C92.0969 35.7259 89.6841 37.3703 87.172 38.8533L86.9563 38.9811C86.844 39.0351 86.7462 39.115 86.671 39.2142C86.662 39.2288 86.6541 39.2434 86.6462 39.2579C86.5946 39.3644 86.5811 39.4821 86.5339 39.5942C86.4328 39.8509 86.1733 40.0145 85.9082 40.0908C85.4286 40.2138 84.9199 40.1484 84.4872 39.9081C84.4321 39.88 84.3748 39.8509 84.3254 39.8184C84.194 39.891 84.0555 39.95 83.912 39.9944C83.4627 40.1244 82.992 40.1188 82.527 40.1177C82.0619 40.1165 81.5867 40.1177 81.1464 40.2701C80.852 40.3699 80.5667 40.5346 80.2612 40.5503C80.226 40.5526 80.1907 40.5526 80.1556 40.5503C79.9814 40.5304 79.8119 40.4807 79.6546 40.4035L79.5624 40.362C79.5147 40.3394 79.4682 40.3144 79.4232 40.2869C79.374 40.2566 79.3284 40.2209 79.2872 40.1804C79.2278 40.1209 79.1845 40.0472 79.1614 39.9663C79.1462 39.9079 79.1462 39.8466 79.1614 39.7881C79.1657 39.7619 79.1793 39.7381 79.1996 39.7209C79.2196 39.709 79.2426 39.7032 79.2659 39.7041C79.3947 39.7027 79.5233 39.7135 79.6501 39.7366C79.7245 39.7467 79.7996 39.7509 79.8747 39.7489H79.9152C79.9814 39.7418 80.0455 39.7212 80.1035 39.6884C80.1614 39.6557 80.212 39.6114 80.2522 39.5583C80.2645 39.5419 80.2743 39.5238 80.2814 39.5045C80.295 39.473 80.3019 39.4391 80.3016 39.4048C80.3022 39.3962 80.3022 39.3876 80.3016 39.379C80.2544 39.3577 80.2072 39.3364 80.1623 39.3106C80.1387 39.2983 80.1163 39.2848 80.0938 39.2714L80.0803 39.2624C80.04 39.235 80.0024 39.2039 79.968 39.1694C79.9461 39.1478 79.9269 39.1237 79.9107 39.0976C79.8809 39.057 79.8584 39.0115 79.8444 38.9631C79.7518 38.9438 79.656 38.9465 79.5647 38.971C79.4423 39.0046 79.3187 39.0763 79.1974 39.101C79.1361 39.1164 79.0717 39.1136 79.012 39.0932C78.8368 39.0304 78.775 38.8174 78.7379 38.6347C78.7312 38.6 78.7233 38.5641 78.7177 38.5282C78.7048 38.4593 78.7048 38.3886 78.7177 38.3197C78.772 38.1631 78.8756 38.0282 79.0131 37.9353L79.3816 37.627L79.4085 37.6046C79.4085 37.5743 79.3962 37.5441 79.3917 37.5138C79.3788 37.4445 79.3788 37.3735 79.3917 37.3042C79.446 37.1479 79.5497 37.0134 79.6871 36.9208L80.5027 36.236C80.6555 36.1082 80.8217 35.9737 81.0205 35.9602C81.316 35.9401 81.5519 36.1844 81.7732 36.3806C82.0518 36.6272 82.3899 36.8289 82.7617 36.8536C82.9388 36.8617 83.1158 36.8374 83.2841 36.7819L83.3796 36.7505C83.3593 36.709 83.3391 36.6675 83.32 36.6261C83.2875 36.5577 83.2549 36.4882 83.2234 36.4187C83.702 36.3884 84.1367 36.1261 84.4995 35.8123C84.8624 35.4984 85.1735 35.1274 85.5398 34.8192C85.9352 34.4829 86.389 34.2329 86.79 33.909C87.7224 33.1546 88.3414 32.046 89.3389 31.3813C89.6849 31.1493 90.0848 30.9644 90.3207 30.6191C90.3937 30.507 90.4488 30.3949 90.524 30.2829C90.7633 29.9466 91.1733 29.7919 91.5114 29.5588C91.8496 29.3256 92.1439 28.9837 92.4191 28.6553C92.6146 28.421 92.8112 28.1868 92.9976 27.9458C93.1695 27.6263 93.3144 27.2923 93.4942 26.9773C93.6467 26.7112 93.8246 26.4605 94.0255 26.2285C94.0715 26.1389 94.1187 26.0492 94.1693 25.9618C94.2198 25.8743 94.2569 25.8149 94.3041 25.7376C94.3367 25.6871 94.3704 25.639 94.4052 25.5896C94.303 25.4092 94.2052 25.2534 94.1592 25.185L94.1367 25.1547C94.0376 25.0494 93.9318 24.9505 93.8199 24.8588C93.7025 24.8411 93.5862 24.8163 93.4717 24.7848C92.7784 24.5952 92.1668 24.1834 91.7312 23.6128C91.2956 23.0422 91.0601 22.3445 91.061 21.6272C91.0604 21.6239 91.0604 21.6205 91.061 21.6171C91.0614 21.1035 91.1838 20.5972 91.4182 20.1398C91.4654 20.0479 91.5159 19.9593 91.571 19.873C91.5196 19.8568 91.4697 19.8366 91.4216 19.8125C91.3396 19.7722 91.2681 19.7135 91.2126 19.641C91.1669 19.5764 91.1372 19.5019 91.1261 19.4235C91.1071 19.2388 91.1349 19.0522 91.207 18.881C91.2377 18.7986 91.2726 18.7178 91.3115 18.6389C91.3145 18.6343 91.3172 18.6294 91.3194 18.6243C91.8215 17.6155 92.892 16.9957 93.9615 16.9519C95.1151 16.906 96.2385 17.4463 97.1484 18.2197C97.4199 18.442 97.6629 18.6969 97.8718 18.9785C98.347 19.6376 98.5616 20.4806 98.6245 21.3156C98.6481 21.5739 98.6436 21.834 98.611 22.0913C98.5991 22.183 98.5803 22.2737 98.5548 22.3625C98.5402 22.4152 98.5211 22.4679 98.5009 22.5206C98.4807 22.5733 98.4683 22.5968 98.4503 22.6327V22.6383C98.4335 22.6742 98.4144 22.7078 98.3953 22.7414L98.3852 22.756L98.3706 22.7795C98.3796 22.8008 98.3897 22.8232 98.3998 22.8445C98.4099 22.8658 98.4189 22.886 98.4301 22.9062H98.4436C98.6683 22.9241 98.8761 22.9555 99.1052 22.9734C99.213 22.9785 99.32 22.9951 99.4243 23.0228C99.6489 23.09 99.8186 23.2537 100.007 23.3859C100.475 23.7155 101.05 23.869 101.509 24.2098C102.183 24.712 102.52 25.5414 102.929 26.2846C103.468 27.28 104.347 28.1274 104.734 29.1922C104.91 29.6757 105.086 30.1584 105.262 30.6404C105.607 31.5853 105.952 32.5347 106.42 33.4259C107.072 34.6656 107.954 35.7798 108.476 37.0823C108.528 37.2128 108.625 37.3203 108.75 37.3849C109.462 38.3878 110.095 39.4443 110.643 40.5447C110.932 41.1265 111.205 41.7306 111.289 42.3752C111.355 42.949 111.307 43.5301 111.149 44.0857C111.059 44.4157 110.949 44.7399 110.819 45.0564C110.769 45.1672 110.731 45.2834 110.707 45.4027C110.707 45.4151 110.707 45.4274 110.707 45.4397C110.685 45.6549 110.767 45.8679 110.789 46.0831C110.808 46.2564 110.788 46.4316 110.732 46.5965C110.723 46.6223 110.713 46.6481 110.703 46.6738C110.633 46.8049 110.574 46.9413 110.526 47.0818C110.522 47.0988 110.519 47.116 110.517 47.1334C110.48 47.3766 110.577 47.6221 110.63 47.8654C110.827 48.7441 110.791 49.6588 110.742 50.5555C110.716 51.0039 111.079 51.3637 111.382 51.6944C111.944 52.3142 112.383 53.0394 112.807 53.7613C113.038 54.1278 113.232 54.516 113.387 54.9203C113.548 55.3821 113.612 55.8709 113.701 56.3495C113.987 57.8291 114.923 59.136 115.177 60.619C115.295 61.2981 115.595 61.9326 116.045 62.455C116.181 62.595 116.306 62.7448 116.419 62.9034C116.498 63.0298 116.56 63.1653 116.605 63.3069C116.715 63.6366 116.767 63.9829 116.759 64.3303C116.741 64.4966 116.75 64.6647 116.787 64.828C116.892 65.1721 117.27 65.3615 117.426 65.6855C117.582 66.0094 117.474 66.4242 117.538 66.7918C117.588 67.0882 117.749 67.3548 117.988 67.5383C117.898 67.6168 117.803 67.6885 117.707 67.7625C117.796 67.8318 117.874 67.9142 117.939 68.0069C117.983 68.069 118.021 68.1354 118.052 68.2053C118.2 68.5494 118.204 68.9585 118.326 69.3262C118.377 69.4786 118.45 69.64 118.405 69.7947C118.386 69.839 118.373 69.8858 118.367 69.9337C118.367 70.0346 118.473 70.1007 118.513 70.1926C118.528 70.2388 118.53 70.2881 118.52 70.3355C118.51 70.3829 118.487 70.4267 118.455 70.4628Z" fill="url(#paint0_linear_43_111)"/>
<path d="M94.6796 26.7485C95.3671 26.5636 95.9793 26.1769 96.5792 25.7946L98.6697 24.4664C98.1024 24.4215 97.6126 24.018 97.3217 23.5293C97.0308 23.0406 96.9106 22.4723 96.8117 21.9141C95.913 22.2638 95.1346 22.8567 94.4089 23.4833C94.1213 23.7311 93.5102 24.1054 93.4215 24.4921C93.3327 24.8789 93.8989 25.1927 94.1179 25.4516C94.1932 25.538 94.902 26.6869 94.6796 26.7485Z" fill="#A0616A"/>
<path opacity="0.1" d="M94.6796 26.7485C95.3671 26.5636 95.9793 26.1769 96.5792 25.7946L98.6697 24.4664C98.1024 24.4215 97.6126 24.018 97.3217 23.5293C97.0308 23.0406 96.9106 22.4723 96.8117 21.9141C95.913 22.2638 95.1346 22.8567 94.4089 23.4833C94.1213 23.7311 93.5102 24.1054 93.4215 24.4921C93.3327 24.8789 93.8989 25.1927 94.1179 25.4516C94.1932 25.538 94.902 26.6869 94.6796 26.7485Z" fill="black"/>
<path d="M83.2569 37.7203C82.8884 37.9086 82.4964 38.1014 82.0841 38.0745C81.7134 38.0509 81.3753 37.8503 81.0967 37.6048C80.872 37.4098 80.6406 37.1665 80.3452 37.1867C80.1475 37.2002 79.9812 37.3336 79.8284 37.4602L79.014 38.1406C78.8769 38.2326 78.7733 38.3662 78.7186 38.5217C78.7025 38.6272 78.709 38.735 78.7377 38.8378C78.7747 39.0194 78.8365 39.2313 79.0118 39.2929C79.187 39.3546 79.378 39.2223 79.5633 39.1718C79.6765 39.143 79.7955 39.1451 79.9076 39.1781C80.0197 39.211 80.1208 39.2735 80.2003 39.359C80.2665 39.424 80.3064 39.5109 80.3126 39.6034C80.3126 39.8063 80.0879 39.9397 79.8812 39.9497C79.6745 39.9598 79.4768 39.8926 79.2724 39.9049C79.26 39.9034 79.2475 39.9043 79.2355 39.9076C79.2235 39.911 79.2124 39.9167 79.2026 39.9244C79.1929 39.9321 79.1848 39.9417 79.1788 39.9526C79.1729 39.9635 79.1692 39.9755 79.1679 39.9879C79.1552 40.0587 79.1606 40.1315 79.1836 40.1997C79.2065 40.2679 79.2464 40.3292 79.2993 40.3779C79.4061 40.4751 79.5303 40.5512 79.6655 40.6021C79.8227 40.6796 79.9923 40.729 80.1666 40.7478C80.5114 40.7703 80.8282 40.5797 81.1551 40.4687C81.5954 40.3208 82.0695 40.3163 82.5346 40.3174C82.9996 40.3185 83.4714 40.3253 83.9174 40.1952C84.3634 40.0652 84.7869 39.7771 84.961 39.3478C84.9815 39.3078 84.9882 39.2621 84.9801 39.2178C84.9627 39.1706 84.9293 39.1309 84.8857 39.1057C84.2589 38.6428 84.005 38.0801 83.2996 37.7472L83.2569 37.7203Z" fill="#A0616A"/>
<path opacity="0.1" d="M83.2569 37.7203C82.8884 37.9086 82.4964 38.1014 82.0841 38.0745C81.7134 38.0509 81.3753 37.8503 81.0967 37.6048C80.872 37.4098 80.6406 37.1665 80.3452 37.1867C80.1475 37.2002 79.9812 37.3336 79.8284 37.4602L79.014 38.1406C78.8769 38.2326 78.7733 38.3662 78.7186 38.5217C78.7025 38.6272 78.709 38.735 78.7377 38.8378C78.7747 39.0194 78.8365 39.2313 79.0118 39.2929C79.187 39.3546 79.378 39.2223 79.5633 39.1718C79.6765 39.143 79.7955 39.1451 79.9076 39.1781C80.0197 39.211 80.1208 39.2735 80.2003 39.359C80.2665 39.424 80.3064 39.5109 80.3126 39.6034C80.3126 39.8063 80.0879 39.9397 79.8812 39.9497C79.6745 39.9598 79.4768 39.8926 79.2724 39.9049C79.26 39.9034 79.2475 39.9043 79.2355 39.9076C79.2235 39.911 79.2124 39.9167 79.2026 39.9244C79.1929 39.9321 79.1848 39.9417 79.1788 39.9526C79.1729 39.9635 79.1692 39.9755 79.1679 39.9879C79.1552 40.0587 79.1606 40.1315 79.1836 40.1997C79.2065 40.2679 79.2464 40.3292 79.2993 40.3779C79.4061 40.4751 79.5303 40.5512 79.6655 40.6021C79.8227 40.6796 79.9923 40.729 80.1666 40.7478C80.5114 40.7703 80.8282 40.5797 81.1551 40.4687C81.5954 40.3208 82.0695 40.3163 82.5346 40.3174C82.9996 40.3185 83.4714 40.3253 83.9174 40.1952C84.3634 40.0652 84.7869 39.7771 84.961 39.3478C84.9815 39.3078 84.9882 39.2621 84.9801 39.2178C84.9627 39.1706 84.9293 39.1309 84.8857 39.1057C84.2589 38.6428 84.005 38.0801 83.2996 37.7472L83.2569 37.7203Z" fill="black"/>
<path d="M96.4103 25.7648C96.236 25.6526 96.0382 25.5818 95.8322 25.5579C95.6261 25.534 95.4173 25.5576 95.2218 25.627C94.8305 25.7676 94.4793 26.0011 94.1985 26.3073C93.9181 26.5926 93.6754 26.9124 93.4762 27.259C93.2852 27.5953 93.1392 27.9472 92.9482 28.2824C92.6112 28.8821 92.1708 29.4111 91.7282 29.9357C91.453 30.2619 91.1744 30.5926 90.8217 30.8324C90.469 31.0723 90.0747 31.2191 89.8354 31.5521C89.7601 31.6574 89.7062 31.7762 89.6321 31.8827C89.3973 32.2257 88.9985 32.4095 88.6514 32.6393C87.6561 33.3007 87.0372 34.4014 86.107 35.1513C85.706 35.4741 85.2533 35.7274 84.859 36.057C84.4917 36.363 84.185 36.7295 83.8188 37.0434C83.4526 37.3572 83.0223 37.6161 82.5449 37.6453C82.864 38.3548 83.2448 39.0509 83.7918 39.6035C84.3389 40.1561 85.1589 40.5092 85.906 40.2929C86.1711 40.2166 86.4306 40.0552 86.5317 39.7997C86.5635 39.6683 86.6079 39.5403 86.6642 39.4174C86.7393 39.3188 86.8367 39.2393 86.9484 39.1854C89.9472 37.4388 92.8057 35.4627 95.4982 33.2749C96.2205 32.6875 96.9372 32.1618 97.6786 31.5935C97.9444 31.4054 98.1902 31.1906 98.4121 30.9524C98.7213 30.5839 98.9145 30.1325 98.9672 29.6548C99.02 29.1772 98.9301 28.6946 98.7087 28.2678C98.5099 27.9413 98.2821 27.6333 98.028 27.3475C97.5657 26.747 97.0211 26.2142 96.4103 25.7648Z" fill="#6C63FF"/>
<path opacity="0.1" d="M96.4103 25.7648C96.236 25.6526 96.0382 25.5818 95.8322 25.5579C95.6261 25.534 95.4173 25.5576 95.2218 25.627C94.8305 25.7676 94.4793 26.0011 94.1985 26.3073C93.9181 26.5926 93.6754 26.9124 93.4762 27.259C93.2852 27.5953 93.1392 27.9472 92.9482 28.2824C92.6112 28.8821 92.1708 29.4111 91.7282 29.9357C91.453 30.2619 91.1744 30.5926 90.8217 30.8324C90.469 31.0723 90.0747 31.2191 89.8354 31.5521C89.7601 31.6574 89.7062 31.7762 89.6321 31.8827C89.3973 32.2257 88.9985 32.4095 88.6514 32.6393C87.6561 33.3007 87.0372 34.4014 86.107 35.1513C85.706 35.4741 85.2533 35.7274 84.859 36.057C84.4917 36.363 84.185 36.7295 83.8188 37.0434C83.4526 37.3572 83.0223 37.6161 82.5449 37.6453C82.864 38.3548 83.2448 39.0509 83.7918 39.6035C84.3389 40.1561 85.1589 40.5092 85.906 40.2929C86.1711 40.2166 86.4306 40.0552 86.5317 39.7997C86.5635 39.6683 86.6079 39.5403 86.6642 39.4174C86.7393 39.3188 86.8367 39.2393 86.9484 39.1854C89.9472 37.4388 92.8057 35.4627 95.4982 33.2749C96.2205 32.6875 96.9372 32.1618 97.6786 31.5935C97.9444 31.4054 98.1902 31.1906 98.4121 30.9524C98.7213 30.5839 98.9145 30.1325 98.9672 29.6548C99.02 29.1772 98.9301 28.6946 98.7087 28.2678C98.5099 27.9413 98.2821 27.6333 98.028 27.3475C97.5657 26.747 97.0211 26.2142 96.4103 25.7648Z" fill="black"/>
<path d="M91.5835 67.3464C91.387 67.4585 91.1454 67.5213 91.0073 67.7028C90.9623 67.7611 90.932 67.8295 90.8837 67.8856C90.7343 68.0604 90.4692 68.0683 90.2614 68.168C90.0951 68.2465 89.9603 68.3922 89.7839 68.4382C89.6784 68.4632 89.5696 68.4715 89.4615 68.4628L88.3696 68.4303C88.0237 68.4202 87.6181 68.4382 87.4171 68.7195C87.3517 68.8226 87.3053 68.9365 87.28 69.0558C87.1958 69.3775 87.1272 69.7418 87.3036 70.0242C87.5148 70.3605 87.9776 70.4289 88.3764 70.4513C89.917 70.5363 91.4617 70.5064 92.9978 70.3616C93.2056 70.3351 93.4154 70.3265 93.6247 70.3358C93.7909 70.3493 93.9538 70.3863 94.1178 70.4143C94.9457 70.5544 95.7927 70.4726 96.6285 70.3896C96.7697 70.3829 96.9089 70.3533 97.0407 70.3022C97.1063 70.2755 97.1644 70.2333 97.21 70.1792C97.2556 70.1251 97.2873 70.0608 97.3025 69.9917C97.3373 69.7608 97.1205 69.5647 97.0969 69.3326C97.0801 69.169 97.1587 68.9863 97.0688 68.8473C97.0352 68.8063 96.9976 68.7688 96.9565 68.7352C96.806 68.5794 96.7621 68.3518 96.7251 68.1389L96.5285 66.9877C96.523 66.9066 96.4897 66.8298 96.4341 66.7702C96.3928 66.7406 96.3451 66.721 96.2948 66.7131C95.4388 66.5203 94.5615 66.6963 93.7111 66.8039C93.2735 66.8679 92.8308 66.89 92.389 66.87C92.198 66.8577 92.1239 66.8353 91.9812 66.9597C91.8385 67.0841 91.7621 67.2422 91.5835 67.3464Z" fill="#3F3D56"/>
<path d="M112.254 68.7323C112.104 68.8161 111.943 68.8791 111.775 68.9195C111.334 69.048 110.894 69.1822 110.454 69.3219C110.337 69.3508 110.228 69.4035 110.132 69.4766C109.979 69.6111 109.94 69.8308 109.929 70.037C109.914 70.1507 109.927 70.2661 109.968 70.3733C110.021 70.4738 110.098 70.5594 110.193 70.6222C110.696 71.0021 111.353 71.1198 111.984 71.1198C112.616 71.1198 113.242 71.0134 113.874 70.9965C114.636 70.9764 115.419 71.084 116.153 70.871C116.293 70.8194 116.438 70.784 116.587 70.7656C116.685 70.7641 116.783 70.7705 116.881 70.7847C117.274 70.8235 117.672 70.7874 118.051 70.6782C118.166 70.6529 118.272 70.6002 118.361 70.5246C118.406 70.4865 118.437 70.4358 118.452 70.3794C118.467 70.323 118.464 70.2635 118.445 70.2085C118.404 70.1178 118.301 70.0516 118.3 69.9519C118.305 69.9039 118.317 69.8571 118.337 69.8129C118.383 69.6593 118.309 69.499 118.257 69.3477C118.112 68.915 118.136 68.4173 117.876 68.0418C117.617 67.6663 117.14 67.5116 116.688 67.4522C116.32 67.4004 115.946 67.411 115.581 67.4836C115.171 67.5711 114.788 67.7538 114.386 67.8703C113.919 68.0043 113.432 68.0503 112.948 68.006C112.627 67.9791 112.737 68.0295 112.628 68.2985C112.551 68.4779 112.42 68.6293 112.254 68.7323Z" fill="#3F3D56"/>
<path d="M94.3055 25.1926C96.1047 25.1926 97.5632 23.7373 97.5632 21.942C97.5632 20.1468 96.1047 18.6914 94.3055 18.6914C92.5064 18.6914 91.0479 20.1468 91.0479 21.942C91.0479 23.7373 92.5064 25.1926 94.3055 25.1926Z" fill="#A0616A"/>
<path d="M117.922 67.5716C116.911 68.438 115.546 68.8169 114.215 68.8303C113.653 68.8359 113.07 68.7754 112.592 68.4851C112.558 68.3013 112.544 68.1029 112.511 67.919C111.93 67.798 111.479 67.3261 111.199 66.8038C110.918 66.2814 110.775 65.7008 110.566 65.1471C110.247 64.3041 109.78 63.5273 109.312 62.7562C108.883 62.0455 108.453 61.3326 107.964 60.6612C107.641 60.2128 107.29 59.7914 106.97 59.3441C106.063 58.0992 105.412 56.6873 105.055 55.1901C105 54.9029 104.923 54.6207 104.822 54.346C104.629 53.8775 104.275 53.4964 104.002 53.0693C103.708 52.6085 103.506 52.0949 103.408 51.5572C103.353 51.2523 103.259 50.9228 102.952 50.8914C102.307 52.1412 101.65 53.4112 100.675 54.4279C100.522 54.5746 100.382 54.7344 100.256 54.9054C100.155 55.0714 100.065 55.2436 99.9865 55.421C99.8352 55.7391 99.6343 56.0312 99.3911 56.2863C99.1873 56.5039 98.9186 56.6501 98.625 56.7033C98.8416 57.7803 98.7126 58.8981 98.2565 59.8979C98.1206 60.1938 97.9577 60.4762 97.8297 60.7755C97.3062 62.0085 97.4275 63.3996 97.3724 64.7368C97.3677 65.017 97.3345 65.2961 97.2736 65.5696C97.1377 66.1166 96.8568 66.6984 96.9928 67.2454C95.5841 67.7823 94.0193 67.7487 92.5275 67.5223C92.2357 67.4956 91.9524 67.4098 91.6951 67.27C91.4835 67.1206 91.2989 66.9364 91.1491 66.7253C91.0914 66.6638 91.0487 66.5897 91.0244 66.509C90.966 66.2534 91.2491 66.0606 91.3805 65.8364C91.512 65.6122 91.5356 65.2569 91.3547 65.0731C91.4446 63.6058 91.8512 62.1733 91.9411 60.7016C91.977 60.1187 91.9624 59.5336 91.9894 58.9496C92.0164 58.3656 92.0793 57.7973 92.1444 57.2234C92.2927 55.913 92.6522 54.6285 92.6016 53.3114C92.5862 52.9061 92.6797 52.504 92.8723 52.1468C93.0347 51.8754 93.2188 51.6175 93.4228 51.3756C94.1125 50.4868 94.9415 49.5956 95.1875 48.4983C95.3145 47.9322 95.5953 47.4144 95.8739 46.9055C96.039 46.6017 96.2109 46.2912 96.4738 46.0681C96.6168 45.9694 96.7496 45.8568 96.8703 45.7319C97.0545 45.4954 97.0613 45.1714 97.1702 44.889C97.2264 44.7432 97.3129 44.6087 97.3545 44.4585C97.3887 44.2926 97.4057 44.1236 97.405 43.9541C97.441 43.4116 97.6499 42.887 97.8701 42.3905C97.3523 42.0913 96.8951 41.6982 96.5221 41.2315C96.3968 41.0799 96.2876 40.9157 96.1963 40.7416C95.9649 40.2865 95.9121 39.7676 95.8031 39.2687C95.5436 38.0784 94.9471 36.9586 94.864 35.7424C94.8393 35.3714 94.864 34.988 94.7348 34.6372C94.6752 34.4887 94.6054 34.3445 94.5259 34.2056C94.4476 34.0692 94.3879 33.9229 94.3484 33.7707C94.2765 33.4401 94.3754 33.0982 94.3484 32.7619C94.3215 32.4649 94.1945 32.1869 94.1316 31.8966C94.0674 31.5188 94.0564 31.134 94.099 30.7532C94.1271 30.3049 94.2248 29.842 94.1866 29.3992C94.1247 28.6666 94.2183 27.9291 94.4612 27.235C94.7041 26.5408 95.0909 25.9056 95.5964 25.3707L95.6223 25.3449C95.8368 25.1207 96.0716 24.9223 96.2648 24.6847C96.5277 24.3663 96.7142 23.992 96.9916 23.6826C97.113 23.5447 97.25 23.4214 97.3702 23.2824C97.4804 23.1366 97.6026 23.0002 97.7353 22.8744C97.8024 22.8122 97.8838 22.7673 97.9723 22.7437C98.0608 22.72 98.1537 22.7184 98.243 22.7388C98.2656 22.9059 98.3181 23.0677 98.3981 23.2163C98.6317 23.2342 98.8395 23.2667 99.0721 23.2847C99.1799 23.2898 99.2868 23.3063 99.3911 23.334C99.6102 23.4001 99.7854 23.5582 99.973 23.6938C100.44 24.0222 101.014 24.1747 101.474 24.5132C102.148 25.012 102.485 25.8358 102.891 26.5745C103.43 27.5643 104.307 28.4061 104.689 29.4642L105.216 30.9034C105.56 31.8428 105.905 32.7854 106.373 33.671C107.023 34.9039 107.904 36.0148 108.426 37.3049C108.478 37.4343 108.575 37.5409 108.699 37.6053C109.41 38.6007 110.042 39.6501 110.59 40.7439C110.878 41.3222 111.151 41.923 111.235 42.5631C111.357 43.4677 111.11 44.3823 110.766 45.2275C110.711 45.3485 110.673 45.4768 110.654 45.6086C110.631 45.8227 110.713 46.0334 110.736 46.2475C110.757 46.4474 110.728 46.6496 110.649 46.8349C110.579 46.965 110.52 47.1008 110.473 47.2406C110.412 47.4984 110.52 47.7607 110.578 48.0185C110.776 48.8917 110.74 49.7963 110.691 50.6908C110.665 51.1391 111.028 51.4944 111.33 51.8229C111.892 52.4382 112.33 53.1579 112.753 53.8764C112.984 54.2408 113.178 54.6267 113.333 55.0287C113.494 55.4871 113.558 55.9725 113.646 56.4488C113.932 57.9184 114.866 59.2175 115.12 60.6915C115.238 61.3667 115.538 61.9972 115.987 62.5152C116.123 62.6553 116.248 62.8051 116.361 62.9635C116.439 63.0893 116.501 63.224 116.546 63.3648C116.656 63.6921 116.708 64.0362 116.7 64.3815C116.682 64.5467 116.691 64.7137 116.728 64.8758C116.833 65.2177 117.211 65.406 117.366 65.7277C117.521 66.0494 117.414 66.4619 117.478 66.8273C117.526 67.1224 117.685 67.3883 117.922 67.5716Z" fill="#6C63FF"/>
<path d="M83.9297 36.7105C83.5613 36.8988 83.1692 37.0916 82.757 37.0647C82.3863 37.0412 82.0481 36.8405 81.7695 36.5951C81.5449 36.4 81.3135 36.1568 81.018 36.177C80.8203 36.1904 80.6541 36.3238 80.5013 36.4505L79.6869 37.1308C79.5498 37.2228 79.4462 37.3565 79.3914 37.512C79.3753 37.6175 79.3818 37.7252 79.4105 37.8281C79.4476 38.0096 79.5094 38.2215 79.6846 38.2831C79.8599 38.3448 80.0508 38.2125 80.2362 38.1621C80.3494 38.1332 80.4683 38.1353 80.5804 38.1683C80.6925 38.2012 80.7937 38.2638 80.8731 38.3493C80.9393 38.4142 80.9793 38.5012 80.9854 38.5936C80.9854 38.7965 80.7608 38.9299 80.5541 38.94C80.3474 38.9501 80.1497 38.8828 79.9452 38.8951C79.9329 38.8936 79.9204 38.8945 79.9084 38.8979C79.8964 38.9012 79.8852 38.9069 79.8755 38.9146C79.8657 38.9224 79.8576 38.932 79.8517 38.9429C79.8457 38.9538 79.842 38.9657 79.8408 38.9781C79.8281 39.0489 79.8335 39.1217 79.8564 39.1899C79.8794 39.2581 79.9192 39.3194 79.9722 39.3682C80.0789 39.4654 80.2032 39.5415 80.3384 39.5924C80.4955 39.6699 80.6651 39.7192 80.8394 39.7381C81.1843 39.7605 81.5011 39.5699 81.828 39.459C82.2683 39.311 82.7424 39.3065 83.2074 39.3076C83.6725 39.3088 84.1443 39.3155 84.5903 39.1855C85.0362 39.0554 85.4597 38.7674 85.6338 38.3381C85.6544 38.298 85.6611 38.2523 85.6529 38.208C85.6356 38.1608 85.6022 38.1212 85.5586 38.0959C84.9318 37.633 84.6779 37.0703 83.9724 36.7374L83.9297 36.7105Z" fill="#A0616A"/>
<path d="M92.7193 19.9452C92.525 19.9766 92.3598 20.1078 92.1756 20.1806C92.052 20.2286 91.9195 20.2497 91.7871 20.2428C91.6546 20.2358 91.5252 20.2009 91.4072 20.1403C91.325 20.1004 91.2531 20.0421 91.1972 19.9699C91.0467 19.7614 91.0994 19.4588 91.1916 19.2144C91.6274 18.0588 92.7912 17.3436 93.9437 17.2977C95.0963 17.2517 96.2174 17.7886 97.1262 18.5564C97.3965 18.778 97.639 19.0313 97.8485 19.3108C98.3225 19.9665 98.5371 20.8039 98.6 21.6333C98.6376 21.9814 98.6144 22.3334 98.5315 22.6735C98.4916 22.8388 98.4187 22.9944 98.3172 23.131C98.2157 23.2675 98.0876 23.3822 97.9406 23.4682C97.6193 23.6319 97.234 23.5803 96.9094 23.4234C96.5847 23.2665 96.3061 23.0188 96.0276 22.7822C95.9013 22.6608 95.752 22.5659 95.5883 22.5031C95.5067 22.4741 95.4184 22.4693 95.3341 22.4892C95.2498 22.5091 95.1731 22.5528 95.1132 22.6152C94.9626 22.7957 95.0008 23.0916 94.8638 23.2878C94.7267 23.4839 94.4414 23.512 94.201 23.512C93.9606 23.512 93.7168 23.4918 93.573 23.3012C93.4416 23.1286 93.4607 22.8764 93.5101 22.6589C93.5596 22.4415 93.6438 22.2263 93.6225 22.0032C93.5764 21.5549 93.1832 21.2791 93.0608 20.8666C92.981 20.5965 93.1563 20.4822 93.1383 20.2378C93.1248 20.0226 92.8934 19.9172 92.7193 19.9452Z" fill="#3F3D56"/>
<path opacity="0.1" d="M102.954 50.8624V50.8904C102.31 52.1402 101.652 53.4102 100.677 54.4269C100.524 54.5736 100.384 54.7334 100.258 54.9044C100.158 55.0704 100.068 55.2426 99.9887 55.42C99.8375 55.7381 99.6365 56.0302 99.3934 56.2853L98.5801 56.6911L101.164 43.2402L102.954 50.8624Z" fill="black"/>
<path opacity="0.1" d="M99.1986 30.5048C98.9766 30.743 98.7308 30.9578 98.465 31.146C97.7236 31.7064 97.0047 32.2355 96.2846 32.8273C95.7042 33.2989 95.1156 33.7607 94.5187 34.2128C94.4404 34.0763 94.3807 33.9301 94.3412 33.7779C94.2693 33.4472 94.3682 33.1053 94.3412 32.769C94.3143 32.472 94.1873 32.194 94.1244 31.9037C94.0602 31.526 94.0492 31.1412 94.0918 30.7604C94.1199 30.312 94.2177 29.8491 94.1795 29.4063C94.1173 28.6719 94.2114 27.9327 94.4555 27.2371C94.6996 26.5415 95.0883 25.9052 95.596 25.37L95.6218 25.3442C95.7427 25.274 95.8708 25.2169 96.0038 25.1738C96.1996 25.1053 96.4087 25.0826 96.6148 25.1074C96.8208 25.1323 97.0184 25.2041 97.1923 25.3173C97.8031 25.7667 98.3476 26.2995 98.8099 26.9C99.064 27.1858 99.2918 27.4938 99.4906 27.8203C99.7126 28.2466 99.8033 28.7289 99.7513 29.2066C99.6993 29.6843 99.507 30.1359 99.1986 30.5048Z" fill="black"/>
<path d="M97.0842 24.757C96.9099 24.6448 96.7121 24.574 96.506 24.5501C96.2999 24.5262 96.0911 24.5498 95.8957 24.6191C95.5043 24.7598 95.1531 24.9933 94.8723 25.2995C94.592 25.5848 94.3492 25.9046 94.15 26.2512C93.959 26.5874 93.813 26.9394 93.622 27.2746C93.285 27.8742 92.8447 28.4033 92.4021 28.9279C92.1269 29.2541 91.8483 29.5847 91.4955 29.8246C91.1428 30.0645 90.7485 30.2113 90.5092 30.5442C90.434 30.6496 90.3801 30.7684 90.3059 30.8749C90.0711 31.2179 89.6724 31.4017 89.3252 31.6315C88.33 32.2929 87.711 33.3936 86.7809 34.1435C86.3798 34.4663 85.9271 34.7196 85.5328 35.0492C85.1655 35.3552 84.8588 35.7217 84.4926 36.0355C84.1264 36.3494 83.6962 36.6083 83.2188 36.6375C83.5378 37.347 83.9186 38.0431 84.4657 38.5957C85.0127 39.1483 85.8328 39.5014 86.5798 39.2851C86.8449 39.2088 87.1044 39.0474 87.2055 38.7919C87.2373 38.6605 87.2817 38.5325 87.338 38.4096C87.4131 38.311 87.5105 38.2315 87.6223 38.1776C90.621 36.4309 93.4795 34.4548 96.172 32.2671C96.8943 31.6797 97.611 31.154 98.3524 30.5857C98.6183 30.3976 98.8641 30.1827 99.086 29.9446C99.3952 29.5761 99.5883 29.1247 99.6411 28.647C99.6938 28.1694 99.6039 27.6868 99.3825 27.26C99.1837 26.9335 98.9559 26.6255 98.7018 26.3397C98.2395 25.7392 97.695 25.2064 97.0842 24.757Z" fill="#6C63FF"/>
<g opacity="0.1">
<path opacity="0.1" d="M94.4258 23.0602C94.2012 23.0602 93.9417 23.04 93.7979 22.8495C93.6676 22.6769 93.6855 22.4246 93.735 22.2072C93.7844 21.9897 93.8686 21.7745 93.8473 21.5515C93.8012 21.1031 93.4081 20.8274 93.2856 20.4149C93.2059 20.1447 93.3811 20.0304 93.3631 19.786C93.3474 19.5742 93.1171 19.4688 92.943 19.4968C92.7487 19.5282 92.5835 19.6594 92.3993 19.7322C92.2757 19.7802 92.1432 19.8014 92.0108 19.7944C91.8783 19.7874 91.7489 19.7525 91.6309 19.6919C91.5487 19.652 91.4768 19.5937 91.4209 19.5215C91.2703 19.313 91.3231 19.0104 91.4153 18.766C91.4153 18.757 91.4231 18.7492 91.4265 18.7402C91.3325 18.8902 91.2535 19.049 91.1906 19.2144C91.0985 19.4587 91.0457 19.7614 91.1962 19.9699C91.2521 20.0421 91.324 20.1004 91.4063 20.1402C91.5242 20.2009 91.6537 20.2358 91.7861 20.2428C91.9186 20.2497 92.051 20.2285 92.1746 20.1806C92.3589 20.1077 92.524 19.9766 92.7183 19.9452C92.8925 19.9172 93.1227 20.0226 93.1385 20.2344C93.1564 20.4788 92.9812 20.5931 93.061 20.8632C93.1812 21.2757 93.5743 21.5559 93.6226 21.9998C93.6451 22.224 93.5631 22.4392 93.5103 22.6556C93.4575 22.8719 93.4429 23.1252 93.5732 23.2978C93.717 23.4884 93.9742 23.5063 94.2012 23.5086C94.4281 23.5108 94.7201 23.4951 94.8639 23.2844C94.926 23.1785 94.9668 23.0617 94.9841 22.9403C94.8313 23.049 94.6179 23.0624 94.4258 23.0602Z" fill="black"/>
<path opacity="0.1" d="M98.1661 23.0204C97.8448 23.1841 97.4595 23.1325 97.1349 22.9756C96.8102 22.8186 96.5317 22.5709 96.2531 22.3344C96.1269 22.213 95.9775 22.1181 95.8138 22.0553C95.7322 22.0263 95.644 22.0214 95.5597 22.0413C95.4753 22.0612 95.3986 22.105 95.3387 22.1674C95.2623 22.2799 95.2142 22.4091 95.1982 22.544C95.2567 22.5097 95.3218 22.4882 95.3892 22.481C95.4566 22.4739 95.5248 22.4812 95.5892 22.5025C95.7528 22.5653 95.9022 22.6602 96.0284 22.7816C96.307 23.0182 96.5901 23.267 96.9102 23.4228C97.2304 23.5786 97.6202 23.6313 97.9414 23.4676C98.2256 23.3017 98.4327 23.0306 98.5177 22.7133C98.4254 22.841 98.3052 22.946 98.1661 23.0204Z" fill="black"/>
</g>
<path d="M70.2089 71.2078C72.0701 71.2078 73.5789 69.7023 73.5789 67.8451C73.5789 65.988 72.0701 64.4824 70.2089 64.4824C68.3477 64.4824 66.8389 65.988 66.8389 67.8451C66.8389 69.7023 68.3477 71.2078 70.2089 71.2078Z" fill="#3F3D56"/>
<path opacity="0.1" d="M70.2089 71.2078C72.0701 71.2078 73.5789 69.7023 73.5789 67.8451C73.5789 65.988 72.0701 64.4824 70.2089 64.4824C68.3477 64.4824 66.8389 65.988 66.8389 67.8451C66.8389 69.7023 68.3477 71.2078 70.2089 71.2078Z" fill="black"/>
<path d="M70.2086 69.9743C71.3873 69.9743 72.3429 69.0208 72.3429 67.8446C72.3429 66.6684 71.3873 65.7148 70.2086 65.7148C69.0298 65.7148 68.0742 66.6684 68.0742 67.8446C68.0742 69.0208 69.0298 69.9743 70.2086 69.9743Z" fill="#65617D"/>
<path opacity="0.1" d="M70.2086 69.9743C71.3873 69.9743 72.3429 69.0208 72.3429 67.8446C72.3429 66.6684 71.3873 65.7148 70.2086 65.7148C69.0298 65.7148 68.0742 66.6684 68.0742 67.8446C68.0742 69.0208 69.0298 69.9743 70.2086 69.9743Z" fill="black"/>
<path d="M67.625 62.5746L69.8357 67.5626C69.8687 67.6373 69.9223 67.7012 69.9904 67.7465C70.0585 67.7918 70.1381 67.8168 70.22 67.8185C70.3018 67.8201 70.3824 67.7984 70.4522 67.7558C70.5221 67.7133 70.5783 67.6517 70.6142 67.5783L73.2417 62.2383L67.625 62.5746Z" fill="#3F3D56"/>
<path opacity="0.1" d="M67.625 62.5746L69.8357 67.5626C69.8687 67.6373 69.9223 67.7012 69.9904 67.7465C70.0585 67.7918 70.1381 67.8168 70.22 67.8185C70.3018 67.8201 70.3824 67.7984 70.4522 67.7558C70.5221 67.7133 70.5783 67.6517 70.6142 67.5783L73.2417 62.2383L67.625 62.5746Z" fill="black"/>
<path d="M49.2021 71.2078C51.0633 71.2078 52.5721 69.7023 52.5721 67.8451C52.5721 65.988 51.0633 64.4824 49.2021 64.4824C47.3408 64.4824 45.832 65.988 45.832 67.8451C45.832 69.7023 47.3408 71.2078 49.2021 71.2078Z" fill="#3F3D56"/>
<path opacity="0.1" d="M49.2021 71.2078C51.0633 71.2078 52.5721 69.7023 52.5721 67.8451C52.5721 65.988 51.0633 64.4824 49.2021 64.4824C47.3408 64.4824 45.832 65.988 45.832 67.8451C45.832 69.7023 47.3408 71.2078 49.2021 71.2078Z" fill="black"/>
<path d="M49.2017 69.9743C50.3805 69.9743 51.3361 69.0208 51.3361 67.8446C51.3361 66.6684 50.3805 65.7148 49.2017 65.7148C48.023 65.7148 47.0674 66.6684 47.0674 67.8446C47.0674 69.0208 48.023 69.9743 49.2017 69.9743Z" fill="#65617D"/>
<path opacity="0.1" d="M49.2017 69.9743C50.3805 69.9743 51.3361 69.0208 51.3361 67.8446C51.3361 66.6684 50.3805 65.7148 49.2017 65.7148C48.023 65.7148 47.0674 66.6684 47.0674 67.8446C47.0674 69.0208 48.023 69.9743 49.2017 69.9743Z" fill="black"/>
<path d="M46.6182 62.5746L48.8289 67.5626C48.8618 67.6373 48.9155 67.7012 48.9836 67.7465C49.0516 67.7918 49.1313 67.8168 49.2131 67.8185C49.2949 67.8201 49.3755 67.7984 49.4454 67.7558C49.5153 67.7133 49.5715 67.6517 49.6074 67.5783L52.2349 62.2383L46.6182 62.5746Z" fill="#3F3D56"/>
<path opacity="0.1" d="M46.6182 62.5746L48.8289 67.5626C48.8618 67.6373 48.9155 67.7012 48.9836 67.7465C49.0516 67.7918 49.1313 67.8168 49.2131 67.8185C49.2949 67.8201 49.3755 67.7984 49.4454 67.7558C49.5153 67.7133 49.5715 67.6517 49.6074 67.5783L52.2349 62.2383L46.6182 62.5746Z" fill="black"/>
<path d="M81.1454 38.5602C81.1361 38.4753 81.1057 38.3941 81.0568 38.324C81.0079 38.2538 80.9422 38.1971 80.8656 38.1589C80.8012 38.1315 80.7318 38.1173 80.6618 38.1172C80.5917 38.1171 80.5223 38.131 80.4577 38.1582C80.3931 38.1854 80.3347 38.2253 80.2859 38.2755C80.2371 38.3257 80.199 38.3851 80.1737 38.4504L78.2404 43.24L77.6787 64.7613H78.5774L78.9144 43.2859L81.0982 38.8853C81.1478 38.7846 81.1644 38.6708 81.1454 38.5602Z" fill="#3F3D56"/>
<path d="M41.3955 63.0803L44.4285 61.1748L77.174 60.8945L78.0165 63.0803H41.3955Z" fill="#6C63FF"/>
<path d="M41.3955 65.097V63.0794L78.6096 62.7207L78.5737 64.0882H42.0695V65.097H41.3955Z" fill="#3F3D56"/>
<path d="M46.1132 72.3836C47.9744 72.3836 49.4832 70.8781 49.4832 69.0209C49.4832 67.1637 47.9744 65.6582 46.1132 65.6582C44.252 65.6582 42.7432 67.1637 42.7432 69.0209C42.7432 70.8781 44.252 72.3836 46.1132 72.3836Z" fill="#3F3D56"/>
<path d="M46.1129 71.152C47.2916 71.152 48.2472 70.1985 48.2472 69.0223C48.2472 67.8461 47.2916 66.8926 46.1129 66.8926C44.9341 66.8926 43.9785 67.8461 43.9785 69.0223C43.9785 70.1985 44.9341 71.152 46.1129 71.152Z" fill="#65617D"/>
<path d="M43.5293 63.7523L45.74 68.7403C45.773 68.8151 45.8266 68.8789 45.8947 68.9242C45.9628 68.9696 46.0424 68.9946 46.1243 68.9962C46.2061 68.9979 46.2867 68.9761 46.3565 68.9336C46.4264 68.891 46.4826 68.8294 46.5185 68.756L49.146 63.416L43.5293 63.7523Z" fill="#3F3D56"/>
<path d="M72.287 72.3836C74.1482 72.3836 75.657 70.8781 75.657 69.0209C75.657 67.1637 74.1482 65.6582 72.287 65.6582C70.4258 65.6582 68.917 67.1637 68.917 69.0209C68.917 70.8781 70.4258 72.3836 72.287 72.3836Z" fill="#3F3D56"/>
<path d="M72.2877 71.152C73.4664 71.152 74.422 70.1985 74.422 69.0223C74.422 67.8461 73.4664 66.8926 72.2877 66.8926C71.1089 66.8926 70.1533 67.8461 70.1533 69.0223C70.1533 70.1985 71.1089 71.152 72.2877 71.152Z" fill="#65617D"/>
<path d="M69.7041 63.7523L71.9148 68.7403C71.9478 68.8151 72.0014 68.8789 72.0695 68.9242C72.1376 68.9696 72.2172 68.9946 72.2991 68.9962C72.3809 68.9979 72.4615 68.9761 72.5313 68.9336C72.6012 68.891 72.6574 68.8294 72.6933 68.756L75.3208 63.416L69.7041 63.7523Z" fill="#3F3D56"/>
<path d="M59.6502 54.2812H45.6084V62.0155H59.6502V54.2812Z" fill="#65617D"/>
<path opacity="0.1" d="M54.8195 55.625H50.5508V56.5217H54.8195V55.625Z" fill="black"/>
<path opacity="0.1" d="M54.2855 55.7383H51.084V56.4108H54.2855V55.7383Z" fill="black"/>
<path d="M73.9158 54.2812H59.874V62.0155H73.9158V54.2812Z" fill="#65617D"/>
<path opacity="0.1" d="M69.0851 55.625H64.8164V56.5217H69.0851V55.625Z" fill="black"/>
<path opacity="0.1" d="M68.5521 55.7383H65.3506V56.4108H68.5521V55.7383Z" fill="black"/>
<path d="M59.6502 46.3223H45.6084V54.0565H59.6502V46.3223Z" fill="#65617D"/>
<path opacity="0.1" d="M54.8195 47.668H50.5508V48.5647H54.8195V47.668Z" fill="black"/>
<path opacity="0.1" d="M54.2855 47.7793H51.084V48.4518H54.2855V47.7793Z" fill="black"/>
<path d="M73.9158 46.3223H59.874V54.0565H73.9158V46.3223Z" fill="#65617D"/>
<path opacity="0.1" d="M69.0851 47.668H64.8164V48.5647H69.0851V47.668Z" fill="black"/>
<path opacity="0.1" d="M68.5521 47.7793H65.3506V48.4518H68.5521V47.7793Z" fill="black"/>
<path d="M59.6502 38.252H45.6084V45.9862H59.6502V38.252Z" fill="#65617D"/>
<path opacity="0.1" d="M54.8195 39.5977H50.5508V40.4944H54.8195V39.5977Z" fill="black"/>
<path opacity="0.1" d="M54.2855 39.709H51.084V40.3815H54.2855V39.709Z" fill="black"/>
<path d="M73.9158 38.252H59.874V45.9862H73.9158V38.252Z" fill="#65617D"/>
<path opacity="0.1" d="M69.0851 39.5977H64.8164V40.4944H69.0851V39.5977Z" fill="black"/>
<path opacity="0.1" d="M68.5521 39.709H65.3506V40.3815H68.5521V39.709Z" fill="black"/>
<path d="M73.9158 30.1816H59.874V37.9159H73.9158V30.1816Z" fill="#65617D"/>
<path opacity="0.1" d="M69.0851 31.5273H64.8164V32.4241H69.0851V31.5273Z" fill="black"/>
<path opacity="0.1" d="M68.5521 31.6387H65.3506V32.3112H68.5521V31.6387Z" fill="black"/>
</g>
<defs>
<linearGradient id="paint0_linear_43_111" x1="98.611" y1="71.1095" x2="98.611" y2="16.9542" gradientUnits="userSpaceOnUse">
<stop stop-color="#808080" stop-opacity="0.25"/>
<stop offset="0.54" stop-color="#808080" stop-opacity="0.12"/>
<stop offset="1" stop-color="#808080" stop-opacity="0.1"/>
</linearGradient>
<clipPath id="clip0_43_111">
<rect width="128.51" height="73" fill="white"/>
</clipPath>
</defs>
</svg>
