<svg width="862" height="519" viewBox="0 0 862 519" fill="none" xmlns="http://www.w3.org/2000/svg">
<path d="M263.117 93.4757C266.369 83.11 273.765 73.6029 283.994 70.0988C294.224 66.5946 309.203 71.9326 316.893 79.5969C330.96 93.6166 334.393 141.779 324.729 156.999C322.806 156.897 316.173 156.822 314.227 156.749L311.475 147.576V156.659C296.289 156.189 280.478 156.483 264.66 156.787C263.242 146.011 259.864 103.841 263.117 93.4757Z" fill="#2F2E41"/>
<path d="M413.454 253.857C412.088 253.674 410.778 253.194 409.618 252.45C408.457 251.706 407.474 250.717 406.737 249.552C406 248.387 405.527 247.075 405.352 245.707C405.177 244.34 405.304 242.951 405.724 241.638L378.92 221.53L395.311 215.654L418.252 235.65C420.411 236.502 422.183 238.116 423.231 240.186C424.279 242.257 424.532 244.64 423.94 246.884C423.349 249.129 421.955 251.078 420.022 252.363C418.089 253.648 415.753 254.179 413.454 253.857V253.857Z" fill="#9E616A"/>
<path d="M306.974 148.462L309.538 139.389C309.538 139.389 315.933 137.304 326.846 145.219C337.759 153.133 405.123 223.783 405.123 223.783L385.068 226.587L323.772 182.799L306.974 148.462Z" fill="#E6E6E6"/>
<path d="M726.639 495.011C767.663 474.063 800.324 432.06 799.423 386.006C761.07 418.228 712.555 435.845 662.463 435.74C643.145 435.63 621.67 433.496 606.656 445.653C597.314 453.217 592.417 465.2 590.967 477.132C589.518 489.065 591.145 501.133 592.769 513.044L591.761 515.87C637.716 519.023 685.615 515.959 726.639 495.011Z" fill="#F0F0F0"/>
<path d="M798.464 385.895C780.594 419.12 751.994 446.852 717.901 463.135C710.53 466.655 702.746 469.584 694.607 470.65C686.666 471.627 678.608 470.46 671.271 467.27C664.37 464.433 657.639 460.732 650.168 459.622C642.293 458.453 634.766 461.032 628.66 466.008C621.19 472.097 616.353 480.507 611.909 488.896C606.974 498.21 601.996 507.962 593.281 514.325C592.225 515.096 593.483 516.69 594.537 515.92C609.701 504.85 613.352 484.9 625.768 471.509C631.561 465.261 639.273 460.72 648.039 461.421C655.704 462.035 662.648 465.845 669.611 468.778C676.923 471.858 684.336 473.562 692.306 472.933C700.459 472.289 708.374 469.657 715.803 466.341C732.592 458.695 748.075 448.457 761.683 436.001C777.294 421.872 790.373 405.177 800.353 386.638C800.971 385.49 799.077 384.755 798.464 385.895V385.895Z" fill="white"/>
<path d="M729.261 458.427C732.834 463.804 738.202 467.735 744.407 469.519C750.611 471.303 757.247 470.824 763.13 468.166C764.319 467.625 763.533 465.752 762.343 466.295C756.869 468.779 750.687 469.225 744.913 467.552C739.139 465.879 734.153 462.197 730.856 457.171C730.138 456.08 728.547 457.342 729.261 458.427V458.427Z" fill="white"/>
<path d="M674.58 469.17C677.071 456.21 684.355 444.666 694.979 436.838C696.032 436.064 694.775 434.47 693.723 435.244C682.682 443.41 675.127 455.439 672.564 468.93C672.321 470.216 674.338 470.449 674.58 469.17H674.58Z" fill="white"/>
<path d="M774.843 420.759C773.027 418.966 771.685 416.751 770.936 414.312C770.188 411.873 770.057 409.286 770.556 406.784C770.815 405.501 768.798 405.27 768.54 406.544C768.002 409.312 768.15 412.168 768.971 414.865C769.792 417.562 771.26 420.017 773.249 422.015C773.42 422.219 773.663 422.35 773.928 422.382C774.193 422.413 774.46 422.342 774.674 422.184C774.885 422.017 775.02 421.773 775.052 421.506C775.084 421.239 775.009 420.971 774.843 420.759H774.843Z" fill="white"/>
<path d="M677.318 288.98C677.134 289.777 676.949 290.573 676.748 291.375C674.208 302.066 670.803 312.533 666.568 322.672C666.253 323.461 665.922 324.256 665.585 325.034C655.121 349.353 640.233 371.518 621.678 390.402C614.287 397.909 606.336 404.844 597.894 411.145C586.234 419.847 572.899 428.354 565.026 440.055C564.191 441.266 563.432 442.528 562.753 443.834L588.391 514.421C588.53 514.552 588.653 514.69 588.792 514.822L589.687 517.687C590.145 517.393 590.614 517.077 591.072 516.783C591.338 516.613 591.599 516.428 591.866 516.258C592.041 516.14 592.217 516.021 592.382 515.924C592.441 515.885 592.5 515.845 592.542 515.812C592.708 515.715 592.851 515.608 593 515.517C595.626 513.762 598.243 511.985 600.853 510.186C600.869 510.18 600.869 510.18 600.88 510.159C620.73 496.404 639.607 480.871 655.526 462.966C656.005 462.427 656.5 461.883 656.967 461.312C664.098 453.202 670.554 444.522 676.271 435.36C679.385 430.333 682.243 425.152 684.833 419.836C691.499 406.088 695.962 391.376 698.057 376.241C702.228 346.069 696.704 314.899 678.711 290.808C678.25 290.192 677.795 289.591 677.318 288.98Z" fill="#F0F0F0"/>
<path d="M676.48 289.465C682.216 326.753 676.077 366.114 658.659 399.641C654.893 406.89 650.442 413.915 644.585 419.666C638.833 425.227 631.697 429.147 623.918 431.018C616.699 432.908 609.097 434.005 602.464 437.617C595.472 441.424 591.014 448.015 589.136 455.665C586.837 465.024 588.038 474.651 589.54 484.025C591.208 494.432 593.105 505.216 589.977 515.544C589.598 516.796 591.562 517.31 591.941 516.061C597.383 498.092 588.287 479.965 590.138 461.798C591.002 453.321 594.425 445.053 601.847 440.335C608.336 436.21 616.175 435.071 623.5 433.221C631.192 431.278 638.138 428.175 644.122 422.874C650.244 417.451 654.979 410.585 658.914 403.465C667.716 387.252 673.914 369.755 677.281 351.617C681.238 330.937 681.629 309.732 678.436 288.921C678.238 287.633 676.283 288.186 676.48 289.465V289.465Z" fill="white"/>
<path d="M664.895 389.042C670.985 391.184 677.638 391.091 683.666 388.78C689.694 386.469 694.704 382.091 697.801 376.427C698.424 375.279 696.669 374.257 696.046 375.406C693.171 380.686 688.504 384.764 682.886 386.904C677.269 389.045 671.071 389.107 665.412 387.079C664.182 386.64 663.672 388.606 664.895 389.042Z" fill="white"/>
<path d="M627.703 430.541C621.89 418.694 620.755 405.092 624.525 392.445C624.9 391.192 622.936 390.677 622.562 391.928C618.663 405.096 619.873 419.249 625.95 431.564C626.53 432.738 628.28 431.708 627.703 430.541Z" fill="white"/>
<path d="M678.611 331.523C676.082 331.185 673.676 330.225 671.61 328.728C669.544 327.231 667.882 325.244 666.773 322.946C666.209 321.766 664.458 322.796 665.02 323.969C666.256 326.502 668.094 328.694 670.373 330.353C672.652 332.012 675.303 333.088 678.094 333.486C678.354 333.546 678.627 333.504 678.857 333.37C679.087 333.235 679.258 333.018 679.334 332.763C679.401 332.502 679.363 332.226 679.227 331.994C679.092 331.762 678.87 331.592 678.611 331.523V331.523Z" fill="white"/>
<path d="M233.219 161.901C198.077 132.122 146.73 118.174 104.582 136.756C149.097 159.726 184.053 197.702 203.264 243.964C210.608 261.832 216.916 282.47 233.921 291.638C244.502 297.343 257.446 297.243 269.015 293.981C280.585 290.719 291.094 284.566 301.457 278.476L304.454 278.317C289.65 234.698 268.361 191.681 233.219 161.901Z" fill="#F0F0F0"/>
<path d="M104.85 137.686C142.396 141.368 179.008 157.069 207.174 182.253C213.263 187.697 218.966 193.75 223.086 200.849C227.049 207.8 229.078 215.685 228.963 223.685C229.005 231.147 228.185 238.784 230.04 246.105C231.996 253.822 237.277 259.774 244.223 263.49C252.72 268.036 262.345 269.257 271.798 270.125C282.295 271.088 293.212 271.922 302.443 277.512C303.561 278.189 304.547 276.414 303.43 275.738C287.37 266.013 267.555 270.333 250.413 264.038C242.414 261.101 235.252 255.735 232.521 247.377C230.132 240.067 230.972 232.191 230.994 224.635C231.017 216.702 229.733 209.204 226.08 202.093C222.343 194.818 216.864 188.529 210.941 182.953C197.414 170.408 182 160.068 165.261 152.311C146.207 143.353 125.761 137.72 104.807 135.656C103.51 135.529 103.561 137.56 104.85 137.686L104.85 137.686Z" fill="white"/>
<path d="M198.451 173.583C202.034 168.213 203.593 161.745 202.848 155.332C202.102 148.92 199.102 142.981 194.382 138.577C193.424 137.689 192 139.136 192.959 140.025C197.361 144.118 200.156 149.65 200.837 155.623C201.519 161.596 200.043 167.615 196.677 172.595C195.946 173.679 197.724 174.66 198.451 173.583V173.583Z" fill="white"/>
<path d="M229.439 219.899C216.521 222.596 203.061 220.325 191.744 213.539C190.623 212.865 189.637 214.64 190.757 215.313C202.547 222.353 216.559 224.688 229.996 221.852C231.276 221.581 230.713 219.63 229.439 219.899V219.899Z" fill="white"/>
<path d="M146.124 146.043C145.17 148.41 143.643 150.502 141.681 152.133C139.719 153.764 137.382 154.881 134.881 155.386C133.598 155.641 134.162 157.591 135.437 157.338C138.198 156.768 140.777 155.53 142.949 153.734C145.121 151.937 146.82 149.635 147.898 147.03C148.02 146.793 148.047 146.519 147.974 146.262C147.901 146.006 147.733 145.787 147.504 145.65C147.269 145.52 146.992 145.489 146.733 145.562C146.475 145.636 146.256 145.809 146.124 146.043V146.043Z" fill="white"/>
<path d="M62.1182 286.825C62.924 286.688 63.7299 286.552 64.548 286.428C75.3916 284.651 86.3616 283.758 97.3498 283.758C98.1993 283.745 99.0605 283.744 99.9086 283.755C126.382 284.037 152.572 289.231 177.149 299.074C186.925 303 196.388 307.663 205.457 313.025C217.98 320.43 230.97 329.455 244.801 332.21C246.241 332.513 247.698 332.727 249.165 332.851L304.416 281.986C304.483 281.807 304.563 281.641 304.631 281.461L306.93 279.531C306.482 279.222 306.01 278.911 305.562 278.602C305.302 278.422 305.031 278.253 304.771 278.072C304.595 277.955 304.417 277.839 304.264 277.724C304.206 277.685 304.146 277.646 304.099 277.62C303.946 277.504 303.792 277.413 303.651 277.311C301.019 275.565 298.37 273.834 295.705 272.119C295.693 272.107 295.693 272.107 295.669 272.105C275.325 259.09 253.717 247.659 231.06 239.871C230.378 239.637 229.685 239.39 228.978 239.179C218.746 235.725 208.249 233.114 197.591 231.37C191.752 230.434 185.87 229.794 179.966 229.453C164.711 228.601 149.416 230.154 134.643 234.055C105.194 241.835 78.5617 258.948 63.2673 284.835C62.8765 285.498 62.4973 286.15 62.1182 286.825Z" fill="#F0F0F0"/>
<path d="M62.888 287.412C95.0832 267.747 133.769 258.24 171.42 261.39C179.56 262.071 187.758 263.47 195.322 266.658C202.671 269.821 209.038 274.896 213.763 281.353C218.289 287.285 222.232 293.877 228.121 298.605C234.329 303.589 242.129 305.162 249.912 303.947C259.434 302.46 267.854 297.641 275.924 292.642C284.885 287.092 294.104 281.185 304.84 280.09C306.141 279.958 305.859 277.947 304.56 278.08C285.882 279.984 272.662 295.363 255.185 300.658C247.03 303.128 238.081 303.156 230.867 298.127C224.559 293.729 220.487 286.934 215.956 280.888C211.199 274.54 205.659 269.327 198.46 265.848C191.097 262.289 182.936 260.567 174.849 259.68C156.496 257.808 137.963 258.833 119.928 262.717C99.321 267.036 79.6043 274.849 61.6314 285.817C60.5193 286.496 61.7831 288.087 62.8879 287.412L62.888 287.412Z" fill="white"/>
<path d="M159.236 259.72C158.865 253.275 156.214 247.172 151.759 242.501C147.303 237.83 141.332 234.894 134.912 234.219C133.612 234.087 133.346 236.1 134.647 236.232C140.627 236.85 146.188 239.585 150.329 243.943C154.469 248.302 156.915 253.997 157.225 260C157.294 261.305 159.304 261.017 159.236 259.72V259.72Z" fill="white"/>
<path d="M211.864 278.042C203.174 287.973 191.059 294.263 177.937 295.659C176.637 295.796 176.918 297.807 178.217 297.67C191.869 296.192 204.463 289.62 213.484 279.266C214.343 278.279 212.719 277.06 211.864 278.042V278.042Z" fill="white"/>
<path d="M100.874 269.235C101.538 271.699 101.579 274.289 100.994 276.772C100.409 279.256 99.2159 281.555 97.5226 283.464C96.6514 284.44 98.2768 285.657 99.1424 284.688C101.003 282.57 102.317 280.029 102.97 277.287C103.622 274.544 103.593 271.684 102.885 268.955C102.84 268.693 102.696 268.457 102.484 268.296C102.271 268.135 102.005 268.062 101.74 268.09C101.474 268.128 101.234 268.27 101.072 268.485C100.909 268.699 100.839 268.969 100.874 269.235V269.235Z" fill="white"/>
<path d="M606.58 340.148C606.434 337.583 605.385 335.154 603.619 333.289C601.853 331.425 599.483 330.246 596.93 329.962L439.87 312.24C438.364 312.068 436.838 312.213 435.392 312.666L399.362 323.947L378.69 330.425L340.539 342.368C338.236 343.091 336.239 344.559 334.86 346.54C333.481 348.521 332.798 350.904 332.919 353.315L339.359 506.391C339.496 508.878 340.477 511.245 342.141 513.1C343.805 514.955 346.051 516.187 348.509 516.592L508.875 516.942C509.628 517.064 510.392 517.105 511.154 517.063C512.264 517.009 513.359 516.785 514.402 516.399L608.375 515.75C610.565 514.944 612.436 513.453 613.712 511.499C614.987 509.545 615.599 507.232 615.455 504.903L606.58 340.148Z" fill="white"/>
<path d="M350.023 507.179L510.388 507.526C510.622 507.565 510.863 507.543 511.086 507.461L605.047 506.817C605.323 506.717 605.559 506.531 605.719 506.286C605.879 506.04 605.955 505.75 605.935 505.457L597.071 340.699C597.049 340.38 596.917 340.078 596.697 339.846C596.478 339.614 596.184 339.465 595.867 339.425L594.81 339.301L438.8 321.716C438.728 321.707 438.656 321.705 438.584 321.71C438.467 321.713 438.35 321.732 438.238 321.765L350.36 349.285L343.386 351.463C343.1 351.556 342.853 351.74 342.682 351.987C342.511 352.233 342.425 352.529 342.438 352.829L348.88 505.899C348.896 506.211 349.018 506.508 349.226 506.741C349.434 506.974 349.715 507.129 350.023 507.179V507.179Z" fill="#6C63FF"/>
<path d="M350.36 349.285L438.238 321.765C438.35 321.732 438.467 321.713 438.584 321.71C438.656 321.705 438.728 321.707 438.8 321.716L594.81 339.301L557.237 351.527L543.174 356.096L503.16 369.108C503.042 369.139 502.922 369.163 502.8 369.18C502.723 369.173 502.645 369.167 502.553 369.162L350.36 349.285Z" fill="#2F2E41"/>
<path d="M348.508 516.601L508.873 516.948C509.627 517.068 510.393 517.104 511.155 517.055C512.266 517.004 513.363 516.786 514.409 516.407L608.37 515.762C610.561 514.953 612.432 513.461 613.709 511.505C614.985 509.55 615.598 507.236 615.457 504.905L606.578 340.149C606.465 338.219 605.844 336.353 604.778 334.741C604.631 334.528 604.484 334.315 604.323 334.118C603.219 332.674 601.764 331.536 600.096 330.813C599.09 330.372 598.023 330.086 596.931 329.964L596.744 329.939L439.878 312.238C439.238 312.174 438.596 312.155 437.954 312.182C437.082 312.241 436.22 312.407 435.388 312.675L399.361 323.942L378.693 330.432L340.536 342.372C338.974 342.859 337.544 343.694 336.352 344.814C336.257 344.888 336.169 344.97 336.088 345.059C336.03 345.118 335.976 345.18 335.926 345.246C334.904 346.315 334.111 347.581 333.595 348.966C333.078 350.352 332.849 351.828 332.921 353.304L339.35 506.391C339.488 508.881 340.47 511.249 342.135 513.105C343.8 514.962 346.048 516.195 348.508 516.601V516.601ZM335.637 353.178C335.563 351.647 335.926 350.127 336.684 348.794C336.909 348.37 337.177 347.969 337.483 347.599C338.316 346.572 339.387 345.765 340.604 345.248C340.843 345.143 341.089 345.054 341.34 344.98L405.587 324.871L436.205 315.265C436.412 315.195 436.607 315.158 436.801 315.105C437.272 314.995 437.752 314.93 438.235 314.91C438.676 314.875 439.119 314.886 439.558 314.943L596.612 332.669C596.736 332.686 596.846 332.704 596.97 332.72C598.409 332.933 599.762 333.537 600.882 334.466C601.761 335.172 602.48 336.056 602.994 337.06C603.508 338.064 603.804 339.164 603.864 340.29L612.729 505.064C612.836 506.809 612.378 508.542 611.425 510.007C610.471 511.472 609.072 512.591 607.433 513.2L513.457 513.847C512.128 514.334 510.697 514.471 509.3 514.246L348.937 513.914C347.096 513.605 345.415 512.68 344.169 511.29C342.923 509.899 342.187 508.127 342.081 506.263L335.637 353.178Z" fill="#3F3D56"/>
<path d="M511.642 517.358C511.283 517.376 510.932 517.252 510.665 517.012C510.397 516.772 510.235 516.437 510.214 516.079L501.375 367.894C501.354 367.533 501.477 367.179 501.717 366.909C501.956 366.639 502.293 366.475 502.654 366.454L502.666 366.453C503.025 366.435 503.376 366.559 503.644 366.799C503.911 367.038 504.073 367.374 504.094 367.732L512.933 515.917C512.954 516.277 512.831 516.631 512.592 516.902C512.352 517.172 512.015 517.336 511.654 517.357L511.642 517.358Z" fill="#3F3D56"/>
<path d="M567.084 507.334L551.698 507.23L537.098 355.207C537.098 355.207 555.579 347.648 556.39 348.934C556.883 349.7 567.027 506.391 567.084 507.334Z" fill="#3F3D56"/>
<path d="M601.681 335.762L600.57 334.853C599.427 333.913 598.034 333.326 596.562 333.166L439.51 315.44C438.644 315.345 437.768 315.393 436.917 315.584L436.329 315.729L436.21 313.379L462.256 284.567C463.807 282.859 465.731 281.532 467.879 280.689C470.027 279.847 472.34 279.512 474.639 279.71L580.811 289.103C583.983 289.373 586.984 290.655 589.372 292.76C591.76 294.864 593.409 297.681 594.076 300.794L601.681 335.762Z" fill="#3F3D56"/>
<path d="M364.302 451.703C364.469 451.676 364.639 451.668 364.809 451.678L413.146 454.608C413.751 454.644 414.317 454.92 414.719 455.373C415.121 455.827 415.327 456.422 415.29 457.027C415.254 457.632 414.978 458.198 414.524 458.6C414.071 459.002 413.476 459.208 412.871 459.171L364.533 456.242C363.972 456.207 363.443 455.968 363.048 455.568C362.652 455.169 362.417 454.637 362.389 454.076C362.36 453.514 362.539 452.962 362.892 452.524C363.245 452.087 363.747 451.794 364.302 451.703V451.703Z" fill="white"/>
<path d="M365.111 468.684C365.279 468.657 365.449 468.648 365.618 468.659L413.956 471.588C414.561 471.625 415.127 471.9 415.529 472.354C415.931 472.808 416.136 473.402 416.1 474.008C416.063 474.613 415.788 475.179 415.334 475.581C414.88 475.983 414.285 476.188 413.68 476.151L365.343 473.222C364.782 473.188 364.253 472.948 363.857 472.549C363.461 472.149 363.227 471.618 363.198 471.056C363.17 470.495 363.349 469.942 363.702 469.505C364.055 469.067 364.557 468.775 365.111 468.684V468.684Z" fill="white"/>
<path d="M596.31 265.925L503.07 316.69L464.763 246.332L558.002 195.566L596.31 265.925Z" fill="white"/>
<path d="M596.31 265.925L503.07 316.69L464.763 246.332L558.002 195.566L596.31 265.925ZM503.852 314.042L593.661 265.144L557.221 198.215L467.411 247.113L503.852 314.042Z" fill="#E6E6E6"/>
<path d="M556.137 221.425L487.493 258.799L489.985 263.375L558.628 226.001L556.137 221.425Z" fill="#6C63FF"/>
<path d="M563.611 235.152L494.968 272.525L497.459 277.102L566.103 239.728L563.611 235.152Z" fill="#6C63FF"/>
<path d="M571.086 248.882L502.442 286.256L504.934 290.832L573.577 253.458L571.086 248.882Z" fill="#6C63FF"/>
<path d="M383.837 203.922C382.874 202.843 382.545 202.732 382.203 202.968L329.143 239.577C328.805 239.811 328.785 240.155 329.442 241.424C331.176 244.108 333.296 247.278 335.616 250.641L403.884 349.587C410.283 358.862 415.843 366.164 416.276 365.865L469.336 329.256C469.769 328.957 464.916 321.167 458.517 311.893L390.249 212.947C387.934 209.592 385.728 206.492 383.837 203.922Z" fill="white"/>
<path d="M390.905 213.183C389.699 211.492 388.55 209.924 387.523 208.557C386.287 206.92 385.274 205.622 384.505 204.695C384.252 204.393 384.034 204.134 383.837 203.922C382.874 202.843 382.545 202.732 382.203 202.968L329.143 239.577C328.805 239.811 328.785 240.155 329.442 241.424C329.577 241.684 329.743 241.99 329.94 242.342C330.532 243.386 331.385 244.794 332.48 246.535C334.311 249.432 336.72 253.053 339.26 256.735L404.089 350.696C407.033 354.963 409.887 358.922 412.125 361.848C415.85 366.719 416.124 366.53 416.538 366.245L469.598 329.636C470.012 329.35 470.286 329.161 467.054 323.949C465.113 320.819 462.426 316.745 459.482 312.478L394.653 218.517C393.381 216.674 392.113 214.868 390.905 213.183ZM340.02 256.211C337.487 252.541 335.084 248.927 333.263 246.044C332.173 244.318 331.329 242.915 330.747 241.886C330.419 241.341 330.131 240.773 329.888 240.185L382.507 203.88C382.97 204.316 383.4 204.787 383.792 205.288C384.173 205.742 384.615 206.29 385.117 206.931C385.616 207.574 386.173 208.302 386.787 209.116C388.835 211.841 391.358 215.367 393.893 219.041L458.722 313.002C464.874 321.92 468.419 327.797 468.857 329.025L416.23 365.335C415.237 364.489 411.001 359.09 404.849 350.172L340.02 256.211Z" fill="#E4E4E4"/>
<path d="M372.493 234.356L362.447 241.287C361.943 241.635 361.599 242.169 361.488 242.771C361.378 243.373 361.511 243.994 361.858 244.498L367.861 253.199C368.21 253.702 368.743 254.046 369.345 254.156C369.947 254.267 370.568 254.134 371.072 253.788L381.118 246.856C381.62 246.508 381.964 245.974 382.074 245.373C382.185 244.771 382.053 244.15 381.707 243.646L375.704 234.945C375.355 234.442 374.822 234.098 374.22 233.987C373.618 233.877 372.997 234.009 372.493 234.356V234.356Z" fill="#6C63FF"/>
<path d="M397.521 243.93L362.508 268.086C362.395 268.165 362.298 268.264 362.224 268.38C362.149 268.495 362.098 268.624 362.073 268.76C362.048 268.895 362.05 269.034 362.079 269.169C362.108 269.303 362.163 269.431 362.241 269.544C362.319 269.657 362.419 269.754 362.534 269.829C362.65 269.903 362.779 269.955 362.914 269.98C363.05 270.004 363.189 270.002 363.323 269.973C363.458 269.945 363.585 269.89 363.699 269.811L398.711 245.654C398.824 245.576 398.921 245.477 398.996 245.361C399.07 245.246 399.122 245.116 399.146 244.981C399.171 244.846 399.169 244.707 399.14 244.572C399.112 244.438 399.056 244.31 398.978 244.197C398.9 244.084 398.8 243.987 398.685 243.912C398.569 243.837 398.44 243.786 398.305 243.761C398.17 243.737 398.031 243.739 397.896 243.767C397.762 243.796 397.634 243.851 397.521 243.93Z" fill="#E4E4E4"/>
<path d="M378.596 262.953L365.298 272.128C365.184 272.206 365.087 272.306 365.013 272.422C364.938 272.537 364.887 272.666 364.862 272.802C364.837 272.937 364.839 273.076 364.868 273.21C364.897 273.345 364.952 273.472 365.03 273.586C365.108 273.699 365.208 273.796 365.323 273.87C365.439 273.945 365.568 273.996 365.704 274.021C365.839 274.046 365.978 274.044 366.112 274.015C366.247 273.986 366.374 273.931 366.488 273.853L379.786 264.678C380.015 264.52 380.171 264.278 380.221 264.005C380.272 263.731 380.211 263.449 380.053 263.22C379.896 262.992 379.653 262.835 379.38 262.785C379.107 262.735 378.824 262.795 378.596 262.953V262.953Z" fill="#E4E4E4"/>
<path d="M398.445 271.971L388.399 278.902C387.896 279.25 387.551 279.784 387.44 280.386C387.33 280.988 387.463 281.609 387.81 282.113L393.814 290.814C394.162 291.317 394.695 291.661 395.297 291.772C395.899 291.882 396.52 291.749 397.024 291.403L407.07 284.472C407.572 284.123 407.916 283.589 408.027 282.988C408.137 282.386 408.005 281.766 407.659 281.261L401.656 272.56C401.307 272.057 400.774 271.713 400.172 271.602C399.57 271.492 398.949 271.625 398.445 271.971V271.971Z" fill="#6C63FF"/>
<path d="M423.473 281.545L388.461 305.702C388.232 305.859 388.075 306.102 388.025 306.375C387.975 306.648 388.035 306.93 388.193 307.159C388.351 307.388 388.593 307.545 388.867 307.595C389.14 307.645 389.422 307.584 389.651 307.427L424.663 283.27C424.776 283.192 424.873 283.092 424.948 282.976C425.023 282.861 425.074 282.732 425.099 282.596C425.123 282.461 425.121 282.322 425.093 282.188C425.064 282.053 425.009 281.925 424.93 281.812C424.852 281.699 424.753 281.602 424.637 281.527C424.522 281.453 424.392 281.401 424.257 281.377C424.122 281.352 423.983 281.354 423.848 281.383C423.714 281.412 423.586 281.467 423.473 281.545V281.545Z" fill="#E4E4E4"/>
<path d="M404.548 300.568L391.25 309.743C391.021 309.901 390.864 310.143 390.814 310.417C390.764 310.69 390.824 310.972 390.982 311.201C391.14 311.43 391.382 311.586 391.656 311.637C391.929 311.687 392.211 311.626 392.44 311.468L405.738 302.293C405.851 302.215 405.948 302.115 406.023 302C406.098 301.884 406.149 301.755 406.174 301.62C406.198 301.484 406.196 301.346 406.168 301.211C406.139 301.076 406.084 300.949 406.005 300.836C405.927 300.722 405.828 300.626 405.712 300.551C405.597 300.476 405.467 300.425 405.332 300.4C405.197 300.375 405.058 300.377 404.923 300.406C404.789 300.435 404.661 300.49 404.548 300.568V300.568Z" fill="#E4E4E4"/>
<path d="M424.398 309.586L414.352 316.518C413.849 316.865 413.504 317.399 413.393 318.001C413.283 318.603 413.416 319.224 413.763 319.728L419.767 328.429C420.115 328.932 420.648 329.276 421.25 329.387C421.852 329.497 422.473 329.365 422.977 329.018L433.023 322.087C433.525 321.738 433.869 321.205 433.98 320.603C434.09 320.002 433.958 319.381 433.612 318.876L427.609 310.176C427.26 309.672 426.727 309.328 426.125 309.218C425.523 309.107 424.902 309.24 424.398 309.586V309.586Z" fill="#6C63FF"/>
<path d="M449.425 319.158L414.413 343.315C414.3 343.393 414.203 343.493 414.128 343.608C414.053 343.724 414.002 343.853 413.977 343.988C413.952 344.124 413.954 344.263 413.983 344.397C414.012 344.532 414.067 344.659 414.145 344.772C414.223 344.886 414.323 344.983 414.439 345.057C414.554 345.132 414.683 345.183 414.819 345.208C414.954 345.233 415.093 345.231 415.228 345.202C415.362 345.173 415.49 345.118 415.603 345.04L450.615 320.883C450.844 320.725 451.001 320.483 451.051 320.21C451.101 319.936 451.04 319.654 450.883 319.425C450.725 319.197 450.483 319.04 450.209 318.99C449.936 318.94 449.654 319 449.425 319.158V319.158Z" fill="#E4E4E4"/>
<path d="M430.501 338.183L417.203 347.359C417.09 347.437 416.993 347.536 416.918 347.652C416.843 347.768 416.792 347.897 416.767 348.032C416.742 348.167 416.744 348.306 416.773 348.441C416.802 348.575 416.857 348.703 416.935 348.816C417.013 348.929 417.113 349.026 417.229 349.101C417.344 349.176 417.473 349.227 417.609 349.252C417.744 349.277 417.883 349.275 418.018 349.246C418.152 349.217 418.28 349.162 418.393 349.084L431.691 339.908C431.92 339.751 432.077 339.508 432.127 339.235C432.177 338.962 432.116 338.68 431.959 338.451C431.801 338.222 431.559 338.065 431.285 338.015C431.012 337.965 430.73 338.026 430.501 338.183V338.183Z" fill="#E4E4E4"/>
<path d="M541.875 248.093C541.665 242.943 541.345 239.623 540.975 239.623H405.575C405.205 239.623 404.885 242.943 404.675 248.093C404.535 251.683 404.445 256.163 404.445 261.013V355.353L404.995 355.423L427.255 358.323L450.455 361.363L461.055 362.743L483.725 365.703L502.555 368.163C502.645 368.173 502.725 368.173 502.805 368.183C502.925 368.163 503.045 368.143 503.155 368.113L510.565 365.703L519.115 362.923L541.555 355.623L542.105 355.443V261.013C542.105 256.163 542.015 251.683 541.875 248.093Z" fill="white"/>
<path d="M542.325 245.862C542.255 244.522 542.185 243.442 542.105 242.582C542.049 241.684 541.922 240.791 541.725 239.912C541.505 239.072 541.255 239.072 540.975 239.072H405.575C405.295 239.072 405.045 239.072 404.825 239.912C404.631 240.835 404.504 241.771 404.445 242.712C404.375 243.552 404.305 244.592 404.235 245.862C404.015 249.912 403.895 255.292 403.895 261.012V355.272L404.445 355.352L404.995 355.422V261.012C404.995 256.032 405.085 251.812 405.215 248.482C405.239 245.696 405.463 242.916 405.885 240.162H540.675C541.097 242.913 541.321 245.69 541.345 248.472C541.465 251.802 541.555 256.022 541.555 261.012V355.622L542.655 355.262V261.012C542.655 255.292 542.535 249.912 542.325 245.862Z" fill="#E4E4E4"/>
<path d="M447.185 268.383H429.915C429.486 268.382 429.061 268.465 428.664 268.629C428.268 268.792 427.907 269.032 427.604 269.335C427.3 269.638 427.059 269.997 426.894 270.393C426.73 270.789 426.645 271.214 426.645 271.643V286.603C426.644 287.032 426.728 287.458 426.892 287.855C427.056 288.252 427.297 288.613 427.601 288.917C427.905 289.22 428.265 289.461 428.662 289.625C429.059 289.789 429.485 289.874 429.915 289.873H447.185C448.052 289.873 448.883 289.528 449.496 288.915C450.11 288.302 450.454 287.47 450.455 286.603V271.643C450.452 270.777 450.107 269.948 449.494 269.337C448.881 268.726 448.05 268.383 447.185 268.383V268.383Z" fill="#6C63FF"/>
<path d="M518.425 274.172H458.225C457.833 274.172 457.456 274.328 457.179 274.605C456.901 274.883 456.745 275.259 456.745 275.652C456.745 276.044 456.901 276.421 457.179 276.698C457.456 276.976 457.833 277.132 458.225 277.132H518.425C518.818 277.132 519.194 276.976 519.472 276.698C519.749 276.421 519.905 276.044 519.905 275.652C519.905 275.259 519.749 274.883 519.472 274.605C519.194 274.328 518.818 274.172 518.425 274.172V274.172Z" fill="#E4E4E4"/>
<path d="M481.085 281.123H458.225C457.833 281.123 457.456 281.279 457.179 281.557C456.901 281.834 456.745 282.211 456.745 282.603C456.745 282.996 456.901 283.372 457.179 283.65C457.456 283.927 457.833 284.083 458.225 284.083H481.085C481.478 284.083 481.854 283.927 482.132 283.65C482.409 283.372 482.565 282.996 482.565 282.603C482.565 282.211 482.409 281.834 482.132 281.557C481.854 281.279 481.478 281.123 481.085 281.123V281.123Z" fill="#E4E4E4"/>
<path d="M447.185 312.662H429.915C429.047 312.662 428.216 313.007 427.603 313.62C426.989 314.233 426.645 315.065 426.645 315.932V330.892C426.645 331.759 426.989 332.591 427.603 333.204C428.216 333.817 429.047 334.162 429.915 334.162H447.185C448.051 334.16 448.882 333.815 449.495 333.202C450.107 332.589 450.453 331.759 450.455 330.892V315.932C450.453 315.065 450.107 314.235 449.495 313.622C448.882 313.009 448.051 312.664 447.185 312.662V312.662Z" fill="#6C63FF"/>
<path d="M518.425 318.453H458.225C457.831 318.453 457.454 318.61 457.175 318.888C456.897 319.167 456.74 319.544 456.74 319.938C456.74 320.332 456.897 320.71 457.175 320.988C457.454 321.267 457.831 321.423 458.225 321.423H518.425C518.819 321.423 519.197 321.267 519.475 320.988C519.754 320.71 519.91 320.332 519.91 319.938C519.91 319.544 519.754 319.167 519.475 318.888C519.197 318.61 518.819 318.453 518.425 318.453V318.453Z" fill="#E4E4E4"/>
<path d="M481.085 325.402H458.225C457.831 325.402 457.454 325.559 457.175 325.837C456.897 326.116 456.74 326.494 456.74 326.887C456.74 327.281 456.897 327.659 457.175 327.937C457.454 328.216 457.831 328.372 458.225 328.372H481.085C481.479 328.372 481.857 328.216 482.135 327.937C482.414 327.659 482.57 327.281 482.57 326.887C482.57 326.494 482.414 326.116 482.135 325.837C481.857 325.559 481.479 325.402 481.085 325.402Z" fill="#E4E4E4"/>
<path d="M449.985 358.543C449.696 358.058 449.286 357.656 448.796 357.377C448.305 357.098 447.749 356.952 447.185 356.953H429.915C429.394 356.952 428.881 357.076 428.418 357.314C427.955 357.553 427.556 357.899 427.255 358.323L450.455 361.363V360.213C450.456 359.624 450.293 359.046 449.985 358.543V358.543Z" fill="#6C63FF"/>
<path d="M518.425 362.742H461.055L483.725 365.702H510.565L519.115 362.922C518.905 362.801 518.667 362.739 518.425 362.742V362.742Z" fill="#E4E4E4"/>
<path d="M602.775 336.663C602.666 336.734 602.548 336.791 602.425 336.833L597.455 338.443L557.235 351.533L543.175 356.093L542.655 356.263L541.555 356.623L519.115 363.923L510.565 366.703L503.155 369.113C503.045 369.143 502.925 369.163 502.805 369.183C502.725 369.173 502.645 369.173 502.555 369.163L483.725 366.703L461.055 363.743L450.455 362.363L427.255 359.323L404.995 356.423L404.445 356.353L403.895 356.273L337.485 347.603L336.925 347.523C336.796 347.511 336.67 347.474 336.555 347.413C336.288 347.293 336.066 347.09 335.922 346.835C335.778 346.579 335.72 346.284 335.755 345.993C335.782 345.749 335.875 345.517 336.025 345.323C336.085 345.263 336.135 345.203 336.195 345.153C336.245 345.123 336.305 345.063 336.365 345.033C336.634 344.848 336.962 344.77 337.285 344.813L340.605 345.253L403.895 353.523L404.445 353.593L404.995 353.663L437.785 357.953L449.985 359.543L482.095 363.743L502.605 366.423L510.855 363.743L537.095 355.213L541.555 353.763L542.105 353.583L542.655 353.403L556.385 348.943L597.225 335.653L600.885 334.463L601.595 334.233C601.901 334.137 602.231 334.151 602.527 334.273C602.824 334.396 603.067 334.619 603.215 334.903C603.251 334.971 603.282 335.041 603.305 335.113C603.395 335.394 603.392 335.697 603.296 335.976C603.201 336.255 603.018 336.496 602.775 336.663Z" fill="#3F3D56"/>
<path d="M464.683 430.703C463.805 430.703 462.928 430.635 462.061 430.5L361.656 414.819C358.208 414.27 355.009 412.686 352.481 410.278C349.954 407.869 348.218 404.75 347.502 401.333L336.297 346.943L336.987 347.027L504.834 367.317L480.293 420.716C478.913 423.694 476.71 426.217 473.945 427.986C471.179 429.755 467.966 430.698 464.683 430.703V430.703Z" fill="#3F3D56"/>
<path d="M290.396 493.718L302.623 491.168L298.61 442.793L280.564 446.556L290.396 493.718Z" fill="#9E616A"/>
<path d="M284.994 488.547L288.649 518.245L288.657 518.305L288.942 518.245L297.335 516.493L297.177 507.98L302.848 515.35L308.278 514.222V514.214L319.242 511.928L320.13 511.747L323.514 511.041L325.861 510.552C326.739 510.367 327.556 509.961 328.235 509.373C328.913 508.785 329.431 508.034 329.739 507.191C330.048 506.348 330.136 505.44 329.997 504.553C329.858 503.666 329.495 502.829 328.944 502.121C328.521 501.585 328 501.133 327.41 500.79C327.334 500.753 327.259 500.707 327.184 500.67H327.177C327.063 500.61 326.951 500.557 326.831 500.504L326.628 500.414L323.04 498.903L323.025 498.895L313.557 494.909L305.811 491.645L304.089 483.365L302.021 483.929L289.085 487.434L284.994 488.547Z" fill="#2F2E41"/>
<path d="M206.364 454.223L215.86 462.338L251.676 429.574L237.662 417.598L206.364 454.223Z" fill="#9E616A"/>
<path d="M192.582 473.646L199.223 468.311L196.867 477.302L214.736 492.573C215.258 493.023 215.864 493.364 216.519 493.577C217.013 493.737 217.527 493.824 218.047 493.836C218.866 493.856 219.679 493.685 220.421 493.336C221.163 492.987 221.814 492.471 222.322 491.827C222.83 491.184 223.181 490.431 223.348 489.628C223.515 488.825 223.492 487.995 223.282 487.202L217.432 465.15L222.93 458.722L221.219 457.432L210.531 449.343L207.15 446.787L185.848 467.883L192.582 473.646Z" fill="#2F2E41"/>
<path d="M254.395 261.062L313.26 258.798L315.475 199.072L265.735 200.669L254.395 261.062Z" fill="#9E616A"/>
<path d="M298.408 127.831C310.788 127.831 320.825 117.794 320.825 105.413C320.825 93.0327 310.788 82.9961 298.408 82.9961C286.027 82.9961 275.99 93.0327 275.99 105.413C275.99 117.794 286.027 127.831 298.408 127.831Z" fill="#9E616A"/>
<path d="M279.061 85.7252L304.872 72.8008C310.149 75.1787 314.694 78.9251 318.035 83.6514C321.376 88.3777 323.392 93.9118 323.873 99.6798L324.517 107.386L313.708 104.635L312.524 94.7807L310.689 103.866L305.701 102.597L305.748 87.2986L300.757 102.586L282.942 98.493L279.061 85.7252Z" fill="#2F2E41"/>
<path d="M314.393 245.214C314.393 245.214 334.005 279.302 315.07 331.022L288.295 399.297L241.772 446.378L216.77 431.598L263.255 392.185L242.524 321.911C237.751 305.984 236.279 289.251 238.2 272.736C239.694 260.378 250.846 250.735 258.475 239.072C283.95 255.504 313.293 252.86 314.393 245.214Z" fill="#2F2E41"/>
<path d="M288.327 382.031L305.783 463.117L280.532 467.878L266.152 399.713L288.327 382.031Z" fill="#2F2E41"/>
<path d="M281.979 135.326L310.962 135.713L320.395 147.691C324.901 148.753 328.994 151.116 332.167 154.486C335.34 157.857 337.453 162.085 338.242 166.646L339.132 171.788C340.973 182.427 339.018 193.375 333.61 202.719V202.719L315.915 219.421L316.682 220.816C317.062 221.505 317.173 222.31 316.995 223.076C316.818 223.843 316.364 224.516 315.72 224.968C316.263 226.338 316.326 227.851 315.899 229.262L315.525 230.498C315.525 230.498 325.445 233.135 264.242 224.05C262.945 223.857 261.747 223.247 260.827 222.312C259.908 221.376 259.319 220.167 259.148 218.867V218.867C258.483 218.198 258.045 217.337 257.895 216.406C257.745 215.475 257.892 214.52 258.314 213.676L258.439 213.427L257.81 212.686C257.111 211.863 256.707 210.829 256.662 209.75C256.618 208.67 256.936 207.606 257.565 206.728V206.728L257.404 171.656C256.668 166.393 257.826 161.04 260.672 156.552C263.517 152.064 267.864 148.732 272.938 147.152V147.152L281.979 135.326Z" fill="#E6E6E6"/>
<path d="M364.421 285.262C364.406 283.884 364.09 282.525 363.493 281.282C362.897 280.04 362.035 278.943 360.969 278.069C359.902 277.195 358.658 276.566 357.322 276.226C355.986 275.885 354.592 275.841 353.237 276.098L336.553 247.039L328.72 262.59L345.765 287.801C346.346 290.048 347.732 292.003 349.659 293.296C351.586 294.59 353.921 295.131 356.221 294.818C358.52 294.505 360.625 293.359 362.137 291.598C363.648 289.837 364.461 287.582 364.421 285.262V285.262Z" fill="#9E616A"/>
<path d="M272.817 166.709L263.499 168.146C263.499 168.146 260.648 174.239 267.172 186.037C273.695 197.834 335.591 273.32 335.591 273.32L340.823 253.757L304.846 187.574L272.817 166.709Z" fill="#E6E6E6"/>
<path d="M860.485 518.489H1.19115C0.875955 518.488 0.573992 518.362 0.35144 518.139C0.128889 517.916 0.00390625 517.613 0.00390625 517.298C0.00390625 516.983 0.128889 516.681 0.35144 516.457C0.573992 516.234 0.875955 516.108 1.19115 516.107H860.485C860.801 516.107 861.104 516.233 861.327 516.456C861.55 516.679 861.676 516.982 861.676 517.298C861.676 517.614 861.55 517.917 861.327 518.14C861.104 518.363 860.801 518.489 860.485 518.489V518.489Z" fill="#CCCCCC"/>
<path d="M649.571 405.919C643.281 405.898 637.019 405.088 630.931 403.508L629.731 403.176L628.618 402.618C588.376 382.442 554.426 355.791 527.711 323.407C505.596 296.442 488.355 265.827 476.762 232.937C462.898 193.559 456.228 152.01 457.071 110.272C457.088 109.396 457.102 108.72 457.102 108.254C457.102 87.9645 468.364 70.1623 485.794 62.9C499.133 57.3419 620.249 7.59478 629 4.00041C645.48 -4.25731 663.062 2.63506 665.875 3.84035C672.186 6.4206 784.151 52.2153 808.346 63.7366C833.282 75.6107 839.935 96.9422 839.935 107.674C839.935 156.263 831.52 201.672 814.924 242.642C801.52 275.804 782.524 306.419 758.761 333.153C712.915 384.747 667.056 403.037 666.613 403.198C661.132 405.084 655.366 406.005 649.571 405.919ZM638.786 379.205C642.762 380.097 651.916 381.434 657.882 379.257C665.461 376.493 703.844 356.589 739.712 316.225C789.269 260.456 814.415 190.35 814.451 107.854C814.363 106.182 813.176 94.2618 797.39 86.745C773.664 75.4467 657.286 27.8601 656.113 27.3805L655.792 27.2442C653.353 26.2222 645.591 24.0695 640.241 26.8732L639.17 27.3726C637.873 27.9054 509.307 80.7102 495.595 86.4233C486.003 90.4198 482.586 100.321 482.586 108.254C482.586 108.833 482.571 109.677 482.55 110.767C481.454 167.214 494.516 306.113 638.786 379.205Z" fill="#3F3D56"/>
<path d="M634.329 15.5854C634.329 15.5854 504.594 68.8692 490.694 74.6609C476.794 80.4527 469.844 94.3528 469.844 108.253C469.844 122.153 459.419 303.531 634.329 391.227C634.329 391.227 650.203 395.619 662.247 391.227C674.292 386.835 827.193 312.701 827.193 107.674C827.193 107.674 827.193 86.8236 802.868 75.2401C778.542 63.6567 660.934 15.5854 660.934 15.5854C660.934 15.5854 646.491 9.21452 634.329 15.5854Z" fill="#6C63FF"/>
<path opacity="0.1" d="M648.228 57.2871V341.537C648.228 341.537 517.336 278.531 518.494 112.888L648.228 57.2871Z" fill="black"/>
<path d="M649.936 261.581L608.24 207.969L632.488 189.11L652.231 214.494L718.926 144.088L741.229 165.219L649.936 261.581Z" fill="white"/>
</svg>
